%TF.GenerationSoftware,KiCad,Pcbnew,(6.0.0-rc1-343-g73b39e836d)*%
%TF.CreationDate,2021-12-09T15:59:46-05:00*%
%TF.ProjectId,Celestron-WiFi,43656c65-7374-4726-9f6e-2d576946692e,rev?*%
%TF.SameCoordinates,Original*%
%TF.FileFunction,Legend,Top*%
%TF.FilePolarity,Positive*%
%FSLAX46Y46*%
G04 Gerber Fmt 4.6, Leading zero omitted, Abs format (unit mm)*
G04 Created by KiCad (PCBNEW (6.0.0-rc1-343-g73b39e836d)) date 2021-12-09 15:59:46*
%MOMM*%
%LPD*%
G01*
G04 APERTURE LIST*
%ADD10C,0.152400*%
%ADD11C,0.150000*%
%ADD12C,0.120000*%
%ADD13C,0.100000*%
G04 APERTURE END LIST*
D10*
X137341428Y-102717600D02*
X137264019Y-102678895D01*
X137147904Y-102678895D01*
X137031790Y-102717600D01*
X136954380Y-102795009D01*
X136915676Y-102872419D01*
X136876971Y-103027238D01*
X136876971Y-103143352D01*
X136915676Y-103298171D01*
X136954380Y-103375580D01*
X137031790Y-103452990D01*
X137147904Y-103491695D01*
X137225314Y-103491695D01*
X137341428Y-103452990D01*
X137380133Y-103414285D01*
X137380133Y-103143352D01*
X137225314Y-103143352D01*
X137728476Y-103491695D02*
X137728476Y-102678895D01*
X138038114Y-102678895D01*
X138115523Y-102717600D01*
X138154228Y-102756304D01*
X138192933Y-102833714D01*
X138192933Y-102949828D01*
X138154228Y-103027238D01*
X138115523Y-103065942D01*
X138038114Y-103104647D01*
X137728476Y-103104647D01*
X138502571Y-103452990D02*
X138618685Y-103491695D01*
X138812209Y-103491695D01*
X138889619Y-103452990D01*
X138928323Y-103414285D01*
X138967028Y-103336876D01*
X138967028Y-103259466D01*
X138928323Y-103182057D01*
X138889619Y-103143352D01*
X138812209Y-103104647D01*
X138657390Y-103065942D01*
X138579980Y-103027238D01*
X138541276Y-102988533D01*
X138502571Y-102911123D01*
X138502571Y-102833714D01*
X138541276Y-102756304D01*
X138579980Y-102717600D01*
X138657390Y-102678895D01*
X138850914Y-102678895D01*
X138967028Y-102717600D01*
X138509828Y-89507180D02*
X139051695Y-89507180D01*
X138200190Y-89700704D02*
X138780761Y-89894228D01*
X138780761Y-89391066D01*
X138238895Y-87392933D02*
X138238895Y-86889771D01*
X138548533Y-87160704D01*
X138548533Y-87044590D01*
X138587238Y-86967180D01*
X138625942Y-86928476D01*
X138703352Y-86889771D01*
X138896876Y-86889771D01*
X138974285Y-86928476D01*
X139012990Y-86967180D01*
X139051695Y-87044590D01*
X139051695Y-87276819D01*
X139012990Y-87354228D01*
X138974285Y-87392933D01*
X138316304Y-84814228D02*
X138277600Y-84775523D01*
X138238895Y-84698114D01*
X138238895Y-84504590D01*
X138277600Y-84427180D01*
X138316304Y-84388476D01*
X138393714Y-84349771D01*
X138471123Y-84349771D01*
X138587238Y-84388476D01*
X139051695Y-84852933D01*
X139051695Y-84349771D01*
X139051695Y-81809771D02*
X139051695Y-82274228D01*
X139051695Y-82042000D02*
X138238895Y-82042000D01*
X138355009Y-82119409D01*
X138432419Y-82196819D01*
X138471123Y-82274228D01*
X112785676Y-91045695D02*
X112514742Y-90658647D01*
X112321219Y-91045695D02*
X112321219Y-90232895D01*
X112630857Y-90232895D01*
X112708266Y-90271600D01*
X112746971Y-90310304D01*
X112785676Y-90387714D01*
X112785676Y-90503828D01*
X112746971Y-90581238D01*
X112708266Y-90619942D01*
X112630857Y-90658647D01*
X112321219Y-90658647D01*
X113443657Y-91006990D02*
X113366247Y-91045695D01*
X113211428Y-91045695D01*
X113134019Y-91006990D01*
X113095314Y-90929580D01*
X113095314Y-90619942D01*
X113134019Y-90542533D01*
X113211428Y-90503828D01*
X113366247Y-90503828D01*
X113443657Y-90542533D01*
X113482361Y-90619942D01*
X113482361Y-90697352D01*
X113095314Y-90774761D01*
X113792000Y-91006990D02*
X113869409Y-91045695D01*
X114024228Y-91045695D01*
X114101638Y-91006990D01*
X114140342Y-90929580D01*
X114140342Y-90890876D01*
X114101638Y-90813466D01*
X114024228Y-90774761D01*
X113908114Y-90774761D01*
X113830704Y-90736057D01*
X113792000Y-90658647D01*
X113792000Y-90619942D01*
X113830704Y-90542533D01*
X113908114Y-90503828D01*
X114024228Y-90503828D01*
X114101638Y-90542533D01*
X114798323Y-91006990D02*
X114720914Y-91045695D01*
X114566095Y-91045695D01*
X114488685Y-91006990D01*
X114449980Y-90929580D01*
X114449980Y-90619942D01*
X114488685Y-90542533D01*
X114566095Y-90503828D01*
X114720914Y-90503828D01*
X114798323Y-90542533D01*
X114837028Y-90619942D01*
X114837028Y-90697352D01*
X114449980Y-90774761D01*
X115069257Y-90503828D02*
X115378895Y-90503828D01*
X115185371Y-90232895D02*
X115185371Y-90929580D01*
X115224076Y-91006990D01*
X115301485Y-91045695D01*
X115378895Y-91045695D01*
D11*
%TO.C,U2*%
X117642095Y-58802380D02*
X117642095Y-59611904D01*
X117689714Y-59707142D01*
X117737333Y-59754761D01*
X117832571Y-59802380D01*
X118023047Y-59802380D01*
X118118285Y-59754761D01*
X118165904Y-59707142D01*
X118213523Y-59611904D01*
X118213523Y-58802380D01*
X118642095Y-58897619D02*
X118689714Y-58850000D01*
X118784952Y-58802380D01*
X119023047Y-58802380D01*
X119118285Y-58850000D01*
X119165904Y-58897619D01*
X119213523Y-58992857D01*
X119213523Y-59088095D01*
X119165904Y-59230952D01*
X118594476Y-59802380D01*
X119213523Y-59802380D01*
D10*
%TO.C,D1*%
X122336076Y-100697695D02*
X122336076Y-99884895D01*
X122529600Y-99884895D01*
X122645714Y-99923600D01*
X122723123Y-100001009D01*
X122761828Y-100078419D01*
X122800533Y-100233238D01*
X122800533Y-100349352D01*
X122761828Y-100504171D01*
X122723123Y-100581580D01*
X122645714Y-100658990D01*
X122529600Y-100697695D01*
X122336076Y-100697695D01*
X123574628Y-100697695D02*
X123110171Y-100697695D01*
X123342400Y-100697695D02*
X123342400Y-99884895D01*
X123264990Y-100001009D01*
X123187580Y-100078419D01*
X123110171Y-100117123D01*
%TO.C,U1*%
X116474723Y-100392895D02*
X116474723Y-101050876D01*
X116513428Y-101128285D01*
X116552133Y-101166990D01*
X116629542Y-101205695D01*
X116784361Y-101205695D01*
X116861771Y-101166990D01*
X116900476Y-101128285D01*
X116939180Y-101050876D01*
X116939180Y-100392895D01*
X117751980Y-101205695D02*
X117287523Y-101205695D01*
X117519752Y-101205695D02*
X117519752Y-100392895D01*
X117442342Y-100509009D01*
X117364933Y-100586419D01*
X117287523Y-100625123D01*
%TO.C,R1*%
X114926533Y-68693695D02*
X114655600Y-68306647D01*
X114462076Y-68693695D02*
X114462076Y-67880895D01*
X114771714Y-67880895D01*
X114849123Y-67919600D01*
X114887828Y-67958304D01*
X114926533Y-68035714D01*
X114926533Y-68151828D01*
X114887828Y-68229238D01*
X114849123Y-68267942D01*
X114771714Y-68306647D01*
X114462076Y-68306647D01*
X115700628Y-68693695D02*
X115236171Y-68693695D01*
X115468400Y-68693695D02*
X115468400Y-67880895D01*
X115390990Y-67997009D01*
X115313580Y-68074419D01*
X115236171Y-68113123D01*
%TO.C,C3*%
X112640533Y-68616285D02*
X112601828Y-68654990D01*
X112485714Y-68693695D01*
X112408304Y-68693695D01*
X112292190Y-68654990D01*
X112214780Y-68577580D01*
X112176076Y-68500171D01*
X112137371Y-68345352D01*
X112137371Y-68229238D01*
X112176076Y-68074419D01*
X112214780Y-67997009D01*
X112292190Y-67919600D01*
X112408304Y-67880895D01*
X112485714Y-67880895D01*
X112601828Y-67919600D01*
X112640533Y-67958304D01*
X112911466Y-67880895D02*
X113414628Y-67880895D01*
X113143695Y-68190533D01*
X113259809Y-68190533D01*
X113337219Y-68229238D01*
X113375923Y-68267942D01*
X113414628Y-68345352D01*
X113414628Y-68538876D01*
X113375923Y-68616285D01*
X113337219Y-68654990D01*
X113259809Y-68693695D01*
X113027580Y-68693695D01*
X112950171Y-68654990D01*
X112911466Y-68616285D01*
%TO.C,C2*%
X116704533Y-89444285D02*
X116665828Y-89482990D01*
X116549714Y-89521695D01*
X116472304Y-89521695D01*
X116356190Y-89482990D01*
X116278780Y-89405580D01*
X116240076Y-89328171D01*
X116201371Y-89173352D01*
X116201371Y-89057238D01*
X116240076Y-88902419D01*
X116278780Y-88825009D01*
X116356190Y-88747600D01*
X116472304Y-88708895D01*
X116549714Y-88708895D01*
X116665828Y-88747600D01*
X116704533Y-88786304D01*
X117014171Y-88786304D02*
X117052876Y-88747600D01*
X117130285Y-88708895D01*
X117323809Y-88708895D01*
X117401219Y-88747600D01*
X117439923Y-88786304D01*
X117478628Y-88863714D01*
X117478628Y-88941123D01*
X117439923Y-89057238D01*
X116975466Y-89521695D01*
X117478628Y-89521695D01*
%TO.C,L1*%
X128134533Y-97903695D02*
X127747485Y-97903695D01*
X127747485Y-97090895D01*
X128831219Y-97903695D02*
X128366761Y-97903695D01*
X128598990Y-97903695D02*
X128598990Y-97090895D01*
X128521580Y-97207009D01*
X128444171Y-97284419D01*
X128366761Y-97323123D01*
%TO.C,C1*%
X122800533Y-105192285D02*
X122761828Y-105230990D01*
X122645714Y-105269695D01*
X122568304Y-105269695D01*
X122452190Y-105230990D01*
X122374780Y-105153580D01*
X122336076Y-105076171D01*
X122297371Y-104921352D01*
X122297371Y-104805238D01*
X122336076Y-104650419D01*
X122374780Y-104573009D01*
X122452190Y-104495600D01*
X122568304Y-104456895D01*
X122645714Y-104456895D01*
X122761828Y-104495600D01*
X122800533Y-104534304D01*
X123574628Y-105269695D02*
X123110171Y-105269695D01*
X123342400Y-105269695D02*
X123342400Y-104456895D01*
X123264990Y-104573009D01*
X123187580Y-104650419D01*
X123110171Y-104689123D01*
%TO.C,Q1*%
X113714590Y-84265104D02*
X113637180Y-84226400D01*
X113559771Y-84148990D01*
X113443657Y-84032876D01*
X113366247Y-83994171D01*
X113288838Y-83994171D01*
X113327542Y-84187695D02*
X113250133Y-84148990D01*
X113172723Y-84071580D01*
X113134019Y-83916761D01*
X113134019Y-83645828D01*
X113172723Y-83491009D01*
X113250133Y-83413600D01*
X113327542Y-83374895D01*
X113482361Y-83374895D01*
X113559771Y-83413600D01*
X113637180Y-83491009D01*
X113675885Y-83645828D01*
X113675885Y-83916761D01*
X113637180Y-84071580D01*
X113559771Y-84148990D01*
X113482361Y-84187695D01*
X113327542Y-84187695D01*
X114449980Y-84187695D02*
X113985523Y-84187695D01*
X114217752Y-84187695D02*
X114217752Y-83374895D01*
X114140342Y-83491009D01*
X114062933Y-83568419D01*
X113985523Y-83607123D01*
%TO.C,R3*%
X134992533Y-109079695D02*
X134721600Y-108692647D01*
X134528076Y-109079695D02*
X134528076Y-108266895D01*
X134837714Y-108266895D01*
X134915123Y-108305600D01*
X134953828Y-108344304D01*
X134992533Y-108421714D01*
X134992533Y-108537828D01*
X134953828Y-108615238D01*
X134915123Y-108653942D01*
X134837714Y-108692647D01*
X134528076Y-108692647D01*
X135263466Y-108266895D02*
X135766628Y-108266895D01*
X135495695Y-108576533D01*
X135611809Y-108576533D01*
X135689219Y-108615238D01*
X135727923Y-108653942D01*
X135766628Y-108731352D01*
X135766628Y-108924876D01*
X135727923Y-109002285D01*
X135689219Y-109040990D01*
X135611809Y-109079695D01*
X135379580Y-109079695D01*
X135302171Y-109040990D01*
X135263466Y-109002285D01*
%TO.C,R4*%
X117212533Y-109079695D02*
X116941600Y-108692647D01*
X116748076Y-109079695D02*
X116748076Y-108266895D01*
X117057714Y-108266895D01*
X117135123Y-108305600D01*
X117173828Y-108344304D01*
X117212533Y-108421714D01*
X117212533Y-108537828D01*
X117173828Y-108615238D01*
X117135123Y-108653942D01*
X117057714Y-108692647D01*
X116748076Y-108692647D01*
X117909219Y-108537828D02*
X117909219Y-109079695D01*
X117715695Y-108228190D02*
X117522171Y-108808761D01*
X118025333Y-108808761D01*
%TO.C,C7*%
X114926533Y-64552285D02*
X114887828Y-64590990D01*
X114771714Y-64629695D01*
X114694304Y-64629695D01*
X114578190Y-64590990D01*
X114500780Y-64513580D01*
X114462076Y-64436171D01*
X114423371Y-64281352D01*
X114423371Y-64165238D01*
X114462076Y-64010419D01*
X114500780Y-63933009D01*
X114578190Y-63855600D01*
X114694304Y-63816895D01*
X114771714Y-63816895D01*
X114887828Y-63855600D01*
X114926533Y-63894304D01*
X115197466Y-63816895D02*
X115739333Y-63816895D01*
X115390990Y-64629695D01*
%TO.C,U3*%
X122316723Y-92010895D02*
X122316723Y-92668876D01*
X122355428Y-92746285D01*
X122394133Y-92784990D01*
X122471542Y-92823695D01*
X122626361Y-92823695D01*
X122703771Y-92784990D01*
X122742476Y-92746285D01*
X122781180Y-92668876D01*
X122781180Y-92010895D01*
X123090819Y-92010895D02*
X123593980Y-92010895D01*
X123323047Y-92320533D01*
X123439161Y-92320533D01*
X123516571Y-92359238D01*
X123555276Y-92397942D01*
X123593980Y-92475352D01*
X123593980Y-92668876D01*
X123555276Y-92746285D01*
X123516571Y-92784990D01*
X123439161Y-92823695D01*
X123206933Y-92823695D01*
X123129523Y-92784990D01*
X123090819Y-92746285D01*
%TO.C,C5*%
X132960533Y-100112285D02*
X132921828Y-100150990D01*
X132805714Y-100189695D01*
X132728304Y-100189695D01*
X132612190Y-100150990D01*
X132534780Y-100073580D01*
X132496076Y-99996171D01*
X132457371Y-99841352D01*
X132457371Y-99725238D01*
X132496076Y-99570419D01*
X132534780Y-99493009D01*
X132612190Y-99415600D01*
X132728304Y-99376895D01*
X132805714Y-99376895D01*
X132921828Y-99415600D01*
X132960533Y-99454304D01*
X133695923Y-99376895D02*
X133308876Y-99376895D01*
X133270171Y-99763942D01*
X133308876Y-99725238D01*
X133386285Y-99686533D01*
X133579809Y-99686533D01*
X133657219Y-99725238D01*
X133695923Y-99763942D01*
X133734628Y-99841352D01*
X133734628Y-100034876D01*
X133695923Y-100112285D01*
X133657219Y-100150990D01*
X133579809Y-100189695D01*
X133386285Y-100189695D01*
X133308876Y-100150990D01*
X133270171Y-100112285D01*
%TO.C,C4*%
X119244533Y-94016285D02*
X119205828Y-94054990D01*
X119089714Y-94093695D01*
X119012304Y-94093695D01*
X118896190Y-94054990D01*
X118818780Y-93977580D01*
X118780076Y-93900171D01*
X118741371Y-93745352D01*
X118741371Y-93629238D01*
X118780076Y-93474419D01*
X118818780Y-93397009D01*
X118896190Y-93319600D01*
X119012304Y-93280895D01*
X119089714Y-93280895D01*
X119205828Y-93319600D01*
X119244533Y-93358304D01*
X119941219Y-93551828D02*
X119941219Y-94093695D01*
X119747695Y-93242190D02*
X119554171Y-93822761D01*
X120057333Y-93822761D01*
%TO.C,C6*%
X112640533Y-64552285D02*
X112601828Y-64590990D01*
X112485714Y-64629695D01*
X112408304Y-64629695D01*
X112292190Y-64590990D01*
X112214780Y-64513580D01*
X112176076Y-64436171D01*
X112137371Y-64281352D01*
X112137371Y-64165238D01*
X112176076Y-64010419D01*
X112214780Y-63933009D01*
X112292190Y-63855600D01*
X112408304Y-63816895D01*
X112485714Y-63816895D01*
X112601828Y-63855600D01*
X112640533Y-63894304D01*
X113337219Y-63816895D02*
X113182400Y-63816895D01*
X113104990Y-63855600D01*
X113066285Y-63894304D01*
X112988876Y-64010419D01*
X112950171Y-64165238D01*
X112950171Y-64474876D01*
X112988876Y-64552285D01*
X113027580Y-64590990D01*
X113104990Y-64629695D01*
X113259809Y-64629695D01*
X113337219Y-64590990D01*
X113375923Y-64552285D01*
X113414628Y-64474876D01*
X113414628Y-64281352D01*
X113375923Y-64203942D01*
X113337219Y-64165238D01*
X113259809Y-64126533D01*
X113104990Y-64126533D01*
X113027580Y-64165238D01*
X112988876Y-64203942D01*
X112950171Y-64281352D01*
%TO.C,R2*%
X138802533Y-68947695D02*
X138531600Y-68560647D01*
X138338076Y-68947695D02*
X138338076Y-68134895D01*
X138647714Y-68134895D01*
X138725123Y-68173600D01*
X138763828Y-68212304D01*
X138802533Y-68289714D01*
X138802533Y-68405828D01*
X138763828Y-68483238D01*
X138725123Y-68521942D01*
X138647714Y-68560647D01*
X138338076Y-68560647D01*
X139112171Y-68212304D02*
X139150876Y-68173600D01*
X139228285Y-68134895D01*
X139421809Y-68134895D01*
X139499219Y-68173600D01*
X139537923Y-68212304D01*
X139576628Y-68289714D01*
X139576628Y-68367123D01*
X139537923Y-68483238D01*
X139073466Y-68947695D01*
X139576628Y-68947695D01*
D11*
%TO.C,J2*%
X125904670Y-114514368D02*
X125904670Y-115228654D01*
X125857051Y-115371511D01*
X125761813Y-115466749D01*
X125618956Y-115514368D01*
X125523718Y-115514368D01*
X126333242Y-114609607D02*
X126380861Y-114561988D01*
X126476099Y-114514368D01*
X126714194Y-114514368D01*
X126809432Y-114561988D01*
X126857051Y-114609607D01*
X126904670Y-114704845D01*
X126904670Y-114800083D01*
X126857051Y-114942940D01*
X126285623Y-115514368D01*
X126904670Y-115514368D01*
D12*
%TO.C,SW1*%
X115362000Y-89192000D02*
X115062000Y-89192000D01*
X115062000Y-85052000D02*
X115362000Y-85052000D01*
X112222000Y-89192000D02*
X112222000Y-85052000D01*
X112522000Y-89192000D02*
X112222000Y-89192000D01*
X112222000Y-85052000D02*
X112522000Y-85052000D01*
X115362000Y-85052000D02*
X115362000Y-89192000D01*
%TO.C,J1*%
X136558000Y-96238000D02*
X135568000Y-96238000D01*
X136558000Y-95188000D02*
X136558000Y-96238000D01*
X139678000Y-96358000D02*
X139678000Y-100238000D01*
X137708000Y-101408000D02*
X136558000Y-101408000D01*
X136558000Y-101408000D02*
X136558000Y-100358000D01*
X137708000Y-95188000D02*
X136558000Y-95188000D01*
%TO.C,U2*%
X116864000Y-79570000D02*
X117864000Y-79570000D01*
X135104000Y-79570000D02*
X134104000Y-79570000D01*
X116864000Y-60130000D02*
X116864000Y-60550000D01*
X116864000Y-60130000D02*
X135104000Y-60130000D01*
X135104000Y-60130000D02*
X135104000Y-60550000D01*
X135104000Y-78950000D02*
X135104000Y-79570000D01*
X116864000Y-60550000D02*
X116484000Y-60550000D01*
X116864000Y-78950000D02*
X116864000Y-79570000D01*
%TO.C,D1*%
X121936000Y-95844000D02*
X121936000Y-98044000D01*
X123936000Y-98069000D02*
X123936000Y-95844000D01*
X121936000Y-95844000D02*
X123936000Y-95844000D01*
%TO.C,U1*%
X117094000Y-100096000D02*
X119044000Y-100096000D01*
X117094000Y-94976000D02*
X113644000Y-94976000D01*
X117094000Y-94976000D02*
X119044000Y-94976000D01*
X117094000Y-100096000D02*
X115144000Y-100096000D01*
%TO.C,R1*%
X114539500Y-66531258D02*
X114539500Y-66056742D01*
X115584500Y-66531258D02*
X115584500Y-66056742D01*
%TO.C,C3*%
X112266000Y-66434580D02*
X112266000Y-66153420D01*
X113286000Y-66434580D02*
X113286000Y-66153420D01*
%TO.C,C2*%
X117350000Y-86981420D02*
X117350000Y-87262580D01*
X116330000Y-86981420D02*
X116330000Y-87262580D01*
%TO.C,L1*%
X127770000Y-100046000D02*
X128770000Y-100046000D01*
X127770000Y-95026000D02*
X128770000Y-95026000D01*
%TO.C,C1*%
X123721000Y-103616000D02*
X123721000Y-100906000D01*
X123721000Y-100906000D02*
X122151000Y-100906000D01*
X122151000Y-100906000D02*
X122151000Y-103616000D01*
%TO.C,Q1*%
X113092000Y-82948000D02*
X114492000Y-82948000D01*
X114492000Y-80628000D02*
X112592000Y-80628000D01*
%TO.C,R3*%
X134605500Y-106188742D02*
X134605500Y-106663258D01*
X135650500Y-106188742D02*
X135650500Y-106663258D01*
%TO.C,R4*%
X116825500Y-106188742D02*
X116825500Y-106663258D01*
X117870500Y-106188742D02*
X117870500Y-106663258D01*
%TO.C,D2*%
X139673000Y-60745000D02*
X138203000Y-60745000D01*
X138203000Y-60745000D02*
X138203000Y-63030000D01*
X139673000Y-63030000D02*
X139673000Y-60745000D01*
%TO.C,C7*%
X115572000Y-62089420D02*
X115572000Y-62370580D01*
X114552000Y-62089420D02*
X114552000Y-62370580D01*
%TO.C,U3*%
X122936000Y-82687000D02*
X124886000Y-82687000D01*
X122936000Y-91557000D02*
X124886000Y-91557000D01*
X122936000Y-91557000D02*
X120986000Y-91557000D01*
X122936000Y-82687000D02*
X119486000Y-82687000D01*
%TO.C,SW2*%
X132556000Y-90297000D02*
X132556000Y-91567000D01*
X136176000Y-91567000D02*
X136176000Y-90297000D01*
X132556000Y-88957000D02*
X133762667Y-88957000D01*
X136176000Y-90297000D02*
X132556000Y-90297000D01*
X130956000Y-81202000D02*
X137776000Y-81202000D01*
X132556000Y-85697000D02*
X133762667Y-85697000D01*
X130716000Y-80962000D02*
X130716000Y-82345000D01*
X132556000Y-91137000D02*
X133762667Y-91137000D01*
X132556000Y-83157000D02*
X133762667Y-83157000D01*
X132556000Y-86177000D02*
X133762667Y-86177000D01*
X136176000Y-86487000D02*
X136176000Y-85217000D01*
X136176000Y-82677000D02*
X132556000Y-82677000D01*
X130716000Y-80962000D02*
X132099000Y-80962000D01*
X137776000Y-81202000D02*
X137776000Y-82512000D01*
X137776000Y-89192000D02*
X137776000Y-90132000D01*
X132556000Y-91377000D02*
X133762667Y-91377000D01*
X137776000Y-86652000D02*
X137776000Y-87592000D01*
X132556000Y-90897000D02*
X133762667Y-90897000D01*
X136176000Y-89027000D02*
X136176000Y-87757000D01*
X132556000Y-88117000D02*
X133762667Y-88117000D01*
X130956000Y-86652000D02*
X130956000Y-87592000D01*
X132556000Y-82677000D02*
X132556000Y-83947000D01*
X132556000Y-89027000D02*
X136176000Y-89027000D01*
X132556000Y-85337000D02*
X133762667Y-85337000D01*
X130956000Y-91732000D02*
X130956000Y-93042000D01*
X132556000Y-90777000D02*
X133762667Y-90777000D01*
X132556000Y-83947000D02*
X136176000Y-83947000D01*
X132556000Y-86417000D02*
X133762667Y-86417000D01*
X132556000Y-86487000D02*
X136176000Y-86487000D01*
X132556000Y-85457000D02*
X133762667Y-85457000D01*
X132556000Y-91567000D02*
X136176000Y-91567000D01*
X132556000Y-88597000D02*
X133762667Y-88597000D01*
X132556000Y-85937000D02*
X133762667Y-85937000D01*
X132556000Y-88477000D02*
X133762667Y-88477000D01*
X130956000Y-81202000D02*
X130956000Y-82512000D01*
X136176000Y-87757000D02*
X132556000Y-87757000D01*
X132556000Y-83277000D02*
X133762667Y-83277000D01*
X137776000Y-84112000D02*
X137776000Y-85052000D01*
X132556000Y-87757000D02*
X132556000Y-89027000D01*
X132556000Y-83397000D02*
X133762667Y-83397000D01*
X132556000Y-83037000D02*
X133762667Y-83037000D01*
X130956000Y-93042000D02*
X137776000Y-93042000D01*
X132556000Y-88717000D02*
X133762667Y-88717000D01*
X132556000Y-87997000D02*
X133762667Y-87997000D01*
X136176000Y-85217000D02*
X132556000Y-85217000D01*
X136176000Y-83947000D02*
X136176000Y-82677000D01*
X132556000Y-91497000D02*
X133762667Y-91497000D01*
X132556000Y-87877000D02*
X133762667Y-87877000D01*
X133762667Y-90297000D02*
X133762667Y-91567000D01*
X132556000Y-91017000D02*
X133762667Y-91017000D01*
X130956000Y-84112000D02*
X130956000Y-85052000D01*
X132556000Y-90417000D02*
X133762667Y-90417000D01*
X133762667Y-85217000D02*
X133762667Y-86487000D01*
X132556000Y-82797000D02*
X133762667Y-82797000D01*
X132556000Y-85577000D02*
X133762667Y-85577000D01*
X132556000Y-88357000D02*
X133762667Y-88357000D01*
X137776000Y-91732000D02*
X137776000Y-93042000D01*
X132556000Y-83757000D02*
X133762667Y-83757000D01*
X132556000Y-85817000D02*
X133762667Y-85817000D01*
X132556000Y-86297000D02*
X133762667Y-86297000D01*
X132556000Y-82917000D02*
X133762667Y-82917000D01*
X132556000Y-88837000D02*
X133762667Y-88837000D01*
X132556000Y-90657000D02*
X133762667Y-90657000D01*
X132556000Y-83517000D02*
X133762667Y-83517000D01*
X132556000Y-83637000D02*
X133762667Y-83637000D01*
X132556000Y-86057000D02*
X133762667Y-86057000D01*
X133762667Y-87757000D02*
X133762667Y-89027000D01*
X132556000Y-85217000D02*
X132556000Y-86487000D01*
X132556000Y-91257000D02*
X133762667Y-91257000D01*
X130956000Y-89192000D02*
X130956000Y-90132000D01*
X132556000Y-88237000D02*
X133762667Y-88237000D01*
X132556000Y-83877000D02*
X133762667Y-83877000D01*
X133762667Y-82677000D02*
X133762667Y-83947000D01*
X132556000Y-90537000D02*
X133762667Y-90537000D01*
%TO.C,C5*%
X132311000Y-95826000D02*
X132311000Y-98536000D01*
X133881000Y-98536000D02*
X133881000Y-95826000D01*
X133881000Y-95826000D02*
X132311000Y-95826000D01*
%TO.C,C4*%
X116953420Y-94236000D02*
X117234580Y-94236000D01*
X116953420Y-93216000D02*
X117234580Y-93216000D01*
%TO.C,C6*%
X112266000Y-62089420D02*
X112266000Y-62370580D01*
X113286000Y-62089420D02*
X113286000Y-62370580D01*
%TO.C,R2*%
X138415500Y-66531258D02*
X138415500Y-66056742D01*
X139460500Y-66531258D02*
X139460500Y-66056742D01*
D13*
%TO.C,J2*%
X132838004Y-123433988D02*
X132838004Y-123553988D01*
D12*
X119638004Y-123553988D02*
X119638004Y-116773988D01*
X132838004Y-123553988D02*
X119638004Y-123553988D01*
X119638004Y-114573988D02*
X119638004Y-105553988D01*
D13*
X119638004Y-114503988D02*
X119638004Y-114573988D01*
D12*
X132838004Y-123553988D02*
X132838004Y-116773988D01*
X132838004Y-105553988D02*
X132838004Y-114573988D01*
X119168004Y-107553988D02*
X119168004Y-106023988D01*
D13*
X132838004Y-123543988D02*
X132838004Y-123553988D01*
D12*
X119638004Y-105553988D02*
X132838004Y-105553988D01*
%TD*%
M02*
