%TF.GenerationSoftware,KiCad,Pcbnew,(6.0.0-rc1-343-g73b39e836d)*%
%TF.CreationDate,2021-12-09T15:59:46-05:00*%
%TF.ProjectId,Celestron-WiFi,43656c65-7374-4726-9f6e-2d576946692e,rev?*%
%TF.SameCoordinates,Original*%
%TF.FileFunction,Copper,L4,Bot*%
%TF.FilePolarity,Positive*%
%FSLAX46Y46*%
G04 Gerber Fmt 4.6, Leading zero omitted, Abs format (unit mm)*
G04 Created by KiCad (PCBNEW (6.0.0-rc1-343-g73b39e836d)) date 2021-12-09 15:59:46*
%MOMM*%
%LPD*%
G01*
G04 APERTURE LIST*
%TA.AperFunction,ComponentPad*%
%ADD10R,1.520000X1.520000*%
%TD*%
%TA.AperFunction,ComponentPad*%
%ADD11C,1.520000*%
%TD*%
%TA.AperFunction,ViaPad*%
%ADD12C,0.812800*%
%TD*%
%TA.AperFunction,ViaPad*%
%ADD13C,0.406400*%
%TD*%
%TA.AperFunction,Conductor*%
%ADD14C,0.203200*%
%TD*%
G04 APERTURE END LIST*
D10*
%TO.P,J2,1*%
%TO.N,DTR*%
X123068004Y-106783988D03*
D11*
%TO.P,J2,2*%
%TO.N,/RX*%
X124338004Y-109323988D03*
%TO.P,J2,3*%
%TO.N,+12V*%
X125608004Y-106783988D03*
%TO.P,J2,4*%
%TO.N,/TX*%
X126878004Y-109323988D03*
%TO.P,J2,5*%
%TO.N,GND*%
X128148004Y-106783988D03*
%TO.P,J2,6*%
%TO.N,/BUSY*%
X129418004Y-109323988D03*
%TD*%
D12*
%TO.N,GND*%
X126873000Y-70993000D03*
X125603000Y-70993000D03*
X124333000Y-70993000D03*
X123063000Y-70993000D03*
X126873000Y-69723000D03*
X125603000Y-69723000D03*
X124333000Y-69723000D03*
X123063000Y-69723000D03*
X126873000Y-68453000D03*
X125603000Y-68453000D03*
X124333000Y-68453000D03*
X123063000Y-68453000D03*
X126873000Y-67183000D03*
X125603000Y-67183000D03*
X124333000Y-67183000D03*
X123063000Y-67183000D03*
X135890000Y-61722000D03*
X137413010Y-90932000D03*
X123952000Y-99060000D03*
X121964612Y-102974333D03*
X118872000Y-90932000D03*
X112776000Y-68072000D03*
X118110000Y-98298000D03*
X123190000Y-93980000D03*
X114046000Y-64262000D03*
X115062000Y-69342000D03*
X137922000Y-61468000D03*
X116840000Y-88900000D03*
X137414000Y-96774000D03*
X118872000Y-87122000D03*
X133096000Y-99568000D03*
X118872000Y-84582000D03*
X127000000Y-84582000D03*
X126746000Y-89662000D03*
X114554000Y-93980000D03*
X137413010Y-83312000D03*
D13*
%TO.N,EN*%
X115285064Y-81249064D03*
X116840000Y-85344000D03*
D12*
%TO.N,VCC*%
X136144000Y-105664000D03*
X134112000Y-96520000D03*
X137922000Y-67056000D03*
X116332000Y-105410000D03*
X133096000Y-95504000D03*
X115062000Y-68072000D03*
X127000000Y-83312000D03*
X135128000Y-99822000D03*
X112776000Y-64008000D03*
D13*
%TO.N,DTR*%
X112268000Y-82550000D03*
%TO.N,/RX*%
X114554000Y-91440000D03*
%TO.N,/TX*%
X114554000Y-90678000D03*
%TO.N,/BUSY*%
X128270000Y-85852000D03*
X128472700Y-91027342D03*
%TO.N,IO32*%
X127305300Y-88392000D03*
X114808000Y-70612000D03*
%TO.N,IO33*%
X114300000Y-71882000D03*
X128016000Y-87122000D03*
%TO.N,RXD0*%
X135890000Y-66802000D03*
X118872000Y-89662000D03*
%TO.N,TXD0*%
X118872000Y-83312000D03*
X135890000Y-65532000D03*
%TO.N,TXG*%
X135128000Y-97790000D03*
X136854700Y-64262000D03*
%TO.N,RXG*%
X134620000Y-98806000D03*
X136398000Y-62992000D03*
%TD*%
D14*
%TO.N,EN*%
X116840000Y-82804000D02*
X116840000Y-85344000D01*
X115285064Y-81249064D02*
X116840000Y-82804000D01*
%TO.N,DTR*%
X123068004Y-106783988D02*
X120245988Y-106783988D01*
X112268000Y-98552000D02*
X112268000Y-82550000D01*
X112268000Y-98806000D02*
X120245988Y-106783988D01*
%TO.N,/RX*%
X124338004Y-101224004D02*
X114554000Y-91440000D01*
X124338004Y-109323988D02*
X124338004Y-101224004D01*
%TO.N,/TX*%
X126878004Y-109323988D02*
X126878004Y-103002004D01*
X126878004Y-103002004D02*
X114554000Y-90678000D01*
%TO.N,/BUSY*%
X128472701Y-86054701D02*
X128472700Y-91027342D01*
X129418004Y-109323988D02*
X131419620Y-107322372D01*
X128270000Y-85852000D02*
X128472701Y-86054701D01*
X131419620Y-93974262D02*
X128472700Y-91027342D01*
X131419620Y-107322372D02*
X131419620Y-93974262D01*
%TO.N,IO32*%
X127406889Y-88493589D02*
X127406889Y-91541111D01*
X114808000Y-88138000D02*
X114808000Y-70612000D01*
X127406889Y-91541111D02*
X126492000Y-92456000D01*
X126492000Y-92456000D02*
X118872000Y-92456000D01*
X118872000Y-92456000D02*
X114808000Y-88392000D01*
X127305300Y-88392000D02*
X127406889Y-88493589D01*
%TO.N,IO33*%
X126746000Y-93218000D02*
X118872000Y-93218000D01*
X128016000Y-91948000D02*
X126746000Y-93218000D01*
X114300000Y-88392000D02*
X114300000Y-71882000D01*
X128016000Y-87122000D02*
X128016000Y-91948000D01*
X118872000Y-93218000D02*
X114300000Y-88646000D01*
%TO.N,RXD0*%
X118872000Y-89662000D02*
X119634000Y-88900000D01*
X119634000Y-88900000D02*
X119634000Y-82804000D01*
X135636000Y-66802000D02*
X135890000Y-66802000D01*
X119634000Y-82804000D02*
X135636000Y-66802000D01*
%TO.N,TXD0*%
X118872000Y-83312000D02*
X118872000Y-82550000D01*
X118872000Y-82550000D02*
X135890000Y-65532000D01*
%TO.N,TXG*%
X136245111Y-96159091D02*
X136753111Y-95651091D01*
X136753111Y-64363589D02*
X136854700Y-64262000D01*
X136753110Y-95651091D02*
X136753111Y-64363589D01*
X135128000Y-97790000D02*
X136245111Y-96672889D01*
X136245111Y-96672889D02*
X136245111Y-96159091D01*
%TO.N,RXG*%
X134620000Y-98806000D02*
X134620000Y-97282000D01*
X134620000Y-97282000D02*
X136398000Y-95504000D01*
X136398000Y-95504000D02*
X136398000Y-62992000D01*
%TD*%
%TA.AperFunction,Conductor*%
%TO.N,GND*%
G36*
X139896121Y-60218002D02*
G01*
X139942614Y-60271658D01*
X139954000Y-60324000D01*
X139954000Y-120016000D01*
X139933998Y-120084121D01*
X139880342Y-120130614D01*
X139828000Y-120142000D01*
X112140000Y-120142000D01*
X112071879Y-120121998D01*
X112025386Y-120068342D01*
X112014000Y-120016000D01*
X112014000Y-115614801D01*
X119274633Y-115614801D01*
X119274808Y-115619252D01*
X119281481Y-115789093D01*
X119285082Y-115880760D01*
X119332902Y-116142595D01*
X119334311Y-116146818D01*
X119389511Y-116312272D01*
X119417137Y-116395079D01*
X119536107Y-116633175D01*
X119687438Y-116852133D01*
X119690460Y-116855402D01*
X119810534Y-116985297D01*
X119868111Y-117047584D01*
X119871565Y-117050396D01*
X120071064Y-117212814D01*
X120071068Y-117212817D01*
X120074521Y-117215628D01*
X120078343Y-117217929D01*
X120235726Y-117312681D01*
X120302549Y-117352912D01*
X120397900Y-117393288D01*
X120543543Y-117454961D01*
X120543548Y-117454963D01*
X120547646Y-117456698D01*
X120551943Y-117457837D01*
X120551948Y-117457839D01*
X120676283Y-117490805D01*
X120804921Y-117524913D01*
X120809338Y-117525436D01*
X120809339Y-117525436D01*
X120868099Y-117532391D01*
X121069241Y-117556197D01*
X121335332Y-117549926D01*
X121339726Y-117549195D01*
X121339733Y-117549194D01*
X121593483Y-117506959D01*
X121593487Y-117506958D01*
X121597885Y-117506226D01*
X121764009Y-117453688D01*
X121847415Y-117427310D01*
X121847417Y-117427309D01*
X121851661Y-117425967D01*
X122091597Y-117310751D01*
X122095303Y-117308275D01*
X122309197Y-117165356D01*
X122309201Y-117165353D01*
X122312905Y-117162878D01*
X122316222Y-117159907D01*
X122316226Y-117159904D01*
X122507854Y-116988267D01*
X122511170Y-116985297D01*
X122682436Y-116781552D01*
X122823284Y-116555709D01*
X122930907Y-116312272D01*
X123003155Y-116056100D01*
X123026706Y-115880760D01*
X123038160Y-115795486D01*
X123038161Y-115795478D01*
X123038587Y-115792304D01*
X123042305Y-115673988D01*
X123038114Y-115614801D01*
X129434633Y-115614801D01*
X129434808Y-115619252D01*
X129441481Y-115789093D01*
X129445082Y-115880760D01*
X129492902Y-116142595D01*
X129494311Y-116146818D01*
X129549511Y-116312272D01*
X129577137Y-116395079D01*
X129696107Y-116633175D01*
X129847438Y-116852133D01*
X129850460Y-116855402D01*
X129970534Y-116985297D01*
X130028111Y-117047584D01*
X130031565Y-117050396D01*
X130231064Y-117212814D01*
X130231068Y-117212817D01*
X130234521Y-117215628D01*
X130238343Y-117217929D01*
X130395726Y-117312681D01*
X130462549Y-117352912D01*
X130557900Y-117393288D01*
X130703543Y-117454961D01*
X130703548Y-117454963D01*
X130707646Y-117456698D01*
X130711943Y-117457837D01*
X130711948Y-117457839D01*
X130836283Y-117490805D01*
X130964921Y-117524913D01*
X130969338Y-117525436D01*
X130969339Y-117525436D01*
X131028099Y-117532391D01*
X131229241Y-117556197D01*
X131495332Y-117549926D01*
X131499726Y-117549195D01*
X131499733Y-117549194D01*
X131753483Y-117506959D01*
X131753487Y-117506958D01*
X131757885Y-117506226D01*
X131924009Y-117453688D01*
X132007415Y-117427310D01*
X132007417Y-117427309D01*
X132011661Y-117425967D01*
X132251597Y-117310751D01*
X132255303Y-117308275D01*
X132469197Y-117165356D01*
X132469201Y-117165353D01*
X132472905Y-117162878D01*
X132476222Y-117159907D01*
X132476226Y-117159904D01*
X132667854Y-116988267D01*
X132671170Y-116985297D01*
X132842436Y-116781552D01*
X132983284Y-116555709D01*
X133090907Y-116312272D01*
X133163155Y-116056100D01*
X133186706Y-115880760D01*
X133198160Y-115795486D01*
X133198161Y-115795478D01*
X133198587Y-115792304D01*
X133202305Y-115673988D01*
X133183507Y-115408488D01*
X133170920Y-115350022D01*
X133128423Y-115152637D01*
X133127486Y-115148285D01*
X133108211Y-115096036D01*
X133036903Y-114902748D01*
X133035362Y-114898571D01*
X132908972Y-114664329D01*
X132750838Y-114450232D01*
X132710571Y-114409327D01*
X132567246Y-114263734D01*
X132564115Y-114260553D01*
X132352528Y-114099075D01*
X132300511Y-114069944D01*
X132124186Y-113971197D01*
X132124183Y-113971196D01*
X132120300Y-113969021D01*
X132116161Y-113967420D01*
X132116153Y-113967416D01*
X131932290Y-113896286D01*
X131872064Y-113872986D01*
X131867739Y-113871983D01*
X131867734Y-113871982D01*
X131725575Y-113839032D01*
X131612774Y-113812886D01*
X131347601Y-113789919D01*
X131343166Y-113790163D01*
X131343162Y-113790163D01*
X131086281Y-113804300D01*
X131086274Y-113804301D01*
X131081838Y-113804545D01*
X130820788Y-113856471D01*
X130816578Y-113857949D01*
X130816576Y-113857950D01*
X130670124Y-113909381D01*
X130569658Y-113944662D01*
X130565707Y-113946715D01*
X130565701Y-113946717D01*
X130337409Y-114065305D01*
X130333459Y-114067357D01*
X130329844Y-114069940D01*
X130329838Y-114069944D01*
X130193129Y-114167638D01*
X130116905Y-114222109D01*
X129924316Y-114405830D01*
X129759535Y-114614854D01*
X129625850Y-114845010D01*
X129624182Y-114849127D01*
X129624179Y-114849134D01*
X129527601Y-115087574D01*
X129525927Y-115091707D01*
X129461762Y-115350022D01*
X129434633Y-115614801D01*
X123038114Y-115614801D01*
X123023507Y-115408488D01*
X123010920Y-115350022D01*
X122968423Y-115152637D01*
X122967486Y-115148285D01*
X122948211Y-115096036D01*
X122876903Y-114902748D01*
X122875362Y-114898571D01*
X122748972Y-114664329D01*
X122590838Y-114450232D01*
X122550571Y-114409327D01*
X122407246Y-114263734D01*
X122404115Y-114260553D01*
X122192528Y-114099075D01*
X122140511Y-114069944D01*
X121964186Y-113971197D01*
X121964183Y-113971196D01*
X121960300Y-113969021D01*
X121956161Y-113967420D01*
X121956153Y-113967416D01*
X121772290Y-113896286D01*
X121712064Y-113872986D01*
X121707739Y-113871983D01*
X121707734Y-113871982D01*
X121565575Y-113839032D01*
X121452774Y-113812886D01*
X121187601Y-113789919D01*
X121183166Y-113790163D01*
X121183162Y-113790163D01*
X120926281Y-113804300D01*
X120926274Y-113804301D01*
X120921838Y-113804545D01*
X120660788Y-113856471D01*
X120656578Y-113857949D01*
X120656576Y-113857950D01*
X120510124Y-113909381D01*
X120409658Y-113944662D01*
X120405707Y-113946715D01*
X120405701Y-113946717D01*
X120177409Y-114065305D01*
X120173459Y-114067357D01*
X120169844Y-114069940D01*
X120169838Y-114069944D01*
X120033129Y-114167638D01*
X119956905Y-114222109D01*
X119764316Y-114405830D01*
X119599535Y-114614854D01*
X119465850Y-114845010D01*
X119464182Y-114849127D01*
X119464179Y-114849134D01*
X119367601Y-115087574D01*
X119365927Y-115091707D01*
X119301762Y-115350022D01*
X119274633Y-115614801D01*
X112014000Y-115614801D01*
X112014000Y-105403028D01*
X115666283Y-105403028D01*
X115683836Y-105562026D01*
X115738809Y-105712246D01*
X115743046Y-105718552D01*
X115743048Y-105718555D01*
X115773992Y-105764604D01*
X115828028Y-105845017D01*
X115946341Y-105952675D01*
X116086920Y-106029002D01*
X116241647Y-106069594D01*
X116326033Y-106070920D01*
X116393993Y-106071988D01*
X116393996Y-106071988D01*
X116401590Y-106072107D01*
X116457334Y-106059340D01*
X116550113Y-106038091D01*
X116550117Y-106038090D01*
X116557516Y-106036395D01*
X116647982Y-105990896D01*
X116693640Y-105967933D01*
X116693643Y-105967931D01*
X116700423Y-105964521D01*
X116706195Y-105959592D01*
X116706197Y-105959590D01*
X116816288Y-105865563D01*
X116816289Y-105865562D01*
X116822060Y-105860633D01*
X116887554Y-105769488D01*
X116910974Y-105736896D01*
X116910975Y-105736894D01*
X116915405Y-105730729D01*
X116950364Y-105643767D01*
X116972235Y-105589360D01*
X116972235Y-105589359D01*
X116975069Y-105582310D01*
X116997608Y-105423942D01*
X116997754Y-105410000D01*
X116996911Y-105403028D01*
X116979449Y-105258735D01*
X116978537Y-105251195D01*
X116928343Y-105118361D01*
X116924678Y-105108661D01*
X116924677Y-105108658D01*
X116921994Y-105101559D01*
X116831389Y-104969729D01*
X116784274Y-104927751D01*
X116717627Y-104868370D01*
X116717624Y-104868368D01*
X116711955Y-104863317D01*
X116697919Y-104855885D01*
X116577297Y-104792019D01*
X116577298Y-104792019D01*
X116570585Y-104788465D01*
X116563220Y-104786615D01*
X116422812Y-104751347D01*
X116422808Y-104751347D01*
X116415441Y-104749496D01*
X116407841Y-104749456D01*
X116407840Y-104749456D01*
X116342147Y-104749112D01*
X116255480Y-104748658D01*
X116248100Y-104750430D01*
X116248098Y-104750430D01*
X116107317Y-104784229D01*
X116107315Y-104784230D01*
X116099937Y-104786001D01*
X115957791Y-104859368D01*
X115952069Y-104864360D01*
X115952067Y-104864361D01*
X115885196Y-104922697D01*
X115837248Y-104964524D01*
X115745269Y-105095397D01*
X115738109Y-105113762D01*
X115695235Y-105223729D01*
X115687162Y-105244434D01*
X115686170Y-105251967D01*
X115686170Y-105251968D01*
X115673344Y-105349397D01*
X115666283Y-105403028D01*
X112014000Y-105403028D01*
X112014000Y-99359791D01*
X112034002Y-99291670D01*
X112087658Y-99245177D01*
X112157932Y-99235073D01*
X112222512Y-99264567D01*
X112229095Y-99270696D01*
X116107903Y-103149505D01*
X119957821Y-106999423D01*
X119970493Y-107015113D01*
X119973315Y-107018214D01*
X119978963Y-107026962D01*
X119987141Y-107033409D01*
X120003355Y-107046191D01*
X120007385Y-107049772D01*
X120007468Y-107049674D01*
X120011425Y-107053027D01*
X120015106Y-107056708D01*
X120019338Y-107059732D01*
X120019340Y-107059734D01*
X120029699Y-107067137D01*
X120034444Y-107070700D01*
X120063883Y-107093908D01*
X120063885Y-107093909D01*
X120072063Y-107100356D01*
X120080168Y-107103202D01*
X120087159Y-107108198D01*
X120132764Y-107121837D01*
X120133050Y-107121922D01*
X120138695Y-107123756D01*
X120176435Y-107137009D01*
X120176438Y-107137010D01*
X120183917Y-107139636D01*
X120189136Y-107140088D01*
X120191847Y-107140088D01*
X120194124Y-107140186D01*
X120194573Y-107140321D01*
X120194571Y-107140375D01*
X120194804Y-107140390D01*
X120200740Y-107142165D01*
X120251138Y-107140185D01*
X120256084Y-107140088D01*
X121927505Y-107140088D01*
X121995626Y-107160090D01*
X122042119Y-107213746D01*
X122053505Y-107266088D01*
X122053505Y-107569054D01*
X122055925Y-107581219D01*
X122064450Y-107624082D01*
X122068270Y-107643289D01*
X122075165Y-107653609D01*
X122075166Y-107653610D01*
X122084453Y-107667508D01*
X122124520Y-107727472D01*
X122208703Y-107783722D01*
X122282937Y-107798488D01*
X122289124Y-107798488D01*
X123853070Y-107798487D01*
X123853070Y-107800618D01*
X123913312Y-107812046D01*
X123964838Y-107860888D01*
X123981904Y-107924208D01*
X123981904Y-108289024D01*
X123961902Y-108357145D01*
X123914280Y-108400685D01*
X123779813Y-108470983D01*
X123624761Y-108595648D01*
X123496876Y-108748056D01*
X123401029Y-108922400D01*
X123340872Y-109112041D01*
X123318694Y-109309755D01*
X123335342Y-109508011D01*
X123390181Y-109699257D01*
X123393000Y-109704742D01*
X123478305Y-109870728D01*
X123478308Y-109870733D01*
X123481123Y-109876210D01*
X123604703Y-110032129D01*
X123609397Y-110036124D01*
X123644512Y-110066009D01*
X123756213Y-110161075D01*
X123761591Y-110164081D01*
X123761593Y-110164082D01*
X123803461Y-110187481D01*
X123929885Y-110258136D01*
X123935744Y-110260040D01*
X123935747Y-110260041D01*
X124113238Y-110317712D01*
X124119101Y-110319617D01*
X124125221Y-110320347D01*
X124125222Y-110320347D01*
X124174754Y-110326253D01*
X124316655Y-110343173D01*
X124322790Y-110342701D01*
X124322792Y-110342701D01*
X124508882Y-110328383D01*
X124508887Y-110328382D01*
X124515023Y-110327910D01*
X124520955Y-110326254D01*
X124520959Y-110326253D01*
X124610835Y-110301159D01*
X124706647Y-110274407D01*
X124884231Y-110184703D01*
X124914474Y-110161075D01*
X125036152Y-110066009D01*
X125041008Y-110062215D01*
X125171009Y-109911608D01*
X125174052Y-109906251D01*
X125174055Y-109906247D01*
X125220144Y-109825114D01*
X125269280Y-109738619D01*
X125280550Y-109704742D01*
X125330133Y-109555689D01*
X125332080Y-109549837D01*
X125357016Y-109352452D01*
X125357413Y-109323988D01*
X125356018Y-109309755D01*
X125338600Y-109132117D01*
X125337999Y-109125984D01*
X125280495Y-108935521D01*
X125187091Y-108759856D01*
X125061347Y-108605678D01*
X124908050Y-108478860D01*
X124816314Y-108429258D01*
X124760175Y-108398903D01*
X124709766Y-108348908D01*
X124694104Y-108288068D01*
X124694104Y-107611116D01*
X124714106Y-107542995D01*
X124767762Y-107496502D01*
X124838036Y-107486398D01*
X124901767Y-107515163D01*
X124957818Y-107562866D01*
X125013835Y-107610540D01*
X125026213Y-107621075D01*
X125031591Y-107624081D01*
X125031593Y-107624082D01*
X125073461Y-107647481D01*
X125199885Y-107718136D01*
X125205744Y-107720040D01*
X125205747Y-107720041D01*
X125289456Y-107747240D01*
X125389101Y-107779617D01*
X125395221Y-107780347D01*
X125395222Y-107780347D01*
X125444754Y-107786253D01*
X125586655Y-107803173D01*
X125592790Y-107802701D01*
X125592792Y-107802701D01*
X125778882Y-107788383D01*
X125778887Y-107788382D01*
X125785023Y-107787910D01*
X125790955Y-107786254D01*
X125790959Y-107786253D01*
X125880835Y-107761158D01*
X125976647Y-107734407D01*
X126154231Y-107644703D01*
X126184474Y-107621075D01*
X126306153Y-107526008D01*
X126311008Y-107522215D01*
X126311031Y-107522245D01*
X126372142Y-107490792D01*
X126442813Y-107497588D01*
X126498590Y-107541513D01*
X126521904Y-107614531D01*
X126521904Y-108289024D01*
X126501902Y-108357145D01*
X126454280Y-108400685D01*
X126319813Y-108470983D01*
X126164761Y-108595648D01*
X126036876Y-108748056D01*
X125941029Y-108922400D01*
X125880872Y-109112041D01*
X125858694Y-109309755D01*
X125875342Y-109508011D01*
X125930181Y-109699257D01*
X125933000Y-109704742D01*
X126018305Y-109870728D01*
X126018308Y-109870733D01*
X126021123Y-109876210D01*
X126144703Y-110032129D01*
X126149397Y-110036124D01*
X126184512Y-110066009D01*
X126296213Y-110161075D01*
X126301591Y-110164081D01*
X126301593Y-110164082D01*
X126343461Y-110187481D01*
X126469885Y-110258136D01*
X126475744Y-110260040D01*
X126475747Y-110260041D01*
X126653238Y-110317712D01*
X126659101Y-110319617D01*
X126665221Y-110320347D01*
X126665222Y-110320347D01*
X126714754Y-110326253D01*
X126856655Y-110343173D01*
X126862790Y-110342701D01*
X126862792Y-110342701D01*
X127048882Y-110328383D01*
X127048887Y-110328382D01*
X127055023Y-110327910D01*
X127060955Y-110326254D01*
X127060959Y-110326253D01*
X127150835Y-110301159D01*
X127246647Y-110274407D01*
X127424231Y-110184703D01*
X127454474Y-110161075D01*
X127576152Y-110066009D01*
X127581008Y-110062215D01*
X127711009Y-109911608D01*
X127714052Y-109906251D01*
X127714055Y-109906247D01*
X127760144Y-109825114D01*
X127809280Y-109738619D01*
X127820550Y-109704742D01*
X127870133Y-109555689D01*
X127872080Y-109549837D01*
X127897016Y-109352452D01*
X127897413Y-109323988D01*
X127896018Y-109309755D01*
X127878600Y-109132117D01*
X127877999Y-109125984D01*
X127820495Y-108935521D01*
X127727091Y-108759856D01*
X127601347Y-108605678D01*
X127448050Y-108478860D01*
X127356314Y-108429258D01*
X127300175Y-108398903D01*
X127249766Y-108348908D01*
X127234104Y-108288068D01*
X127234104Y-107657529D01*
X127639292Y-107657529D01*
X127644201Y-107664088D01*
X127734706Y-107714668D01*
X127745947Y-107719579D01*
X127923350Y-107777221D01*
X127935324Y-107779854D01*
X128120554Y-107801942D01*
X128132803Y-107802199D01*
X128318793Y-107787888D01*
X128330872Y-107785757D01*
X128510521Y-107735598D01*
X128521971Y-107731157D01*
X128647975Y-107667508D01*
X128658261Y-107657861D01*
X128656023Y-107651218D01*
X128160815Y-107156009D01*
X128146872Y-107148396D01*
X128145038Y-107148527D01*
X128138424Y-107152778D01*
X127646049Y-107645154D01*
X127639292Y-107657529D01*
X127234104Y-107657529D01*
X127234104Y-107390563D01*
X127254106Y-107322442D01*
X127273505Y-107300334D01*
X127272976Y-107299805D01*
X127775983Y-106796799D01*
X127782360Y-106785120D01*
X128512412Y-106785120D01*
X128512543Y-106786954D01*
X128516794Y-106793568D01*
X129009070Y-107285843D01*
X129021445Y-107292600D01*
X129028179Y-107287559D01*
X129075774Y-107203777D01*
X129080768Y-107192561D01*
X129139643Y-107015577D01*
X129142363Y-107003606D01*
X129166071Y-106815941D01*
X129166562Y-106808914D01*
X129166861Y-106787493D01*
X129166568Y-106780500D01*
X129148106Y-106592214D01*
X129145723Y-106580179D01*
X129091811Y-106401613D01*
X129087137Y-106390272D01*
X129031002Y-106284699D01*
X129021143Y-106274619D01*
X129014015Y-106277188D01*
X128520025Y-106771177D01*
X128512412Y-106785120D01*
X127782360Y-106785120D01*
X127783596Y-106782856D01*
X127783465Y-106781022D01*
X127779214Y-106774408D01*
X127273894Y-106269089D01*
X127276848Y-106266135D01*
X127249522Y-106238813D01*
X127234104Y-106178418D01*
X127234104Y-105910641D01*
X127638377Y-105910641D01*
X127640832Y-105917605D01*
X128135193Y-106411967D01*
X128149136Y-106419580D01*
X128150970Y-106419449D01*
X128157584Y-106415198D01*
X128650268Y-105922513D01*
X128657025Y-105910138D01*
X128652366Y-105903914D01*
X128548271Y-105847629D01*
X128536956Y-105842873D01*
X128358769Y-105787715D01*
X128346758Y-105785249D01*
X128161245Y-105765751D01*
X128148977Y-105765666D01*
X127963219Y-105782571D01*
X127951170Y-105784869D01*
X127772224Y-105837536D01*
X127760856Y-105842129D01*
X127648526Y-105900854D01*
X127638377Y-105910641D01*
X127234104Y-105910641D01*
X127234104Y-103053436D01*
X127236239Y-103033375D01*
X127236436Y-103029191D01*
X127238628Y-103019011D01*
X127234977Y-102988164D01*
X127234660Y-102982789D01*
X127234532Y-102982800D01*
X127234104Y-102977622D01*
X127234104Y-102972420D01*
X127231165Y-102954761D01*
X127230330Y-102948889D01*
X127225920Y-102911630D01*
X127225918Y-102911623D01*
X127224694Y-102901282D01*
X127220974Y-102893536D01*
X127219564Y-102885062D01*
X127196812Y-102842895D01*
X127194119Y-102837608D01*
X127176809Y-102801562D01*
X127176807Y-102801559D01*
X127173376Y-102794414D01*
X127170005Y-102790404D01*
X127168067Y-102788466D01*
X127166552Y-102786815D01*
X127166331Y-102786405D01*
X127166373Y-102786367D01*
X127166212Y-102786184D01*
X127163269Y-102780730D01*
X127126209Y-102746472D01*
X127122643Y-102743042D01*
X115039204Y-90659602D01*
X115005178Y-90597290D01*
X115003572Y-90588369D01*
X114999095Y-90557107D01*
X114999093Y-90557100D01*
X114997821Y-90548218D01*
X114943556Y-90428869D01*
X114857975Y-90329547D01*
X114844895Y-90321069D01*
X114755489Y-90263118D01*
X114755487Y-90263117D01*
X114747958Y-90258237D01*
X114622348Y-90220672D01*
X114613372Y-90220617D01*
X114613371Y-90220617D01*
X114558959Y-90220285D01*
X114491244Y-90219871D01*
X114365185Y-90255899D01*
X114357598Y-90260686D01*
X114357596Y-90260687D01*
X114299243Y-90297505D01*
X114254305Y-90325859D01*
X114167517Y-90424128D01*
X114111798Y-90542805D01*
X114104704Y-90588369D01*
X114093009Y-90663478D01*
X114093009Y-90663482D01*
X114091628Y-90672351D01*
X114108627Y-90802350D01*
X114161430Y-90922354D01*
X114167206Y-90929225D01*
X114208140Y-90977922D01*
X114236661Y-91042938D01*
X114225505Y-91113053D01*
X114206131Y-91142405D01*
X114175460Y-91177134D01*
X114167517Y-91186128D01*
X114111798Y-91304805D01*
X114110417Y-91313677D01*
X114093009Y-91425478D01*
X114093009Y-91425482D01*
X114091628Y-91434351D01*
X114092792Y-91443253D01*
X114092792Y-91443256D01*
X114100128Y-91499351D01*
X114108627Y-91564350D01*
X114161430Y-91684354D01*
X114245791Y-91784713D01*
X114354929Y-91857362D01*
X114480070Y-91896459D01*
X114479499Y-91898288D01*
X114539274Y-91928875D01*
X123944999Y-101334601D01*
X123979025Y-101396913D01*
X123981904Y-101423696D01*
X123981904Y-105643767D01*
X123961902Y-105711888D01*
X123908246Y-105758381D01*
X123853071Y-105767574D01*
X123853071Y-105769488D01*
X122282938Y-105769489D01*
X122247186Y-105776600D01*
X122220878Y-105781832D01*
X122220876Y-105781833D01*
X122208703Y-105784254D01*
X122198383Y-105791149D01*
X122198382Y-105791150D01*
X122137989Y-105831504D01*
X122124520Y-105840504D01*
X122068270Y-105924687D01*
X122053504Y-105998921D01*
X122053504Y-106301888D01*
X122033502Y-106370009D01*
X121979846Y-106416502D01*
X121927504Y-106427888D01*
X120445679Y-106427888D01*
X120377558Y-106407886D01*
X120356584Y-106390983D01*
X112661005Y-98695403D01*
X112626979Y-98633091D01*
X112624100Y-98606308D01*
X112624100Y-82885226D01*
X112645587Y-82814945D01*
X112651353Y-82808575D01*
X112701448Y-82705177D01*
X112704604Y-82698664D01*
X112704604Y-82698663D01*
X112708517Y-82690587D01*
X112730269Y-82561298D01*
X112730407Y-82550000D01*
X112723044Y-82498583D01*
X112713094Y-82429104D01*
X112713093Y-82429101D01*
X112711821Y-82420218D01*
X112708107Y-82412049D01*
X112661273Y-82309043D01*
X112661271Y-82309040D01*
X112657556Y-82300869D01*
X112571975Y-82201547D01*
X112521805Y-82169028D01*
X112469489Y-82135118D01*
X112469487Y-82135117D01*
X112461958Y-82130237D01*
X112336348Y-82092672D01*
X112327372Y-82092617D01*
X112327371Y-82092617D01*
X112272959Y-82092285D01*
X112205244Y-82091871D01*
X112174625Y-82100622D01*
X112103630Y-82100110D01*
X112044182Y-82061296D01*
X112015156Y-81996504D01*
X112014000Y-81979473D01*
X112014000Y-71876351D01*
X113837628Y-71876351D01*
X113854627Y-72006350D01*
X113907430Y-72126354D01*
X113913205Y-72133224D01*
X113913208Y-72133229D01*
X113914348Y-72134585D01*
X113915055Y-72136196D01*
X113917951Y-72140849D01*
X113917280Y-72141267D01*
X113942872Y-72199599D01*
X113943900Y-72215663D01*
X113943900Y-88421584D01*
X113944753Y-88426711D01*
X113944754Y-88426719D01*
X113957451Y-88503004D01*
X113956338Y-88550210D01*
X113941568Y-88618809D01*
X113941568Y-88618813D01*
X113939376Y-88628993D01*
X113953310Y-88746722D01*
X113973806Y-88789404D01*
X113997805Y-88839381D01*
X114004628Y-88853590D01*
X114007999Y-88857600D01*
X118583832Y-93433433D01*
X118596509Y-93449129D01*
X118599326Y-93452225D01*
X118604975Y-93460974D01*
X118613153Y-93467421D01*
X118629372Y-93480207D01*
X118633396Y-93483783D01*
X118633479Y-93483685D01*
X118637443Y-93487044D01*
X118641118Y-93490719D01*
X118655737Y-93501167D01*
X118660408Y-93504674D01*
X118698075Y-93534368D01*
X118706181Y-93537214D01*
X118713171Y-93542210D01*
X118746709Y-93552240D01*
X118759071Y-93555937D01*
X118764715Y-93557771D01*
X118802447Y-93571021D01*
X118802450Y-93571022D01*
X118809929Y-93573648D01*
X118815148Y-93574100D01*
X118817859Y-93574100D01*
X118820135Y-93574198D01*
X118820585Y-93574333D01*
X118820583Y-93574387D01*
X118820814Y-93574402D01*
X118826751Y-93576177D01*
X118877149Y-93574197D01*
X118882095Y-93574100D01*
X126694572Y-93574100D01*
X126714621Y-93576234D01*
X126718811Y-93576432D01*
X126728993Y-93578624D01*
X126759840Y-93574973D01*
X126765215Y-93574656D01*
X126765204Y-93574528D01*
X126770382Y-93574100D01*
X126775584Y-93574100D01*
X126786919Y-93572213D01*
X126793243Y-93571161D01*
X126799115Y-93570326D01*
X126836374Y-93565916D01*
X126836381Y-93565914D01*
X126846722Y-93564690D01*
X126854468Y-93560970D01*
X126862942Y-93559560D01*
X126902186Y-93538385D01*
X126905109Y-93536808D01*
X126910396Y-93534115D01*
X126946442Y-93516805D01*
X126946445Y-93516803D01*
X126953590Y-93513372D01*
X126957600Y-93510001D01*
X126959538Y-93508063D01*
X126961189Y-93506548D01*
X126961599Y-93506327D01*
X126961637Y-93506369D01*
X126961820Y-93506208D01*
X126967274Y-93503265D01*
X126978872Y-93490719D01*
X127001531Y-93466206D01*
X127004961Y-93462640D01*
X128231435Y-92236167D01*
X128247125Y-92223495D01*
X128250226Y-92220673D01*
X128258974Y-92215025D01*
X128278203Y-92190633D01*
X128281784Y-92186603D01*
X128281686Y-92186520D01*
X128285039Y-92182563D01*
X128288720Y-92178882D01*
X128299149Y-92164289D01*
X128302712Y-92159544D01*
X128325920Y-92130105D01*
X128325921Y-92130103D01*
X128332368Y-92121925D01*
X128335214Y-92113820D01*
X128340210Y-92106829D01*
X128353937Y-92060929D01*
X128355771Y-92055285D01*
X128369021Y-92017553D01*
X128369022Y-92017550D01*
X128371648Y-92010071D01*
X128372100Y-92004852D01*
X128372100Y-92002141D01*
X128372198Y-91999865D01*
X128372333Y-91999415D01*
X128372387Y-91999417D01*
X128372402Y-91999186D01*
X128374177Y-91993249D01*
X128372197Y-91942851D01*
X128372100Y-91937905D01*
X128372100Y-91734533D01*
X128392102Y-91666412D01*
X128445758Y-91619919D01*
X128516032Y-91609815D01*
X128580612Y-91639309D01*
X128587194Y-91645437D01*
X130375189Y-93433433D01*
X131026615Y-94084859D01*
X131060641Y-94147171D01*
X131063520Y-94173954D01*
X131063520Y-95199330D01*
X131043518Y-95267451D01*
X130989862Y-95313944D01*
X130919588Y-95324048D01*
X130855008Y-95294554D01*
X130848425Y-95288425D01*
X130048000Y-94488000D01*
X126492000Y-94488000D01*
X125222000Y-95758000D01*
X125222000Y-99314000D01*
X126492000Y-100584000D01*
X130048000Y-100584000D01*
X130848425Y-99783575D01*
X130910737Y-99749549D01*
X130981552Y-99754614D01*
X131038388Y-99797161D01*
X131063199Y-99863681D01*
X131063520Y-99872670D01*
X131063520Y-107122680D01*
X131043518Y-107190801D01*
X131026615Y-107211775D01*
X129898185Y-108340205D01*
X129835873Y-108374231D01*
X129771831Y-108371475D01*
X129670812Y-108340205D01*
X129622985Y-108325400D01*
X129616860Y-108324756D01*
X129616859Y-108324756D01*
X129431250Y-108305248D01*
X129431248Y-108305248D01*
X129425121Y-108304604D01*
X129342809Y-108312095D01*
X129233125Y-108322077D01*
X129233122Y-108322078D01*
X129226986Y-108322636D01*
X129221080Y-108324374D01*
X129221076Y-108324375D01*
X129075224Y-108367301D01*
X129036127Y-108378808D01*
X129030667Y-108381662D01*
X129030668Y-108381662D01*
X128865273Y-108468128D01*
X128865269Y-108468131D01*
X128859813Y-108470983D01*
X128704761Y-108595648D01*
X128576876Y-108748056D01*
X128481029Y-108922400D01*
X128420872Y-109112041D01*
X128398694Y-109309755D01*
X128415342Y-109508011D01*
X128470181Y-109699257D01*
X128473000Y-109704742D01*
X128558305Y-109870728D01*
X128558308Y-109870733D01*
X128561123Y-109876210D01*
X128684703Y-110032129D01*
X128689397Y-110036124D01*
X128724512Y-110066009D01*
X128836213Y-110161075D01*
X128841591Y-110164081D01*
X128841593Y-110164082D01*
X128883461Y-110187481D01*
X129009885Y-110258136D01*
X129015744Y-110260040D01*
X129015747Y-110260041D01*
X129193238Y-110317712D01*
X129199101Y-110319617D01*
X129205221Y-110320347D01*
X129205222Y-110320347D01*
X129254754Y-110326253D01*
X129396655Y-110343173D01*
X129402790Y-110342701D01*
X129402792Y-110342701D01*
X129588882Y-110328383D01*
X129588887Y-110328382D01*
X129595023Y-110327910D01*
X129600955Y-110326254D01*
X129600959Y-110326253D01*
X129690835Y-110301159D01*
X129786647Y-110274407D01*
X129964231Y-110184703D01*
X129994474Y-110161075D01*
X130116152Y-110066009D01*
X130121008Y-110062215D01*
X130251009Y-109911608D01*
X130254052Y-109906251D01*
X130254055Y-109906247D01*
X130300144Y-109825114D01*
X130349280Y-109738619D01*
X130360550Y-109704742D01*
X130410133Y-109555689D01*
X130412080Y-109549837D01*
X130437016Y-109352452D01*
X130437413Y-109323988D01*
X130436018Y-109309755D01*
X130418600Y-109132117D01*
X130417999Y-109125984D01*
X130370597Y-108968980D01*
X130370056Y-108897988D01*
X130402124Y-108843469D01*
X131635053Y-107610540D01*
X131650749Y-107597863D01*
X131653845Y-107595046D01*
X131662594Y-107589397D01*
X131681827Y-107565000D01*
X131685403Y-107560976D01*
X131685305Y-107560893D01*
X131688664Y-107556929D01*
X131692339Y-107553254D01*
X131702787Y-107538635D01*
X131706294Y-107533964D01*
X131735988Y-107496297D01*
X131738834Y-107488191D01*
X131743830Y-107481201D01*
X131757557Y-107435301D01*
X131759391Y-107429657D01*
X131772641Y-107391925D01*
X131772642Y-107391922D01*
X131775268Y-107384443D01*
X131775720Y-107379224D01*
X131775720Y-107376513D01*
X131775818Y-107374237D01*
X131775953Y-107373787D01*
X131776007Y-107373789D01*
X131776022Y-107373558D01*
X131777797Y-107367621D01*
X131775817Y-107317223D01*
X131775720Y-107312277D01*
X131775720Y-105657028D01*
X135478283Y-105657028D01*
X135495836Y-105816026D01*
X135550809Y-105966246D01*
X135555046Y-105972552D01*
X135555048Y-105972555D01*
X135558492Y-105977680D01*
X135640028Y-106099017D01*
X135758341Y-106206675D01*
X135765018Y-106210300D01*
X135765019Y-106210301D01*
X135786443Y-106221933D01*
X135898920Y-106283002D01*
X136053647Y-106323594D01*
X136138033Y-106324920D01*
X136205993Y-106325988D01*
X136205996Y-106325988D01*
X136213590Y-106326107D01*
X136269334Y-106313340D01*
X136362113Y-106292091D01*
X136362117Y-106292090D01*
X136369516Y-106290395D01*
X136440617Y-106254635D01*
X136505640Y-106221933D01*
X136505643Y-106221931D01*
X136512423Y-106218521D01*
X136518195Y-106213592D01*
X136518197Y-106213590D01*
X136628288Y-106119563D01*
X136628289Y-106119562D01*
X136634060Y-106114633D01*
X136689061Y-106038091D01*
X136722974Y-105990896D01*
X136722975Y-105990894D01*
X136727405Y-105984729D01*
X136747023Y-105935929D01*
X136784235Y-105843360D01*
X136784235Y-105843359D01*
X136787069Y-105836310D01*
X136809608Y-105677942D01*
X136809754Y-105664000D01*
X136808911Y-105657028D01*
X136797414Y-105562026D01*
X136790537Y-105505195D01*
X136758276Y-105419818D01*
X136736678Y-105362661D01*
X136736677Y-105362658D01*
X136733994Y-105355559D01*
X136643389Y-105223729D01*
X136596274Y-105181751D01*
X136529627Y-105122370D01*
X136529624Y-105122368D01*
X136523955Y-105117317D01*
X136509919Y-105109885D01*
X136389297Y-105046019D01*
X136389298Y-105046019D01*
X136382585Y-105042465D01*
X136375220Y-105040615D01*
X136234812Y-105005347D01*
X136234808Y-105005347D01*
X136227441Y-105003496D01*
X136219841Y-105003456D01*
X136219840Y-105003456D01*
X136154147Y-105003112D01*
X136067480Y-105002658D01*
X136060100Y-105004430D01*
X136060098Y-105004430D01*
X135919317Y-105038229D01*
X135919315Y-105038230D01*
X135911937Y-105040001D01*
X135824990Y-105084878D01*
X135778911Y-105108661D01*
X135769791Y-105113368D01*
X135764069Y-105118360D01*
X135764067Y-105118361D01*
X135697196Y-105176697D01*
X135649248Y-105218524D01*
X135557269Y-105349397D01*
X135499162Y-105498434D01*
X135498170Y-105505967D01*
X135498170Y-105505968D01*
X135480029Y-105643767D01*
X135478283Y-105657028D01*
X131775720Y-105657028D01*
X131775720Y-94025689D01*
X131777854Y-94005640D01*
X131778052Y-94001450D01*
X131780244Y-93991268D01*
X131776593Y-93960422D01*
X131776276Y-93955045D01*
X131776148Y-93955056D01*
X131775720Y-93949878D01*
X131775720Y-93944678D01*
X131774866Y-93939546D01*
X131772778Y-93927001D01*
X131771941Y-93921123D01*
X131767533Y-93883882D01*
X131766309Y-93873539D01*
X131762591Y-93865796D01*
X131761180Y-93857320D01*
X131755698Y-93847159D01*
X131738426Y-93815148D01*
X131735733Y-93809862D01*
X131718425Y-93773820D01*
X131718423Y-93773817D01*
X131714992Y-93766672D01*
X131711621Y-93762662D01*
X131709683Y-93760724D01*
X131708168Y-93759073D01*
X131707947Y-93758663D01*
X131707989Y-93758625D01*
X131707828Y-93758442D01*
X131704885Y-93752988D01*
X131667825Y-93718730D01*
X131664260Y-93715301D01*
X128957904Y-91008944D01*
X128923878Y-90946632D01*
X128922272Y-90937711D01*
X128917795Y-90906449D01*
X128917793Y-90906442D01*
X128916521Y-90897560D01*
X128876969Y-90810570D01*
X128865971Y-90786381D01*
X128865970Y-90786379D01*
X128862256Y-90778211D01*
X128856398Y-90771413D01*
X128851561Y-90763849D01*
X128853736Y-90762458D01*
X128830034Y-90710176D01*
X128828800Y-90692587D01*
X128828801Y-86106133D01*
X128830936Y-86086072D01*
X128831133Y-86081888D01*
X128833325Y-86071708D01*
X128829674Y-86040861D01*
X128829357Y-86035486D01*
X128829229Y-86035497D01*
X128828801Y-86030319D01*
X128828801Y-86025117D01*
X128825862Y-86007458D01*
X128825027Y-86001586D01*
X128820617Y-85964327D01*
X128820615Y-85964320D01*
X128819391Y-85953979D01*
X128815671Y-85946233D01*
X128814261Y-85937759D01*
X128791509Y-85895592D01*
X128788816Y-85890305D01*
X128771503Y-85854254D01*
X128768073Y-85847111D01*
X128764703Y-85843101D01*
X128762780Y-85841178D01*
X128761246Y-85839505D01*
X128761025Y-85839096D01*
X128761066Y-85839059D01*
X128760909Y-85838881D01*
X128757966Y-85833427D01*
X128750318Y-85826357D01*
X128744289Y-85818585D01*
X128719120Y-85759219D01*
X128715094Y-85731105D01*
X128715094Y-85731103D01*
X128713821Y-85722218D01*
X128659556Y-85602869D01*
X128573975Y-85503547D01*
X128519673Y-85468350D01*
X128471489Y-85437118D01*
X128471487Y-85437117D01*
X128463958Y-85432237D01*
X128338348Y-85394672D01*
X128329372Y-85394617D01*
X128329371Y-85394617D01*
X128274959Y-85394285D01*
X128207244Y-85393871D01*
X128081185Y-85429899D01*
X128073598Y-85434686D01*
X128073596Y-85434687D01*
X128034357Y-85459445D01*
X127970305Y-85499859D01*
X127883517Y-85598128D01*
X127827798Y-85716805D01*
X127826417Y-85725677D01*
X127809009Y-85837478D01*
X127809009Y-85837482D01*
X127807628Y-85846351D01*
X127808792Y-85855253D01*
X127808792Y-85855256D01*
X127813725Y-85892979D01*
X127824627Y-85976350D01*
X127877430Y-86096354D01*
X127961791Y-86196713D01*
X128060421Y-86262367D01*
X128106043Y-86316765D01*
X128116601Y-86367254D01*
X128116601Y-86538097D01*
X128096599Y-86606218D01*
X128042943Y-86652711D01*
X127989832Y-86664095D01*
X127953244Y-86663871D01*
X127827185Y-86699899D01*
X127716305Y-86769859D01*
X127629517Y-86868128D01*
X127573798Y-86986805D01*
X127572417Y-86995677D01*
X127555009Y-87107478D01*
X127555009Y-87107482D01*
X127553628Y-87116351D01*
X127570627Y-87246350D01*
X127623430Y-87366354D01*
X127629205Y-87373224D01*
X127629208Y-87373229D01*
X127630348Y-87374585D01*
X127631055Y-87376196D01*
X127633951Y-87380849D01*
X127633280Y-87381267D01*
X127658872Y-87439599D01*
X127659900Y-87455663D01*
X127659900Y-87851083D01*
X127639898Y-87919204D01*
X127586242Y-87965697D01*
X127515968Y-87975801D01*
X127497799Y-87971800D01*
X127382253Y-87937245D01*
X127382250Y-87937245D01*
X127373648Y-87934672D01*
X127364672Y-87934617D01*
X127364671Y-87934617D01*
X127310259Y-87934285D01*
X127242544Y-87933871D01*
X127116485Y-87969899D01*
X127108898Y-87974686D01*
X127108896Y-87974687D01*
X127050543Y-88011505D01*
X127005605Y-88039859D01*
X126918817Y-88138128D01*
X126863098Y-88256805D01*
X126861717Y-88265677D01*
X126844309Y-88377478D01*
X126844309Y-88377482D01*
X126842928Y-88386351D01*
X126844092Y-88395253D01*
X126844092Y-88395256D01*
X126851427Y-88451350D01*
X126859927Y-88516350D01*
X126912730Y-88636354D01*
X126997091Y-88736713D01*
X127004559Y-88741684D01*
X127008773Y-88745452D01*
X127046223Y-88805768D01*
X127050789Y-88839381D01*
X127050789Y-91341419D01*
X127030787Y-91409540D01*
X127013884Y-91430514D01*
X126381403Y-92062995D01*
X126319091Y-92097021D01*
X126292308Y-92099900D01*
X119071691Y-92099900D01*
X119003570Y-92079898D01*
X118982596Y-92062995D01*
X116575953Y-89656351D01*
X118409628Y-89656351D01*
X118426627Y-89786350D01*
X118479430Y-89906354D01*
X118563791Y-90006713D01*
X118571262Y-90011686D01*
X118571263Y-90011687D01*
X118587470Y-90022475D01*
X118672929Y-90079362D01*
X118762372Y-90107306D01*
X118789501Y-90115782D01*
X118789502Y-90115782D01*
X118798070Y-90118459D01*
X118862505Y-90119640D01*
X118920178Y-90120697D01*
X118920181Y-90120697D01*
X118929154Y-90120861D01*
X118970547Y-90109576D01*
X119046982Y-90088738D01*
X119046985Y-90088737D01*
X119055644Y-90086376D01*
X119067068Y-90079362D01*
X119159719Y-90022475D01*
X119159722Y-90022472D01*
X119167371Y-90017776D01*
X119255353Y-89920575D01*
X119266225Y-89898136D01*
X119308604Y-89810664D01*
X119308604Y-89810663D01*
X119312517Y-89802587D01*
X119321513Y-89749118D01*
X119356672Y-89680929D01*
X119849433Y-89188168D01*
X119865129Y-89175491D01*
X119868225Y-89172674D01*
X119876974Y-89167025D01*
X119896207Y-89142628D01*
X119899785Y-89138601D01*
X119899687Y-89138518D01*
X119903042Y-89134559D01*
X119906720Y-89130881D01*
X119909739Y-89126657D01*
X119909747Y-89126647D01*
X119917136Y-89116306D01*
X119920701Y-89111557D01*
X119943919Y-89082105D01*
X119950368Y-89073925D01*
X119953214Y-89065820D01*
X119958210Y-89058829D01*
X119971934Y-89012938D01*
X119973768Y-89007293D01*
X119987021Y-88969553D01*
X119987022Y-88969550D01*
X119989648Y-88962071D01*
X119990100Y-88956852D01*
X119990100Y-88954141D01*
X119990198Y-88951864D01*
X119990333Y-88951415D01*
X119990387Y-88951417D01*
X119990402Y-88951184D01*
X119992177Y-88945248D01*
X119990197Y-88894850D01*
X119990100Y-88889904D01*
X119990100Y-83305028D01*
X126334283Y-83305028D01*
X126351836Y-83464026D01*
X126406809Y-83614246D01*
X126411046Y-83620552D01*
X126411048Y-83620555D01*
X126414492Y-83625680D01*
X126496028Y-83747017D01*
X126614341Y-83854675D01*
X126754920Y-83931002D01*
X126909647Y-83971594D01*
X126994033Y-83972920D01*
X127061993Y-83973988D01*
X127061996Y-83973988D01*
X127069590Y-83974107D01*
X127125334Y-83961340D01*
X127218113Y-83940091D01*
X127218117Y-83940090D01*
X127225516Y-83938395D01*
X127296617Y-83902635D01*
X127361640Y-83869933D01*
X127361643Y-83869931D01*
X127368423Y-83866521D01*
X127374195Y-83861592D01*
X127374197Y-83861590D01*
X127484288Y-83767563D01*
X127484289Y-83767562D01*
X127490060Y-83762633D01*
X127535672Y-83699157D01*
X127578974Y-83638896D01*
X127578975Y-83638894D01*
X127583405Y-83632729D01*
X127611346Y-83563225D01*
X127640235Y-83491360D01*
X127640235Y-83491359D01*
X127643069Y-83484310D01*
X127665608Y-83325942D01*
X127665754Y-83312000D01*
X127665071Y-83306351D01*
X127656361Y-83234375D01*
X127646537Y-83153195D01*
X127613685Y-83066254D01*
X127592678Y-83010661D01*
X127592677Y-83010658D01*
X127589994Y-83003559D01*
X127499389Y-82871729D01*
X127428507Y-82808575D01*
X127385627Y-82770370D01*
X127385624Y-82770368D01*
X127379955Y-82765317D01*
X127365919Y-82757885D01*
X127253643Y-82698438D01*
X127238585Y-82690465D01*
X127231220Y-82688615D01*
X127090812Y-82653347D01*
X127090808Y-82653347D01*
X127083441Y-82651496D01*
X127075841Y-82651456D01*
X127075840Y-82651456D01*
X127010147Y-82651112D01*
X126923480Y-82650658D01*
X126916100Y-82652430D01*
X126916098Y-82652430D01*
X126775317Y-82686229D01*
X126775315Y-82686230D01*
X126767937Y-82688001D01*
X126680990Y-82732878D01*
X126634725Y-82756757D01*
X126625791Y-82761368D01*
X126620069Y-82766360D01*
X126620067Y-82766361D01*
X126557425Y-82821007D01*
X126505248Y-82866524D01*
X126466256Y-82922004D01*
X126427949Y-82976510D01*
X126413269Y-82997397D01*
X126355162Y-83146434D01*
X126354170Y-83153967D01*
X126354170Y-83153968D01*
X126349996Y-83185677D01*
X126334283Y-83305028D01*
X119990100Y-83305028D01*
X119990100Y-83003691D01*
X120010102Y-82935570D01*
X120027005Y-82914596D01*
X135660880Y-67280721D01*
X135723192Y-67246695D01*
X135787548Y-67249549D01*
X135807498Y-67255782D01*
X135807506Y-67255783D01*
X135816070Y-67258459D01*
X135874359Y-67259527D01*
X135918209Y-67260331D01*
X135985952Y-67281578D01*
X136031454Y-67336077D01*
X136041900Y-67386310D01*
X136041900Y-95304309D01*
X136021898Y-95372430D01*
X136004995Y-95393404D01*
X134970851Y-96427548D01*
X134908539Y-96461574D01*
X134837724Y-96456509D01*
X134780888Y-96413962D01*
X134759432Y-96368589D01*
X134758537Y-96361195D01*
X134737904Y-96306592D01*
X134704678Y-96218661D01*
X134704677Y-96218658D01*
X134701994Y-96211559D01*
X134611389Y-96079729D01*
X134564274Y-96037751D01*
X134497627Y-95978370D01*
X134497624Y-95978368D01*
X134491955Y-95973317D01*
X134350585Y-95898465D01*
X134343220Y-95896615D01*
X134202812Y-95861347D01*
X134202808Y-95861347D01*
X134195441Y-95859496D01*
X134187841Y-95859456D01*
X134187840Y-95859456D01*
X134122147Y-95859112D01*
X134035480Y-95858658D01*
X134028100Y-95860430D01*
X134028098Y-95860430D01*
X133955994Y-95877741D01*
X133879937Y-95896001D01*
X133875860Y-95898105D01*
X133806320Y-95903013D01*
X133744039Y-95868930D01*
X133710072Y-95806586D01*
X133716311Y-95732923D01*
X133739069Y-95676310D01*
X133761608Y-95517942D01*
X133761754Y-95504000D01*
X133760911Y-95497028D01*
X133748371Y-95393404D01*
X133742537Y-95345195D01*
X133685994Y-95195559D01*
X133595389Y-95063729D01*
X133548274Y-95021751D01*
X133481627Y-94962370D01*
X133481624Y-94962368D01*
X133475955Y-94957317D01*
X133461919Y-94949885D01*
X133341297Y-94886019D01*
X133341298Y-94886019D01*
X133334585Y-94882465D01*
X133327220Y-94880615D01*
X133186812Y-94845347D01*
X133186808Y-94845347D01*
X133179441Y-94843496D01*
X133171841Y-94843456D01*
X133171840Y-94843456D01*
X133106147Y-94843112D01*
X133019480Y-94842658D01*
X133012100Y-94844430D01*
X133012098Y-94844430D01*
X132871317Y-94878229D01*
X132871315Y-94878230D01*
X132863937Y-94880001D01*
X132721791Y-94953368D01*
X132716069Y-94958360D01*
X132716067Y-94958361D01*
X132649196Y-95016697D01*
X132601248Y-95058524D01*
X132509269Y-95189397D01*
X132451162Y-95338434D01*
X132430283Y-95497028D01*
X132447836Y-95656026D01*
X132502809Y-95806246D01*
X132507046Y-95812552D01*
X132507048Y-95812555D01*
X132540706Y-95862642D01*
X132592028Y-95939017D01*
X132710341Y-96046675D01*
X132717018Y-96050300D01*
X132717019Y-96050301D01*
X132771220Y-96079729D01*
X132850920Y-96123002D01*
X133005647Y-96163594D01*
X133090033Y-96164920D01*
X133157993Y-96165988D01*
X133157996Y-96165988D01*
X133165590Y-96166107D01*
X133321516Y-96130395D01*
X133328299Y-96126983D01*
X133332256Y-96125559D01*
X133403125Y-96121302D01*
X133465044Y-96156036D01*
X133498356Y-96218733D01*
X133492331Y-96289879D01*
X133467162Y-96354434D01*
X133466170Y-96361967D01*
X133466170Y-96361968D01*
X133453724Y-96456509D01*
X133446283Y-96513028D01*
X133463836Y-96672026D01*
X133518809Y-96822246D01*
X133523046Y-96828552D01*
X133523048Y-96828555D01*
X133540815Y-96854994D01*
X133608028Y-96955017D01*
X133726341Y-97062675D01*
X133866920Y-97139002D01*
X134021647Y-97179594D01*
X134089636Y-97180662D01*
X134139880Y-97181452D01*
X134207678Y-97202522D01*
X134253322Y-97256901D01*
X134263900Y-97307436D01*
X134263900Y-98470510D01*
X134243212Y-98539687D01*
X134239460Y-98545399D01*
X134233517Y-98552128D01*
X134177798Y-98670805D01*
X134176417Y-98679677D01*
X134159009Y-98791478D01*
X134159009Y-98791482D01*
X134157628Y-98800351D01*
X134158792Y-98809253D01*
X134158792Y-98809256D01*
X134159844Y-98817298D01*
X134174627Y-98930350D01*
X134227430Y-99050354D01*
X134311791Y-99150713D01*
X134319262Y-99155686D01*
X134319263Y-99155687D01*
X134343341Y-99171715D01*
X134420929Y-99223362D01*
X134518510Y-99253849D01*
X134577566Y-99293254D01*
X134605943Y-99358333D01*
X134594631Y-99428422D01*
X134584023Y-99446563D01*
X134541269Y-99507397D01*
X134483162Y-99656434D01*
X134482170Y-99663967D01*
X134482170Y-99663968D01*
X134466424Y-99783575D01*
X134462283Y-99815028D01*
X134479836Y-99974026D01*
X134534809Y-100124246D01*
X134539046Y-100130552D01*
X134539048Y-100130555D01*
X134542492Y-100135680D01*
X134624028Y-100257017D01*
X134742341Y-100364675D01*
X134882920Y-100441002D01*
X135037647Y-100481594D01*
X135122033Y-100482920D01*
X135189993Y-100483988D01*
X135189996Y-100483988D01*
X135197590Y-100484107D01*
X135253334Y-100471340D01*
X135346113Y-100450091D01*
X135346117Y-100450090D01*
X135353516Y-100448395D01*
X135424617Y-100412635D01*
X135489640Y-100379933D01*
X135489643Y-100379931D01*
X135496423Y-100376521D01*
X135502195Y-100371592D01*
X135502197Y-100371590D01*
X135612288Y-100277563D01*
X135612289Y-100277562D01*
X135618060Y-100272633D01*
X135711405Y-100142729D01*
X135771069Y-99994310D01*
X135793608Y-99835942D01*
X135793754Y-99822000D01*
X135792911Y-99815028D01*
X135775449Y-99670735D01*
X135774537Y-99663195D01*
X135717994Y-99513559D01*
X135627389Y-99381729D01*
X135531040Y-99295885D01*
X135513627Y-99280370D01*
X135513624Y-99280368D01*
X135507955Y-99275317D01*
X135366585Y-99200465D01*
X135359220Y-99198615D01*
X135218812Y-99163347D01*
X135218808Y-99163347D01*
X135211441Y-99161496D01*
X135203841Y-99161456D01*
X135203840Y-99161456D01*
X135156928Y-99161210D01*
X135088913Y-99140851D01*
X135042702Y-99086952D01*
X135032967Y-99016626D01*
X135044196Y-98980274D01*
X135056604Y-98954664D01*
X135056604Y-98954663D01*
X135060517Y-98946587D01*
X135082269Y-98817298D01*
X135082407Y-98806000D01*
X135077286Y-98770245D01*
X135065094Y-98685104D01*
X135065093Y-98685101D01*
X135063821Y-98676218D01*
X135044212Y-98633091D01*
X135013271Y-98565039D01*
X135013270Y-98565037D01*
X135009556Y-98556869D01*
X135003698Y-98550071D01*
X134998861Y-98542507D01*
X135001036Y-98541116D01*
X134977334Y-98488834D01*
X134976100Y-98471245D01*
X134976100Y-98373360D01*
X134996102Y-98305239D01*
X135049758Y-98258746D01*
X135104407Y-98247381D01*
X135185154Y-98248861D01*
X135226547Y-98237576D01*
X135302982Y-98216738D01*
X135302985Y-98216737D01*
X135311644Y-98214376D01*
X135319296Y-98209678D01*
X135415719Y-98150475D01*
X135415722Y-98150472D01*
X135423371Y-98145776D01*
X135511353Y-98048575D01*
X135568517Y-97930587D01*
X135577513Y-97877118D01*
X135612672Y-97808929D01*
X136460544Y-96961057D01*
X136476240Y-96948380D01*
X136479336Y-96945563D01*
X136488085Y-96939914D01*
X136507318Y-96915517D01*
X136510896Y-96911490D01*
X136510798Y-96911407D01*
X136514153Y-96907448D01*
X136517831Y-96903770D01*
X136520850Y-96899546D01*
X136520858Y-96899536D01*
X136528247Y-96889195D01*
X136531812Y-96884446D01*
X136555030Y-96854994D01*
X136561479Y-96846814D01*
X136564325Y-96838709D01*
X136569321Y-96831718D01*
X136583045Y-96785827D01*
X136584879Y-96780182D01*
X136598132Y-96742442D01*
X136598133Y-96742439D01*
X136600759Y-96734960D01*
X136601211Y-96729741D01*
X136601211Y-96727030D01*
X136601309Y-96724753D01*
X136601444Y-96724304D01*
X136601498Y-96724306D01*
X136601513Y-96724073D01*
X136603288Y-96718137D01*
X136601308Y-96667739D01*
X136601211Y-96662793D01*
X136601211Y-96358782D01*
X136621213Y-96290661D01*
X136638116Y-96269687D01*
X136968545Y-95939258D01*
X136984235Y-95926586D01*
X136987336Y-95923764D01*
X136996084Y-95918116D01*
X137015313Y-95893724D01*
X137018894Y-95889694D01*
X137018796Y-95889611D01*
X137022149Y-95885654D01*
X137025830Y-95881973D01*
X137036253Y-95867388D01*
X137039816Y-95862642D01*
X137063027Y-95833199D01*
X137069478Y-95825016D01*
X137072323Y-95816913D01*
X137077321Y-95809920D01*
X137091055Y-95763997D01*
X137092888Y-95758358D01*
X137106130Y-95720647D01*
X137106131Y-95720644D01*
X137108758Y-95713162D01*
X137109210Y-95707943D01*
X137109210Y-95705232D01*
X137109308Y-95702960D01*
X137109444Y-95702506D01*
X137109497Y-95702508D01*
X137109511Y-95702280D01*
X137111288Y-95696340D01*
X137109307Y-95645917D01*
X137109210Y-95640971D01*
X137109211Y-67444866D01*
X137129213Y-67376745D01*
X137182869Y-67330252D01*
X137253143Y-67320148D01*
X137317723Y-67349642D01*
X137339791Y-67374589D01*
X137418028Y-67491017D01*
X137536341Y-67598675D01*
X137543018Y-67602300D01*
X137543019Y-67602301D01*
X137597220Y-67631729D01*
X137676920Y-67675002D01*
X137831647Y-67715594D01*
X137916033Y-67716920D01*
X137983993Y-67717988D01*
X137983996Y-67717988D01*
X137991590Y-67718107D01*
X138047334Y-67705340D01*
X138140113Y-67684091D01*
X138140117Y-67684090D01*
X138147516Y-67682395D01*
X138218617Y-67646635D01*
X138283640Y-67613933D01*
X138283643Y-67613931D01*
X138290423Y-67610521D01*
X138296195Y-67605592D01*
X138296197Y-67605590D01*
X138406288Y-67511563D01*
X138406289Y-67511562D01*
X138412060Y-67506633D01*
X138456444Y-67444866D01*
X138500974Y-67382896D01*
X138500975Y-67382894D01*
X138505405Y-67376729D01*
X138528151Y-67320148D01*
X138562235Y-67235360D01*
X138562235Y-67235359D01*
X138565069Y-67228310D01*
X138587608Y-67069942D01*
X138587754Y-67056000D01*
X138586911Y-67049028D01*
X138569449Y-66904735D01*
X138568537Y-66897195D01*
X138511994Y-66747559D01*
X138421389Y-66615729D01*
X138374274Y-66573751D01*
X138307627Y-66514370D01*
X138307624Y-66514368D01*
X138301955Y-66509317D01*
X138287919Y-66501885D01*
X138167297Y-66438019D01*
X138167298Y-66438019D01*
X138160585Y-66434465D01*
X138153220Y-66432615D01*
X138012812Y-66397347D01*
X138012808Y-66397347D01*
X138005441Y-66395496D01*
X137997841Y-66395456D01*
X137997840Y-66395456D01*
X137932147Y-66395112D01*
X137845480Y-66394658D01*
X137838100Y-66396430D01*
X137838098Y-66396430D01*
X137697317Y-66430229D01*
X137697315Y-66430230D01*
X137689937Y-66432001D01*
X137547791Y-66505368D01*
X137542069Y-66510360D01*
X137542067Y-66510361D01*
X137490232Y-66555580D01*
X137427248Y-66610524D01*
X137367808Y-66695099D01*
X137338298Y-66737087D01*
X137282763Y-66781318D01*
X137212131Y-66788504D01*
X137148827Y-66756363D01*
X137112949Y-66695099D01*
X137109211Y-66664636D01*
X137109211Y-64709201D01*
X137129213Y-64641080D01*
X137149567Y-64618085D01*
X137150071Y-64617776D01*
X137238053Y-64520575D01*
X137268064Y-64458633D01*
X137291304Y-64410664D01*
X137291304Y-64410663D01*
X137295217Y-64402587D01*
X137316969Y-64273298D01*
X137317107Y-64262000D01*
X137304331Y-64172789D01*
X137299794Y-64141104D01*
X137299793Y-64141101D01*
X137298521Y-64132218D01*
X137250238Y-64026025D01*
X137247973Y-64021043D01*
X137247971Y-64021040D01*
X137244256Y-64012869D01*
X137158675Y-63913547D01*
X137059393Y-63849195D01*
X137056189Y-63847118D01*
X137056187Y-63847117D01*
X137048658Y-63842237D01*
X136923048Y-63804672D01*
X136914072Y-63804617D01*
X136914071Y-63804617D01*
X136893177Y-63804490D01*
X136879330Y-63804405D01*
X136811333Y-63783987D01*
X136765169Y-63730048D01*
X136754100Y-63678407D01*
X136754100Y-63327226D01*
X136775587Y-63256945D01*
X136781353Y-63250575D01*
X136838517Y-63132587D01*
X136860269Y-63003298D01*
X136860407Y-62992000D01*
X136841821Y-62862218D01*
X136787556Y-62742869D01*
X136701975Y-62643547D01*
X136688895Y-62635069D01*
X136599489Y-62577118D01*
X136599487Y-62577117D01*
X136591958Y-62572237D01*
X136466348Y-62534672D01*
X136457372Y-62534617D01*
X136457371Y-62534617D01*
X136402959Y-62534285D01*
X136335244Y-62533871D01*
X136209185Y-62569899D01*
X136201598Y-62574686D01*
X136201596Y-62574687D01*
X136143243Y-62611505D01*
X136098305Y-62639859D01*
X136011517Y-62738128D01*
X135955798Y-62856805D01*
X135954417Y-62865677D01*
X135937009Y-62977478D01*
X135937009Y-62977482D01*
X135935628Y-62986351D01*
X135936792Y-62995253D01*
X135936792Y-62995256D01*
X135937844Y-63003298D01*
X135952627Y-63116350D01*
X136005430Y-63236354D01*
X136011205Y-63243224D01*
X136011208Y-63243229D01*
X136012348Y-63244585D01*
X136013055Y-63246196D01*
X136015951Y-63250849D01*
X136015280Y-63251267D01*
X136040872Y-63309599D01*
X136041900Y-63325663D01*
X136041900Y-64948410D01*
X136021898Y-65016531D01*
X135968242Y-65063024D01*
X135915130Y-65074408D01*
X135827244Y-65073871D01*
X135701185Y-65109899D01*
X135590305Y-65179859D01*
X135503517Y-65278128D01*
X135447798Y-65396805D01*
X135446418Y-65405671D01*
X135440515Y-65443579D01*
X135410270Y-65507811D01*
X135405110Y-65513288D01*
X118656565Y-82261833D01*
X118640875Y-82274505D01*
X118637774Y-82277327D01*
X118629026Y-82282975D01*
X118622579Y-82291153D01*
X118609797Y-82307367D01*
X118606216Y-82311397D01*
X118606314Y-82311480D01*
X118602961Y-82315437D01*
X118599280Y-82319118D01*
X118596256Y-82323350D01*
X118596254Y-82323352D01*
X118588851Y-82333711D01*
X118585288Y-82338456D01*
X118562080Y-82367895D01*
X118562079Y-82367897D01*
X118555632Y-82376075D01*
X118552786Y-82384180D01*
X118547790Y-82391171D01*
X118544806Y-82401150D01*
X118534066Y-82437062D01*
X118532232Y-82442707D01*
X118518979Y-82480447D01*
X118516352Y-82487929D01*
X118515900Y-82493148D01*
X118515900Y-82495859D01*
X118515802Y-82498136D01*
X118515667Y-82498585D01*
X118515613Y-82498583D01*
X118515598Y-82498816D01*
X118513823Y-82504752D01*
X118514232Y-82515156D01*
X118515803Y-82555150D01*
X118515900Y-82560096D01*
X118515900Y-82976510D01*
X118495212Y-83045687D01*
X118491460Y-83051399D01*
X118485517Y-83058128D01*
X118429798Y-83176805D01*
X118428417Y-83185677D01*
X118411009Y-83297478D01*
X118411009Y-83297482D01*
X118409628Y-83306351D01*
X118410792Y-83315253D01*
X118410792Y-83315256D01*
X118418127Y-83371350D01*
X118426627Y-83436350D01*
X118479430Y-83556354D01*
X118563791Y-83656713D01*
X118571262Y-83661686D01*
X118571263Y-83661687D01*
X118595341Y-83677715D01*
X118672929Y-83729362D01*
X118759693Y-83756469D01*
X118789501Y-83765782D01*
X118789502Y-83765782D01*
X118798070Y-83768459D01*
X118862505Y-83769640D01*
X118920178Y-83770697D01*
X118920181Y-83770697D01*
X118929154Y-83770861D01*
X118970547Y-83759576D01*
X119046982Y-83738738D01*
X119046985Y-83738737D01*
X119055644Y-83736376D01*
X119085973Y-83717754D01*
X119154490Y-83699157D01*
X119222185Y-83720555D01*
X119267565Y-83775155D01*
X119277900Y-83825130D01*
X119277900Y-88700308D01*
X119257898Y-88768429D01*
X119240995Y-88789404D01*
X118856526Y-89173872D01*
X118802056Y-89205925D01*
X118730802Y-89226290D01*
X118683185Y-89239899D01*
X118572305Y-89309859D01*
X118485517Y-89408128D01*
X118429798Y-89526805D01*
X118428417Y-89535677D01*
X118411009Y-89647478D01*
X118411009Y-89647482D01*
X118409628Y-89656351D01*
X116575953Y-89656351D01*
X115201005Y-88281403D01*
X115166979Y-88219091D01*
X115164100Y-88192308D01*
X115164100Y-81935891D01*
X115184102Y-81867770D01*
X115237758Y-81821277D01*
X115308032Y-81811173D01*
X115372612Y-81840667D01*
X115379195Y-81846796D01*
X116446995Y-82914596D01*
X116481021Y-82976908D01*
X116483900Y-83003691D01*
X116483900Y-85008510D01*
X116463212Y-85077687D01*
X116459460Y-85083399D01*
X116453517Y-85090128D01*
X116397798Y-85208805D01*
X116396417Y-85217677D01*
X116379009Y-85329478D01*
X116379009Y-85329482D01*
X116377628Y-85338351D01*
X116378792Y-85347253D01*
X116378792Y-85347256D01*
X116385329Y-85397245D01*
X116394627Y-85468350D01*
X116447430Y-85588354D01*
X116531791Y-85688713D01*
X116539262Y-85693686D01*
X116539263Y-85693687D01*
X116555470Y-85704475D01*
X116640929Y-85761362D01*
X116730372Y-85789306D01*
X116757501Y-85797782D01*
X116757502Y-85797782D01*
X116766070Y-85800459D01*
X116830505Y-85801640D01*
X116888178Y-85802697D01*
X116888181Y-85802697D01*
X116897154Y-85802861D01*
X116938547Y-85791576D01*
X117014982Y-85770738D01*
X117014985Y-85770737D01*
X117023644Y-85768376D01*
X117038558Y-85759219D01*
X117127719Y-85704475D01*
X117127722Y-85704472D01*
X117135371Y-85699776D01*
X117223353Y-85602575D01*
X117234225Y-85580136D01*
X117276604Y-85492664D01*
X117276604Y-85492663D01*
X117280517Y-85484587D01*
X117302269Y-85355298D01*
X117302407Y-85344000D01*
X117283821Y-85214218D01*
X117229556Y-85094869D01*
X117223698Y-85088071D01*
X117218861Y-85080507D01*
X117221036Y-85079116D01*
X117197334Y-85026834D01*
X117196100Y-85009245D01*
X117196100Y-82855432D01*
X117198235Y-82835371D01*
X117198432Y-82831187D01*
X117200624Y-82821007D01*
X117196973Y-82790160D01*
X117196656Y-82784785D01*
X117196528Y-82784796D01*
X117196100Y-82779618D01*
X117196100Y-82774416D01*
X117193161Y-82756757D01*
X117192326Y-82750885D01*
X117187916Y-82713626D01*
X117187914Y-82713619D01*
X117186690Y-82703278D01*
X117182970Y-82695532D01*
X117181560Y-82687058D01*
X117158808Y-82644891D01*
X117156115Y-82639604D01*
X117138805Y-82603558D01*
X117138803Y-82603555D01*
X117135372Y-82596410D01*
X117132001Y-82592400D01*
X117130063Y-82590462D01*
X117128548Y-82588811D01*
X117128327Y-82588401D01*
X117128369Y-82588363D01*
X117128208Y-82588180D01*
X117125265Y-82582726D01*
X117107271Y-82566092D01*
X117088206Y-82548469D01*
X117084640Y-82545039D01*
X115770268Y-81230667D01*
X115736242Y-81168355D01*
X115734636Y-81159434D01*
X115730160Y-81128176D01*
X115730157Y-81128167D01*
X115728885Y-81119282D01*
X115674620Y-80999933D01*
X115589039Y-80900611D01*
X115581504Y-80895727D01*
X115486553Y-80834182D01*
X115486551Y-80834181D01*
X115479022Y-80829301D01*
X115353412Y-80791736D01*
X115344436Y-80791681D01*
X115344435Y-80791681D01*
X115289329Y-80791344D01*
X115221332Y-80770925D01*
X115175168Y-80716986D01*
X115164100Y-80665346D01*
X115164100Y-70947226D01*
X115185587Y-70876945D01*
X115191353Y-70870575D01*
X115248517Y-70752587D01*
X115270269Y-70623298D01*
X115270407Y-70612000D01*
X115251821Y-70482218D01*
X115197556Y-70362869D01*
X115111975Y-70263547D01*
X115098895Y-70255069D01*
X115009489Y-70197118D01*
X115009487Y-70197117D01*
X115001958Y-70192237D01*
X114876348Y-70154672D01*
X114867372Y-70154617D01*
X114867371Y-70154617D01*
X114812959Y-70154285D01*
X114745244Y-70153871D01*
X114619185Y-70189899D01*
X114611598Y-70194686D01*
X114611596Y-70194687D01*
X114553243Y-70231505D01*
X114508305Y-70259859D01*
X114421517Y-70358128D01*
X114365798Y-70476805D01*
X114364417Y-70485677D01*
X114347009Y-70597478D01*
X114347009Y-70597482D01*
X114345628Y-70606351D01*
X114346792Y-70615253D01*
X114346792Y-70615256D01*
X114347844Y-70623298D01*
X114362627Y-70736350D01*
X114415430Y-70856354D01*
X114421205Y-70863224D01*
X114421208Y-70863229D01*
X114422348Y-70864585D01*
X114423055Y-70866196D01*
X114425951Y-70870849D01*
X114425280Y-70871267D01*
X114450872Y-70929599D01*
X114451900Y-70945663D01*
X114451900Y-71298410D01*
X114431898Y-71366531D01*
X114378242Y-71413024D01*
X114325130Y-71424408D01*
X114237244Y-71423871D01*
X114111185Y-71459899D01*
X114000305Y-71529859D01*
X113913517Y-71628128D01*
X113857798Y-71746805D01*
X113856417Y-71755677D01*
X113839009Y-71867478D01*
X113839009Y-71867482D01*
X113837628Y-71876351D01*
X112014000Y-71876351D01*
X112014000Y-68065028D01*
X114396283Y-68065028D01*
X114413836Y-68224026D01*
X114468809Y-68374246D01*
X114473046Y-68380552D01*
X114473048Y-68380555D01*
X114476492Y-68385680D01*
X114558028Y-68507017D01*
X114676341Y-68614675D01*
X114816920Y-68691002D01*
X114971647Y-68731594D01*
X115056033Y-68732920D01*
X115123993Y-68733988D01*
X115123996Y-68733988D01*
X115131590Y-68734107D01*
X115187334Y-68721340D01*
X115280113Y-68700091D01*
X115280117Y-68700090D01*
X115287516Y-68698395D01*
X115358617Y-68662635D01*
X115423640Y-68629933D01*
X115423643Y-68629931D01*
X115430423Y-68626521D01*
X115436195Y-68621592D01*
X115436197Y-68621590D01*
X115546288Y-68527563D01*
X115546289Y-68527562D01*
X115552060Y-68522633D01*
X115645405Y-68392729D01*
X115705069Y-68244310D01*
X115727608Y-68085942D01*
X115727754Y-68072000D01*
X115726911Y-68065028D01*
X115709449Y-67920735D01*
X115708537Y-67913195D01*
X115651994Y-67763559D01*
X115561389Y-67631729D01*
X115514274Y-67589751D01*
X115447627Y-67530370D01*
X115447624Y-67530368D01*
X115441955Y-67525317D01*
X115427919Y-67517885D01*
X115307297Y-67454019D01*
X115307298Y-67454019D01*
X115300585Y-67450465D01*
X115293220Y-67448615D01*
X115152812Y-67413347D01*
X115152808Y-67413347D01*
X115145441Y-67411496D01*
X115137841Y-67411456D01*
X115137840Y-67411456D01*
X115072147Y-67411112D01*
X114985480Y-67410658D01*
X114978100Y-67412430D01*
X114978098Y-67412430D01*
X114837317Y-67446229D01*
X114837315Y-67446230D01*
X114829937Y-67448001D01*
X114758813Y-67484711D01*
X114716340Y-67506633D01*
X114687791Y-67521368D01*
X114682069Y-67526360D01*
X114682067Y-67526361D01*
X114615196Y-67584697D01*
X114567248Y-67626524D01*
X114535726Y-67671375D01*
X114504649Y-67715594D01*
X114475269Y-67757397D01*
X114417162Y-67906434D01*
X114396283Y-68065028D01*
X112014000Y-68065028D01*
X112014000Y-64472448D01*
X112034002Y-64404327D01*
X112087658Y-64357834D01*
X112157932Y-64347730D01*
X112222512Y-64377224D01*
X112244581Y-64402172D01*
X112272028Y-64443017D01*
X112390341Y-64550675D01*
X112530920Y-64627002D01*
X112685647Y-64667594D01*
X112770033Y-64668920D01*
X112837993Y-64669988D01*
X112837996Y-64669988D01*
X112845590Y-64670107D01*
X112901334Y-64657340D01*
X112994113Y-64636091D01*
X112994117Y-64636090D01*
X113001516Y-64634395D01*
X113072617Y-64598635D01*
X113137640Y-64565933D01*
X113137643Y-64565931D01*
X113144423Y-64562521D01*
X113150195Y-64557592D01*
X113150197Y-64557590D01*
X113260288Y-64463563D01*
X113260289Y-64463562D01*
X113266060Y-64458633D01*
X113338491Y-64357834D01*
X113354974Y-64334896D01*
X113354975Y-64334894D01*
X113359405Y-64328729D01*
X113419069Y-64180310D01*
X113441608Y-64021942D01*
X113441754Y-64008000D01*
X113440911Y-64001028D01*
X113423449Y-63856735D01*
X113422537Y-63849195D01*
X113418936Y-63839666D01*
X113368678Y-63706661D01*
X113368677Y-63706658D01*
X113365994Y-63699559D01*
X113275389Y-63567729D01*
X113228274Y-63525751D01*
X113161627Y-63466370D01*
X113161624Y-63466368D01*
X113155955Y-63461317D01*
X113141919Y-63453885D01*
X113021297Y-63390019D01*
X113021298Y-63390019D01*
X113014585Y-63386465D01*
X113007220Y-63384615D01*
X112866812Y-63349347D01*
X112866808Y-63349347D01*
X112859441Y-63347496D01*
X112851841Y-63347456D01*
X112851840Y-63347456D01*
X112786147Y-63347112D01*
X112699480Y-63346658D01*
X112692100Y-63348430D01*
X112692098Y-63348430D01*
X112551317Y-63382229D01*
X112551315Y-63382230D01*
X112543937Y-63384001D01*
X112401791Y-63457368D01*
X112396069Y-63462360D01*
X112396067Y-63462361D01*
X112329196Y-63520697D01*
X112281248Y-63562524D01*
X112276878Y-63568742D01*
X112243087Y-63616821D01*
X112187553Y-63661053D01*
X112116921Y-63668239D01*
X112053616Y-63636098D01*
X112017738Y-63574834D01*
X112014000Y-63544371D01*
X112014000Y-60324000D01*
X112034002Y-60255879D01*
X112087658Y-60209386D01*
X112140000Y-60198000D01*
X139828000Y-60198000D01*
X139896121Y-60218002D01*
G37*
%TD.AperFunction*%
%TD*%
M02*
