M48
; DRILL file {KiCad (6.0.0-rc1-343-g73b39e836d)} date Thursday, December 09, 2021 at 03:59:43 PM
; FORMAT={-:-/ absolute / inch / decimal}
; #@! TF.CreationDate,2021-12-09T15:59:43-05:00
; #@! TF.GenerationSoftware,Kicad,Pcbnew,(6.0.0-rc1-343-g73b39e836d)
; #@! TF.FileFunction,Plated,1,4,PTH
FMAT,2
INCH
; #@! TA.AperFunction,Plated,PTH,ViaDrill
T1C0.0080
; #@! TA.AperFunction,Plated,PTH,ViaDrill
T2C0.0160
; #@! TA.AperFunction,Plated,PTH,ComponentDrill
T3C0.0299
%
G90
G05
T1
X4.42Y-3.25
X4.5Y-2.83
X4.51Y-3.57
X4.51Y-3.6
X4.52Y-2.78
X4.5388Y-3.1988
X4.6Y-3.36
X4.68Y-3.28
X4.68Y-3.53
X5.012Y-3.48
X5.04Y-3.43
X5.05Y-3.38
X5.058Y-3.5838
X5.3Y-3.89
X5.32Y-3.85
X5.35Y-2.58
X5.35Y-2.63
X5.37Y-2.48
X5.388Y-2.53
T2
X4.44Y-2.52
X4.44Y-2.68
X4.49Y-2.53
X4.51Y-3.7
X4.53Y-2.68
X4.53Y-2.73
X4.58Y-4.15
X4.6Y-3.5
X4.65Y-3.87
X4.68Y-3.33
X4.68Y-3.43
X4.68Y-3.58
X4.8018Y-4.0541
X4.845Y-2.645
X4.845Y-2.695
X4.845Y-2.745
X4.845Y-2.795
X4.85Y-3.7
X4.88Y-3.9
X4.895Y-2.645
X4.895Y-2.695
X4.895Y-2.745
X4.895Y-2.795
X4.945Y-2.645
X4.945Y-2.695
X4.945Y-2.745
X4.945Y-2.795
X4.99Y-3.53
X4.995Y-2.645
X4.995Y-2.695
X4.995Y-2.745
X4.995Y-2.795
X5.0Y-3.28
X5.0Y-3.33
X5.24Y-3.76
X5.24Y-3.92
X5.28Y-3.8
X5.32Y-3.93
X5.35Y-2.43
X5.36Y-4.16
X5.41Y-3.28
X5.41Y-3.58
X5.41Y-3.81
X5.43Y-2.42
X5.43Y-2.64
T3
X4.8452Y-4.2041
X4.8952Y-4.3041
X4.9452Y-4.2041
X4.9952Y-4.3041
X5.0452Y-4.2041
X5.0952Y-4.3041
T0
M30
