%TF.GenerationSoftware,KiCad,Pcbnew,(6.0.0-rc1-343-g73b39e836d)*%
%TF.CreationDate,2021-12-09T15:59:46-05:00*%
%TF.ProjectId,Celestron-WiFi,43656c65-7374-4726-9f6e-2d576946692e,rev?*%
%TF.SameCoordinates,Original*%
%TF.FileFunction,Copper,L3,Inr*%
%TF.FilePolarity,Positive*%
%FSLAX46Y46*%
G04 Gerber Fmt 4.6, Leading zero omitted, Abs format (unit mm)*
G04 Created by KiCad (PCBNEW (6.0.0-rc1-343-g73b39e836d)) date 2021-12-09 15:59:46*
%MOMM*%
%LPD*%
G01*
G04 APERTURE LIST*
%TA.AperFunction,ComponentPad*%
%ADD10R,1.520000X1.520000*%
%TD*%
%TA.AperFunction,ComponentPad*%
%ADD11C,1.520000*%
%TD*%
%TA.AperFunction,ViaPad*%
%ADD12C,0.812800*%
%TD*%
%TA.AperFunction,ViaPad*%
%ADD13C,0.406400*%
%TD*%
G04 APERTURE END LIST*
D10*
%TO.N,DTR*%
%TO.C,J2*%
X123068004Y-106783988D03*
D11*
%TO.N,/RX*%
X124338004Y-109323988D03*
%TO.N,+12V*%
X125608004Y-106783988D03*
%TO.N,/TX*%
X126878004Y-109323988D03*
%TO.N,GND*%
X128148004Y-106783988D03*
%TO.N,/BUSY*%
X129418004Y-109323988D03*
%TD*%
D12*
%TO.N,GND*%
X126873000Y-70993000D03*
X125603000Y-70993000D03*
X124333000Y-70993000D03*
X123063000Y-70993000D03*
X126873000Y-69723000D03*
X125603000Y-69723000D03*
X124333000Y-69723000D03*
X123063000Y-69723000D03*
X126873000Y-68453000D03*
X125603000Y-68453000D03*
X124333000Y-68453000D03*
X123063000Y-68453000D03*
X126873000Y-67183000D03*
X125603000Y-67183000D03*
X124333000Y-67183000D03*
X123063000Y-67183000D03*
X135890000Y-61722000D03*
X137413010Y-90932000D03*
X123952000Y-99060000D03*
X121964612Y-102974333D03*
X118872000Y-90932000D03*
X112776000Y-68072000D03*
X118110000Y-98298000D03*
X123190000Y-93980000D03*
X114046000Y-64262000D03*
X115062000Y-69342000D03*
X137922000Y-61468000D03*
X116840000Y-88900000D03*
X137414000Y-96774000D03*
X118872000Y-87122000D03*
X133096000Y-99568000D03*
X118872000Y-84582000D03*
X127000000Y-84582000D03*
X126746000Y-89662000D03*
X114554000Y-93980000D03*
X137413010Y-83312000D03*
D13*
%TO.N,EN*%
X115285064Y-81249064D03*
X116840000Y-85344000D03*
D12*
%TO.N,VCC*%
X136144000Y-105664000D03*
X134112000Y-96520000D03*
X137922000Y-67056000D03*
X116332000Y-105410000D03*
X133096000Y-95504000D03*
X115062000Y-68072000D03*
X127000000Y-83312000D03*
X135128000Y-99822000D03*
X112776000Y-64008000D03*
D13*
%TO.N,DTR*%
X112268000Y-82550000D03*
%TO.N,/RX*%
X114554000Y-91440000D03*
%TO.N,/TX*%
X114554000Y-90678000D03*
%TO.N,/BUSY*%
X128270000Y-85852000D03*
X128472700Y-91027342D03*
%TO.N,IO32*%
X127305300Y-88392000D03*
X114808000Y-70612000D03*
%TO.N,IO33*%
X114300000Y-71882000D03*
X128016000Y-87122000D03*
%TO.N,RXD0*%
X135890000Y-66802000D03*
X118872000Y-89662000D03*
%TO.N,TXD0*%
X118872000Y-83312000D03*
X135890000Y-65532000D03*
%TO.N,TXG*%
X135128000Y-97790000D03*
X136854700Y-64262000D03*
%TO.N,RXG*%
X134620000Y-98806000D03*
X136398000Y-62992000D03*
%TD*%
%TA.AperFunction,Conductor*%
%TO.N,VCC*%
G36*
X139896121Y-60218002D02*
G01*
X139942614Y-60271658D01*
X139954000Y-60324000D01*
X139954000Y-120016000D01*
X139933998Y-120084121D01*
X139880342Y-120130614D01*
X139828000Y-120142000D01*
X112140000Y-120142000D01*
X112071879Y-120121998D01*
X112025386Y-120068342D01*
X112014000Y-120016000D01*
X112014000Y-115614801D01*
X119274633Y-115614801D01*
X119274808Y-115619252D01*
X119281481Y-115789093D01*
X119285082Y-115880760D01*
X119332902Y-116142595D01*
X119334311Y-116146818D01*
X119389511Y-116312272D01*
X119417137Y-116395079D01*
X119536107Y-116633175D01*
X119687438Y-116852133D01*
X119690460Y-116855402D01*
X119810534Y-116985297D01*
X119868111Y-117047584D01*
X119871565Y-117050396D01*
X120071064Y-117212814D01*
X120071068Y-117212817D01*
X120074521Y-117215628D01*
X120078343Y-117217929D01*
X120235726Y-117312681D01*
X120302549Y-117352912D01*
X120397900Y-117393288D01*
X120543543Y-117454961D01*
X120543548Y-117454963D01*
X120547646Y-117456698D01*
X120551943Y-117457837D01*
X120551948Y-117457839D01*
X120676283Y-117490805D01*
X120804921Y-117524913D01*
X120809338Y-117525436D01*
X120809339Y-117525436D01*
X120868099Y-117532391D01*
X121069241Y-117556197D01*
X121335332Y-117549926D01*
X121339726Y-117549195D01*
X121339733Y-117549194D01*
X121593483Y-117506959D01*
X121593487Y-117506958D01*
X121597885Y-117506226D01*
X121764009Y-117453688D01*
X121847415Y-117427310D01*
X121847417Y-117427309D01*
X121851661Y-117425967D01*
X122091597Y-117310751D01*
X122095303Y-117308275D01*
X122309197Y-117165356D01*
X122309201Y-117165353D01*
X122312905Y-117162878D01*
X122316222Y-117159907D01*
X122316226Y-117159904D01*
X122507854Y-116988267D01*
X122511170Y-116985297D01*
X122682436Y-116781552D01*
X122823284Y-116555709D01*
X122930907Y-116312272D01*
X123003155Y-116056100D01*
X123026706Y-115880760D01*
X123038160Y-115795486D01*
X123038161Y-115795478D01*
X123038587Y-115792304D01*
X123042305Y-115673988D01*
X123038114Y-115614801D01*
X129434633Y-115614801D01*
X129434808Y-115619252D01*
X129441481Y-115789093D01*
X129445082Y-115880760D01*
X129492902Y-116142595D01*
X129494311Y-116146818D01*
X129549511Y-116312272D01*
X129577137Y-116395079D01*
X129696107Y-116633175D01*
X129847438Y-116852133D01*
X129850460Y-116855402D01*
X129970534Y-116985297D01*
X130028111Y-117047584D01*
X130031565Y-117050396D01*
X130231064Y-117212814D01*
X130231068Y-117212817D01*
X130234521Y-117215628D01*
X130238343Y-117217929D01*
X130395726Y-117312681D01*
X130462549Y-117352912D01*
X130557900Y-117393288D01*
X130703543Y-117454961D01*
X130703548Y-117454963D01*
X130707646Y-117456698D01*
X130711943Y-117457837D01*
X130711948Y-117457839D01*
X130836283Y-117490805D01*
X130964921Y-117524913D01*
X130969338Y-117525436D01*
X130969339Y-117525436D01*
X131028099Y-117532391D01*
X131229241Y-117556197D01*
X131495332Y-117549926D01*
X131499726Y-117549195D01*
X131499733Y-117549194D01*
X131753483Y-117506959D01*
X131753487Y-117506958D01*
X131757885Y-117506226D01*
X131924009Y-117453688D01*
X132007415Y-117427310D01*
X132007417Y-117427309D01*
X132011661Y-117425967D01*
X132251597Y-117310751D01*
X132255303Y-117308275D01*
X132469197Y-117165356D01*
X132469201Y-117165353D01*
X132472905Y-117162878D01*
X132476222Y-117159907D01*
X132476226Y-117159904D01*
X132667854Y-116988267D01*
X132671170Y-116985297D01*
X132842436Y-116781552D01*
X132983284Y-116555709D01*
X133090907Y-116312272D01*
X133163155Y-116056100D01*
X133186706Y-115880760D01*
X133198160Y-115795486D01*
X133198161Y-115795478D01*
X133198587Y-115792304D01*
X133202305Y-115673988D01*
X133183507Y-115408488D01*
X133170920Y-115350022D01*
X133128423Y-115152637D01*
X133127486Y-115148285D01*
X133108211Y-115096036D01*
X133036903Y-114902748D01*
X133035362Y-114898571D01*
X132908972Y-114664329D01*
X132750838Y-114450232D01*
X132710571Y-114409327D01*
X132567246Y-114263734D01*
X132564115Y-114260553D01*
X132352528Y-114099075D01*
X132300511Y-114069944D01*
X132124186Y-113971197D01*
X132124183Y-113971196D01*
X132120300Y-113969021D01*
X132116161Y-113967420D01*
X132116153Y-113967416D01*
X131932290Y-113896286D01*
X131872064Y-113872986D01*
X131867739Y-113871983D01*
X131867734Y-113871982D01*
X131725575Y-113839032D01*
X131612774Y-113812886D01*
X131347601Y-113789919D01*
X131343166Y-113790163D01*
X131343162Y-113790163D01*
X131086281Y-113804300D01*
X131086274Y-113804301D01*
X131081838Y-113804545D01*
X130820788Y-113856471D01*
X130816578Y-113857949D01*
X130816576Y-113857950D01*
X130670124Y-113909381D01*
X130569658Y-113944662D01*
X130565707Y-113946715D01*
X130565701Y-113946717D01*
X130337409Y-114065305D01*
X130333459Y-114067357D01*
X130329844Y-114069940D01*
X130329838Y-114069944D01*
X130193129Y-114167638D01*
X130116905Y-114222109D01*
X129924316Y-114405830D01*
X129759535Y-114614854D01*
X129625850Y-114845010D01*
X129624182Y-114849127D01*
X129624179Y-114849134D01*
X129527601Y-115087574D01*
X129525927Y-115091707D01*
X129461762Y-115350022D01*
X129434633Y-115614801D01*
X123038114Y-115614801D01*
X123023507Y-115408488D01*
X123010920Y-115350022D01*
X122968423Y-115152637D01*
X122967486Y-115148285D01*
X122948211Y-115096036D01*
X122876903Y-114902748D01*
X122875362Y-114898571D01*
X122748972Y-114664329D01*
X122590838Y-114450232D01*
X122550571Y-114409327D01*
X122407246Y-114263734D01*
X122404115Y-114260553D01*
X122192528Y-114099075D01*
X122140511Y-114069944D01*
X121964186Y-113971197D01*
X121964183Y-113971196D01*
X121960300Y-113969021D01*
X121956161Y-113967420D01*
X121956153Y-113967416D01*
X121772290Y-113896286D01*
X121712064Y-113872986D01*
X121707739Y-113871983D01*
X121707734Y-113871982D01*
X121565575Y-113839032D01*
X121452774Y-113812886D01*
X121187601Y-113789919D01*
X121183166Y-113790163D01*
X121183162Y-113790163D01*
X120926281Y-113804300D01*
X120926274Y-113804301D01*
X120921838Y-113804545D01*
X120660788Y-113856471D01*
X120656578Y-113857949D01*
X120656576Y-113857950D01*
X120510124Y-113909381D01*
X120409658Y-113944662D01*
X120405707Y-113946715D01*
X120405701Y-113946717D01*
X120177409Y-114065305D01*
X120173459Y-114067357D01*
X120169844Y-114069940D01*
X120169838Y-114069944D01*
X120033129Y-114167638D01*
X119956905Y-114222109D01*
X119764316Y-114405830D01*
X119599535Y-114614854D01*
X119465850Y-114845010D01*
X119464182Y-114849127D01*
X119464179Y-114849134D01*
X119367601Y-115087574D01*
X119365927Y-115091707D01*
X119301762Y-115350022D01*
X119274633Y-115614801D01*
X112014000Y-115614801D01*
X112014000Y-109309755D01*
X123318694Y-109309755D01*
X123335342Y-109508011D01*
X123390181Y-109699257D01*
X123393000Y-109704742D01*
X123478305Y-109870728D01*
X123478308Y-109870733D01*
X123481123Y-109876210D01*
X123604703Y-110032129D01*
X123609397Y-110036124D01*
X123644512Y-110066009D01*
X123756213Y-110161075D01*
X123761591Y-110164081D01*
X123761593Y-110164082D01*
X123803461Y-110187481D01*
X123929885Y-110258136D01*
X123935744Y-110260040D01*
X123935747Y-110260041D01*
X124113238Y-110317712D01*
X124119101Y-110319617D01*
X124125221Y-110320347D01*
X124125222Y-110320347D01*
X124174754Y-110326253D01*
X124316655Y-110343173D01*
X124322790Y-110342701D01*
X124322792Y-110342701D01*
X124508882Y-110328383D01*
X124508887Y-110328382D01*
X124515023Y-110327910D01*
X124520955Y-110326254D01*
X124520959Y-110326253D01*
X124610835Y-110301159D01*
X124706647Y-110274407D01*
X124884231Y-110184703D01*
X124914474Y-110161075D01*
X125036152Y-110066009D01*
X125041008Y-110062215D01*
X125171009Y-109911608D01*
X125174052Y-109906251D01*
X125174055Y-109906247D01*
X125220144Y-109825114D01*
X125269280Y-109738619D01*
X125280550Y-109704742D01*
X125330133Y-109555689D01*
X125332080Y-109549837D01*
X125357016Y-109352452D01*
X125357413Y-109323988D01*
X125356018Y-109309755D01*
X125858694Y-109309755D01*
X125875342Y-109508011D01*
X125930181Y-109699257D01*
X125933000Y-109704742D01*
X126018305Y-109870728D01*
X126018308Y-109870733D01*
X126021123Y-109876210D01*
X126144703Y-110032129D01*
X126149397Y-110036124D01*
X126184512Y-110066009D01*
X126296213Y-110161075D01*
X126301591Y-110164081D01*
X126301593Y-110164082D01*
X126343461Y-110187481D01*
X126469885Y-110258136D01*
X126475744Y-110260040D01*
X126475747Y-110260041D01*
X126653238Y-110317712D01*
X126659101Y-110319617D01*
X126665221Y-110320347D01*
X126665222Y-110320347D01*
X126714754Y-110326253D01*
X126856655Y-110343173D01*
X126862790Y-110342701D01*
X126862792Y-110342701D01*
X127048882Y-110328383D01*
X127048887Y-110328382D01*
X127055023Y-110327910D01*
X127060955Y-110326254D01*
X127060959Y-110326253D01*
X127150835Y-110301159D01*
X127246647Y-110274407D01*
X127424231Y-110184703D01*
X127454474Y-110161075D01*
X127576152Y-110066009D01*
X127581008Y-110062215D01*
X127711009Y-109911608D01*
X127714052Y-109906251D01*
X127714055Y-109906247D01*
X127760144Y-109825114D01*
X127809280Y-109738619D01*
X127820550Y-109704742D01*
X127870133Y-109555689D01*
X127872080Y-109549837D01*
X127897016Y-109352452D01*
X127897413Y-109323988D01*
X127896018Y-109309755D01*
X128398694Y-109309755D01*
X128415342Y-109508011D01*
X128470181Y-109699257D01*
X128473000Y-109704742D01*
X128558305Y-109870728D01*
X128558308Y-109870733D01*
X128561123Y-109876210D01*
X128684703Y-110032129D01*
X128689397Y-110036124D01*
X128724512Y-110066009D01*
X128836213Y-110161075D01*
X128841591Y-110164081D01*
X128841593Y-110164082D01*
X128883461Y-110187481D01*
X129009885Y-110258136D01*
X129015744Y-110260040D01*
X129015747Y-110260041D01*
X129193238Y-110317712D01*
X129199101Y-110319617D01*
X129205221Y-110320347D01*
X129205222Y-110320347D01*
X129254754Y-110326253D01*
X129396655Y-110343173D01*
X129402790Y-110342701D01*
X129402792Y-110342701D01*
X129588882Y-110328383D01*
X129588887Y-110328382D01*
X129595023Y-110327910D01*
X129600955Y-110326254D01*
X129600959Y-110326253D01*
X129690835Y-110301159D01*
X129786647Y-110274407D01*
X129964231Y-110184703D01*
X129994474Y-110161075D01*
X130116152Y-110066009D01*
X130121008Y-110062215D01*
X130251009Y-109911608D01*
X130254052Y-109906251D01*
X130254055Y-109906247D01*
X130300144Y-109825114D01*
X130349280Y-109738619D01*
X130360550Y-109704742D01*
X130410133Y-109555689D01*
X130412080Y-109549837D01*
X130437016Y-109352452D01*
X130437413Y-109323988D01*
X130436018Y-109309755D01*
X130418600Y-109132117D01*
X130417999Y-109125984D01*
X130360495Y-108935521D01*
X130267091Y-108759856D01*
X130141347Y-108605678D01*
X129988050Y-108478860D01*
X129928893Y-108446874D01*
X129818466Y-108387165D01*
X129818463Y-108387164D01*
X129813041Y-108384232D01*
X129622985Y-108325400D01*
X129616860Y-108324756D01*
X129616859Y-108324756D01*
X129431250Y-108305248D01*
X129431248Y-108305248D01*
X129425121Y-108304604D01*
X129342809Y-108312095D01*
X129233125Y-108322077D01*
X129233122Y-108322078D01*
X129226986Y-108322636D01*
X129221080Y-108324374D01*
X129221076Y-108324375D01*
X129075224Y-108367301D01*
X129036127Y-108378808D01*
X129030667Y-108381662D01*
X129030668Y-108381662D01*
X128865273Y-108468128D01*
X128865269Y-108468131D01*
X128859813Y-108470983D01*
X128704761Y-108595648D01*
X128576876Y-108748056D01*
X128481029Y-108922400D01*
X128420872Y-109112041D01*
X128398694Y-109309755D01*
X127896018Y-109309755D01*
X127878600Y-109132117D01*
X127877999Y-109125984D01*
X127820495Y-108935521D01*
X127727091Y-108759856D01*
X127601347Y-108605678D01*
X127448050Y-108478860D01*
X127388893Y-108446874D01*
X127278466Y-108387165D01*
X127278463Y-108387164D01*
X127273041Y-108384232D01*
X127082985Y-108325400D01*
X127076860Y-108324756D01*
X127076859Y-108324756D01*
X126891250Y-108305248D01*
X126891248Y-108305248D01*
X126885121Y-108304604D01*
X126802809Y-108312095D01*
X126693125Y-108322077D01*
X126693122Y-108322078D01*
X126686986Y-108322636D01*
X126681080Y-108324374D01*
X126681076Y-108324375D01*
X126535224Y-108367301D01*
X126496127Y-108378808D01*
X126490667Y-108381662D01*
X126490668Y-108381662D01*
X126325273Y-108468128D01*
X126325269Y-108468131D01*
X126319813Y-108470983D01*
X126164761Y-108595648D01*
X126036876Y-108748056D01*
X125941029Y-108922400D01*
X125880872Y-109112041D01*
X125858694Y-109309755D01*
X125356018Y-109309755D01*
X125338600Y-109132117D01*
X125337999Y-109125984D01*
X125280495Y-108935521D01*
X125187091Y-108759856D01*
X125061347Y-108605678D01*
X124908050Y-108478860D01*
X124848893Y-108446874D01*
X124738466Y-108387165D01*
X124738463Y-108387164D01*
X124733041Y-108384232D01*
X124542985Y-108325400D01*
X124536860Y-108324756D01*
X124536859Y-108324756D01*
X124351250Y-108305248D01*
X124351248Y-108305248D01*
X124345121Y-108304604D01*
X124262809Y-108312095D01*
X124153125Y-108322077D01*
X124153122Y-108322078D01*
X124146986Y-108322636D01*
X124141080Y-108324374D01*
X124141076Y-108324375D01*
X123995224Y-108367301D01*
X123956127Y-108378808D01*
X123950667Y-108381662D01*
X123950668Y-108381662D01*
X123785273Y-108468128D01*
X123785269Y-108468131D01*
X123779813Y-108470983D01*
X123624761Y-108595648D01*
X123496876Y-108748056D01*
X123401029Y-108922400D01*
X123340872Y-109112041D01*
X123318694Y-109309755D01*
X112014000Y-109309755D01*
X112014000Y-105998921D01*
X122053504Y-105998921D01*
X122053505Y-107569054D01*
X122060616Y-107604806D01*
X122064450Y-107624082D01*
X122068270Y-107643289D01*
X122124520Y-107727472D01*
X122208703Y-107783722D01*
X122282937Y-107798488D01*
X123067877Y-107798488D01*
X123853070Y-107798487D01*
X123888822Y-107791376D01*
X123915130Y-107786144D01*
X123915132Y-107786143D01*
X123927305Y-107783722D01*
X123937625Y-107776827D01*
X123937626Y-107776826D01*
X124001172Y-107734365D01*
X124011488Y-107727472D01*
X124067738Y-107643289D01*
X124082504Y-107569055D01*
X124082503Y-106769755D01*
X124588694Y-106769755D01*
X124605342Y-106968011D01*
X124660181Y-107159257D01*
X124663000Y-107164742D01*
X124748305Y-107330728D01*
X124748308Y-107330733D01*
X124751123Y-107336210D01*
X124874703Y-107492129D01*
X124879397Y-107496124D01*
X124914512Y-107526009D01*
X125026213Y-107621075D01*
X125031591Y-107624081D01*
X125031593Y-107624082D01*
X125084428Y-107653610D01*
X125199885Y-107718136D01*
X125205744Y-107720040D01*
X125205747Y-107720041D01*
X125380511Y-107776826D01*
X125389101Y-107779617D01*
X125395221Y-107780347D01*
X125395222Y-107780347D01*
X125443840Y-107786144D01*
X125586655Y-107803173D01*
X125592790Y-107802701D01*
X125592792Y-107802701D01*
X125778882Y-107788383D01*
X125778887Y-107788382D01*
X125785023Y-107787910D01*
X125790955Y-107786254D01*
X125790959Y-107786253D01*
X125880835Y-107761158D01*
X125976647Y-107734407D01*
X126154231Y-107644703D01*
X126184474Y-107621075D01*
X126306152Y-107526009D01*
X126311008Y-107522215D01*
X126441009Y-107371608D01*
X126444052Y-107366251D01*
X126444055Y-107366247D01*
X126490144Y-107285114D01*
X126539280Y-107198619D01*
X126550550Y-107164742D01*
X126600133Y-107015689D01*
X126602080Y-107009837D01*
X126627016Y-106812452D01*
X126627413Y-106783988D01*
X126626018Y-106769755D01*
X127128694Y-106769755D01*
X127145342Y-106968011D01*
X127200181Y-107159257D01*
X127203000Y-107164742D01*
X127288305Y-107330728D01*
X127288308Y-107330733D01*
X127291123Y-107336210D01*
X127414703Y-107492129D01*
X127419397Y-107496124D01*
X127454512Y-107526009D01*
X127566213Y-107621075D01*
X127571591Y-107624081D01*
X127571593Y-107624082D01*
X127624428Y-107653610D01*
X127739885Y-107718136D01*
X127745744Y-107720040D01*
X127745747Y-107720041D01*
X127920511Y-107776826D01*
X127929101Y-107779617D01*
X127935221Y-107780347D01*
X127935222Y-107780347D01*
X127983840Y-107786144D01*
X128126655Y-107803173D01*
X128132790Y-107802701D01*
X128132792Y-107802701D01*
X128318882Y-107788383D01*
X128318887Y-107788382D01*
X128325023Y-107787910D01*
X128330955Y-107786254D01*
X128330959Y-107786253D01*
X128420835Y-107761158D01*
X128516647Y-107734407D01*
X128694231Y-107644703D01*
X128724474Y-107621075D01*
X128846152Y-107526009D01*
X128851008Y-107522215D01*
X128981009Y-107371608D01*
X128984052Y-107366251D01*
X128984055Y-107366247D01*
X129030144Y-107285114D01*
X129079280Y-107198619D01*
X129090550Y-107164742D01*
X129140133Y-107015689D01*
X129142080Y-107009837D01*
X129167016Y-106812452D01*
X129167413Y-106783988D01*
X129166018Y-106769755D01*
X129148600Y-106592117D01*
X129147999Y-106585984D01*
X129090495Y-106395521D01*
X128997091Y-106219856D01*
X128871347Y-106065678D01*
X128718050Y-105938860D01*
X128658893Y-105906874D01*
X128548466Y-105847165D01*
X128548463Y-105847164D01*
X128543041Y-105844232D01*
X128352985Y-105785400D01*
X128346860Y-105784756D01*
X128346859Y-105784756D01*
X128161250Y-105765248D01*
X128161248Y-105765248D01*
X128155121Y-105764604D01*
X128072809Y-105772095D01*
X127963125Y-105782077D01*
X127963122Y-105782078D01*
X127956986Y-105782636D01*
X127951080Y-105784374D01*
X127951076Y-105784375D01*
X127805224Y-105827301D01*
X127766127Y-105838808D01*
X127760667Y-105841662D01*
X127760668Y-105841662D01*
X127595273Y-105928128D01*
X127595269Y-105928131D01*
X127589813Y-105930983D01*
X127434761Y-106055648D01*
X127306876Y-106208056D01*
X127211029Y-106382400D01*
X127150872Y-106572041D01*
X127128694Y-106769755D01*
X126626018Y-106769755D01*
X126608600Y-106592117D01*
X126607999Y-106585984D01*
X126550495Y-106395521D01*
X126457091Y-106219856D01*
X126331347Y-106065678D01*
X126178050Y-105938860D01*
X126118893Y-105906874D01*
X126008466Y-105847165D01*
X126008463Y-105847164D01*
X126003041Y-105844232D01*
X125812985Y-105785400D01*
X125806860Y-105784756D01*
X125806859Y-105784756D01*
X125621250Y-105765248D01*
X125621248Y-105765248D01*
X125615121Y-105764604D01*
X125532809Y-105772095D01*
X125423125Y-105782077D01*
X125423122Y-105782078D01*
X125416986Y-105782636D01*
X125411080Y-105784374D01*
X125411076Y-105784375D01*
X125265224Y-105827301D01*
X125226127Y-105838808D01*
X125220667Y-105841662D01*
X125220668Y-105841662D01*
X125055273Y-105928128D01*
X125055269Y-105928131D01*
X125049813Y-105930983D01*
X124894761Y-106055648D01*
X124766876Y-106208056D01*
X124671029Y-106382400D01*
X124610872Y-106572041D01*
X124588694Y-106769755D01*
X124082503Y-106769755D01*
X124082503Y-105998922D01*
X124067738Y-105924687D01*
X124011488Y-105840504D01*
X123927305Y-105784254D01*
X123853071Y-105769488D01*
X123068131Y-105769488D01*
X122282938Y-105769489D01*
X122247186Y-105776600D01*
X122220878Y-105781832D01*
X122220876Y-105781833D01*
X122208703Y-105784254D01*
X122198383Y-105791149D01*
X122198382Y-105791150D01*
X122137989Y-105831504D01*
X122124520Y-105840504D01*
X122068270Y-105924687D01*
X122053504Y-105998921D01*
X112014000Y-105998921D01*
X112014000Y-102967361D01*
X121298895Y-102967361D01*
X121316448Y-103126359D01*
X121371421Y-103276579D01*
X121375658Y-103282885D01*
X121375660Y-103282888D01*
X121379104Y-103288013D01*
X121460640Y-103409350D01*
X121578953Y-103517008D01*
X121719532Y-103593335D01*
X121874259Y-103633927D01*
X121958645Y-103635253D01*
X122026605Y-103636321D01*
X122026608Y-103636321D01*
X122034202Y-103636440D01*
X122089946Y-103623673D01*
X122182725Y-103602424D01*
X122182729Y-103602423D01*
X122190128Y-103600728D01*
X122261229Y-103564968D01*
X122326252Y-103532266D01*
X122326255Y-103532264D01*
X122333035Y-103528854D01*
X122338807Y-103523925D01*
X122338809Y-103523923D01*
X122448900Y-103429896D01*
X122448901Y-103429895D01*
X122454672Y-103424966D01*
X122548017Y-103295062D01*
X122607681Y-103146643D01*
X122630220Y-102988275D01*
X122630366Y-102974333D01*
X122629523Y-102967361D01*
X122612061Y-102823068D01*
X122611149Y-102815528D01*
X122554606Y-102665892D01*
X122464001Y-102534062D01*
X122416886Y-102492084D01*
X122350239Y-102432703D01*
X122350236Y-102432701D01*
X122344567Y-102427650D01*
X122330531Y-102420218D01*
X122209909Y-102356352D01*
X122209910Y-102356352D01*
X122203197Y-102352798D01*
X122195832Y-102350948D01*
X122055424Y-102315680D01*
X122055420Y-102315680D01*
X122048053Y-102313829D01*
X122040453Y-102313789D01*
X122040452Y-102313789D01*
X121974759Y-102313445D01*
X121888092Y-102312991D01*
X121880712Y-102314763D01*
X121880710Y-102314763D01*
X121739929Y-102348562D01*
X121739927Y-102348563D01*
X121732549Y-102350334D01*
X121590403Y-102423701D01*
X121584681Y-102428693D01*
X121584679Y-102428694D01*
X121517808Y-102487030D01*
X121469860Y-102528857D01*
X121377881Y-102659730D01*
X121319774Y-102808767D01*
X121298895Y-102967361D01*
X112014000Y-102967361D01*
X112014000Y-99053028D01*
X123286283Y-99053028D01*
X123303836Y-99212026D01*
X123358809Y-99362246D01*
X123363046Y-99368552D01*
X123363048Y-99368555D01*
X123390877Y-99409968D01*
X123448028Y-99495017D01*
X123566341Y-99602675D01*
X123706920Y-99679002D01*
X123861647Y-99719594D01*
X123946033Y-99720920D01*
X124013993Y-99721988D01*
X124013996Y-99721988D01*
X124021590Y-99722107D01*
X124077334Y-99709340D01*
X124170113Y-99688091D01*
X124170117Y-99688090D01*
X124177516Y-99686395D01*
X124248617Y-99650635D01*
X124313640Y-99617933D01*
X124313643Y-99617931D01*
X124320423Y-99614521D01*
X124326195Y-99609592D01*
X124326197Y-99609590D01*
X124436288Y-99515563D01*
X124436289Y-99515562D01*
X124442060Y-99510633D01*
X124514950Y-99409195D01*
X124530974Y-99386896D01*
X124530975Y-99386894D01*
X124535405Y-99380729D01*
X124557080Y-99326812D01*
X124562230Y-99314000D01*
X125222000Y-99314000D01*
X126492000Y-100584000D01*
X130048000Y-100584000D01*
X131070972Y-99561028D01*
X132430283Y-99561028D01*
X132447836Y-99720026D01*
X132502809Y-99870246D01*
X132507046Y-99876552D01*
X132507048Y-99876555D01*
X132510492Y-99881680D01*
X132592028Y-100003017D01*
X132710341Y-100110675D01*
X132850920Y-100187002D01*
X133005647Y-100227594D01*
X133090033Y-100228920D01*
X133157993Y-100229988D01*
X133157996Y-100229988D01*
X133165590Y-100230107D01*
X133221334Y-100217340D01*
X133314113Y-100196091D01*
X133314117Y-100196090D01*
X133321516Y-100194395D01*
X133392617Y-100158635D01*
X133457640Y-100125933D01*
X133457643Y-100125931D01*
X133464423Y-100122521D01*
X133470195Y-100117592D01*
X133470197Y-100117590D01*
X133580288Y-100023563D01*
X133580289Y-100023562D01*
X133586060Y-100018633D01*
X133679405Y-99888729D01*
X133739069Y-99740310D01*
X133761608Y-99581942D01*
X133761754Y-99568000D01*
X133760911Y-99561028D01*
X133743449Y-99416735D01*
X133742537Y-99409195D01*
X133706566Y-99314000D01*
X133688678Y-99266661D01*
X133688677Y-99266658D01*
X133685994Y-99259559D01*
X133595389Y-99127729D01*
X133516257Y-99057225D01*
X133481627Y-99026370D01*
X133481624Y-99026368D01*
X133475955Y-99021317D01*
X133461919Y-99013885D01*
X133357147Y-98958411D01*
X133334585Y-98946465D01*
X133327220Y-98944615D01*
X133186812Y-98909347D01*
X133186808Y-98909347D01*
X133179441Y-98907496D01*
X133171841Y-98907456D01*
X133171840Y-98907456D01*
X133106147Y-98907112D01*
X133019480Y-98906658D01*
X133012100Y-98908430D01*
X133012098Y-98908430D01*
X132871317Y-98942229D01*
X132871315Y-98942230D01*
X132863937Y-98944001D01*
X132721791Y-99017368D01*
X132716069Y-99022360D01*
X132716067Y-99022361D01*
X132693399Y-99042136D01*
X132601248Y-99122524D01*
X132578340Y-99155119D01*
X132528497Y-99226039D01*
X132509269Y-99253397D01*
X132504098Y-99266661D01*
X132462373Y-99373680D01*
X132451162Y-99402434D01*
X132450170Y-99409967D01*
X132450170Y-99409968D01*
X132436918Y-99510633D01*
X132430283Y-99561028D01*
X131070972Y-99561028D01*
X131318000Y-99314000D01*
X131318000Y-98800351D01*
X134157628Y-98800351D01*
X134158792Y-98809253D01*
X134158792Y-98809256D01*
X134159844Y-98817298D01*
X134174627Y-98930350D01*
X134227430Y-99050354D01*
X134311791Y-99150713D01*
X134319262Y-99155686D01*
X134319263Y-99155687D01*
X134335470Y-99166475D01*
X134420929Y-99223362D01*
X134497165Y-99247180D01*
X134537501Y-99259782D01*
X134537502Y-99259782D01*
X134546070Y-99262459D01*
X134610505Y-99263640D01*
X134668178Y-99264697D01*
X134668181Y-99264697D01*
X134677154Y-99264861D01*
X134719545Y-99253304D01*
X134794982Y-99232738D01*
X134794985Y-99232737D01*
X134803644Y-99230376D01*
X134811296Y-99225678D01*
X134907719Y-99166475D01*
X134907722Y-99166472D01*
X134915371Y-99161776D01*
X134950765Y-99122674D01*
X134964757Y-99107216D01*
X135003353Y-99064575D01*
X135008948Y-99053028D01*
X135056604Y-98954664D01*
X135056604Y-98954663D01*
X135060517Y-98946587D01*
X135082269Y-98817298D01*
X135082407Y-98806000D01*
X135063821Y-98676218D01*
X135040983Y-98625989D01*
X135013273Y-98565043D01*
X135013271Y-98565040D01*
X135009556Y-98556869D01*
X134923975Y-98457547D01*
X134921344Y-98455842D01*
X134884740Y-98398468D01*
X134884975Y-98327471D01*
X134923556Y-98267873D01*
X134988235Y-98238594D01*
X135036609Y-98242552D01*
X135036642Y-98242347D01*
X135039240Y-98242768D01*
X135043324Y-98243102D01*
X135045500Y-98243782D01*
X135045503Y-98243783D01*
X135054070Y-98246459D01*
X135118505Y-98247640D01*
X135176178Y-98248697D01*
X135176181Y-98248697D01*
X135185154Y-98248861D01*
X135226547Y-98237576D01*
X135302982Y-98216738D01*
X135302985Y-98216737D01*
X135311644Y-98214376D01*
X135335133Y-98199954D01*
X135415719Y-98150475D01*
X135415722Y-98150472D01*
X135423371Y-98145776D01*
X135511353Y-98048575D01*
X135522225Y-98026136D01*
X135564604Y-97938664D01*
X135564604Y-97938663D01*
X135568517Y-97930587D01*
X135590269Y-97801298D01*
X135590407Y-97790000D01*
X135574657Y-97680019D01*
X135573094Y-97669104D01*
X135573093Y-97669101D01*
X135571821Y-97660218D01*
X135565665Y-97646678D01*
X135521273Y-97549043D01*
X135521271Y-97549040D01*
X135517556Y-97540869D01*
X135431975Y-97441547D01*
X135416731Y-97431666D01*
X135329489Y-97375118D01*
X135329487Y-97375117D01*
X135321958Y-97370237D01*
X135196348Y-97332672D01*
X135187372Y-97332617D01*
X135187371Y-97332617D01*
X135132959Y-97332285D01*
X135065244Y-97331871D01*
X134939185Y-97367899D01*
X134931598Y-97372686D01*
X134931596Y-97372687D01*
X134899399Y-97393002D01*
X134828305Y-97437859D01*
X134741517Y-97536128D01*
X134685798Y-97654805D01*
X134684417Y-97663677D01*
X134667009Y-97775478D01*
X134667009Y-97775482D01*
X134665628Y-97784351D01*
X134666792Y-97793253D01*
X134666792Y-97793256D01*
X134667844Y-97801298D01*
X134682627Y-97914350D01*
X134735430Y-98034354D01*
X134819791Y-98134713D01*
X134827223Y-98139660D01*
X134864662Y-98199954D01*
X134863559Y-98270942D01*
X134824253Y-98330065D01*
X134759222Y-98358552D01*
X134707128Y-98354288D01*
X134696953Y-98351245D01*
X134696950Y-98351245D01*
X134688348Y-98348672D01*
X134679372Y-98348617D01*
X134679371Y-98348617D01*
X134624959Y-98348285D01*
X134557244Y-98347871D01*
X134431185Y-98383899D01*
X134423598Y-98388686D01*
X134423596Y-98388687D01*
X134365243Y-98425505D01*
X134320305Y-98453859D01*
X134233517Y-98552128D01*
X134229703Y-98560251D01*
X134229702Y-98560253D01*
X134207963Y-98606555D01*
X134177798Y-98670805D01*
X134176417Y-98679677D01*
X134159009Y-98791478D01*
X134159009Y-98791482D01*
X134157628Y-98800351D01*
X131318000Y-98800351D01*
X131318000Y-96767028D01*
X136748283Y-96767028D01*
X136765836Y-96926026D01*
X136820809Y-97076246D01*
X136825046Y-97082552D01*
X136825048Y-97082555D01*
X136828492Y-97087680D01*
X136910028Y-97209017D01*
X137028341Y-97316675D01*
X137035018Y-97320300D01*
X137035019Y-97320301D01*
X137062543Y-97335245D01*
X137168920Y-97393002D01*
X137323647Y-97433594D01*
X137408033Y-97434920D01*
X137475993Y-97435988D01*
X137475996Y-97435988D01*
X137483590Y-97436107D01*
X137539334Y-97423340D01*
X137632113Y-97402091D01*
X137632117Y-97402090D01*
X137639516Y-97400395D01*
X137710617Y-97364635D01*
X137775640Y-97331933D01*
X137775643Y-97331931D01*
X137782423Y-97328521D01*
X137788195Y-97323592D01*
X137788197Y-97323590D01*
X137898288Y-97229563D01*
X137898289Y-97229562D01*
X137904060Y-97224633D01*
X137997405Y-97094729D01*
X138057069Y-96946310D01*
X138079608Y-96787942D01*
X138079754Y-96774000D01*
X138078911Y-96767028D01*
X138061449Y-96622735D01*
X138060537Y-96615195D01*
X138003994Y-96465559D01*
X137913389Y-96333729D01*
X137866274Y-96291751D01*
X137799627Y-96232370D01*
X137799624Y-96232368D01*
X137793955Y-96227317D01*
X137779919Y-96219885D01*
X137659297Y-96156019D01*
X137659298Y-96156019D01*
X137652585Y-96152465D01*
X137645220Y-96150615D01*
X137504812Y-96115347D01*
X137504808Y-96115347D01*
X137497441Y-96113496D01*
X137489841Y-96113456D01*
X137489840Y-96113456D01*
X137424147Y-96113112D01*
X137337480Y-96112658D01*
X137330100Y-96114430D01*
X137330098Y-96114430D01*
X137189317Y-96148229D01*
X137189315Y-96148230D01*
X137181937Y-96150001D01*
X137039791Y-96223368D01*
X137034069Y-96228360D01*
X137034067Y-96228361D01*
X136967196Y-96286697D01*
X136919248Y-96328524D01*
X136827269Y-96459397D01*
X136769162Y-96608434D01*
X136748283Y-96767028D01*
X131318000Y-96767028D01*
X131318000Y-95758000D01*
X130048000Y-94488000D01*
X126492000Y-94488000D01*
X125222000Y-95758000D01*
X125222000Y-99314000D01*
X124562230Y-99314000D01*
X124592235Y-99239360D01*
X124592235Y-99239359D01*
X124595069Y-99232310D01*
X124617608Y-99073942D01*
X124617754Y-99060000D01*
X124616911Y-99053028D01*
X124605666Y-98960107D01*
X124598537Y-98901195D01*
X124578281Y-98847590D01*
X124544678Y-98758661D01*
X124544677Y-98758658D01*
X124541994Y-98751559D01*
X124451389Y-98619729D01*
X124380837Y-98556869D01*
X124337627Y-98518370D01*
X124337624Y-98518368D01*
X124331955Y-98513317D01*
X124317919Y-98505885D01*
X124197297Y-98442019D01*
X124197298Y-98442019D01*
X124190585Y-98438465D01*
X124183220Y-98436615D01*
X124042812Y-98401347D01*
X124042808Y-98401347D01*
X124035441Y-98399496D01*
X124027841Y-98399456D01*
X124027840Y-98399456D01*
X123962147Y-98399112D01*
X123875480Y-98398658D01*
X123868100Y-98400430D01*
X123868098Y-98400430D01*
X123727317Y-98434229D01*
X123727315Y-98434230D01*
X123719937Y-98436001D01*
X123577791Y-98509368D01*
X123572069Y-98514360D01*
X123572067Y-98514361D01*
X123531138Y-98550066D01*
X123457248Y-98614524D01*
X123423405Y-98662678D01*
X123373970Y-98733017D01*
X123365269Y-98745397D01*
X123307162Y-98894434D01*
X123306170Y-98901967D01*
X123306170Y-98901968D01*
X123287717Y-99042136D01*
X123286283Y-99053028D01*
X112014000Y-99053028D01*
X112014000Y-98291028D01*
X117444283Y-98291028D01*
X117461836Y-98450026D01*
X117516809Y-98600246D01*
X117521046Y-98606552D01*
X117521048Y-98606555D01*
X117558762Y-98662678D01*
X117606028Y-98733017D01*
X117724341Y-98840675D01*
X117864920Y-98917002D01*
X118019647Y-98957594D01*
X118104033Y-98958920D01*
X118171993Y-98959988D01*
X118171996Y-98959988D01*
X118179590Y-98960107D01*
X118239154Y-98946465D01*
X118328113Y-98926091D01*
X118328117Y-98926090D01*
X118335516Y-98924395D01*
X118409165Y-98887354D01*
X118471640Y-98855933D01*
X118471643Y-98855931D01*
X118478423Y-98852521D01*
X118484195Y-98847592D01*
X118484197Y-98847590D01*
X118594288Y-98753563D01*
X118594289Y-98753562D01*
X118600060Y-98748633D01*
X118661825Y-98662678D01*
X118688974Y-98624896D01*
X118688975Y-98624894D01*
X118693405Y-98618729D01*
X118720179Y-98552128D01*
X118750235Y-98477360D01*
X118750235Y-98477359D01*
X118753069Y-98470310D01*
X118775608Y-98311942D01*
X118775754Y-98298000D01*
X118774911Y-98291028D01*
X118757449Y-98146735D01*
X118756537Y-98139195D01*
X118751307Y-98125354D01*
X118702678Y-97996661D01*
X118702677Y-97996658D01*
X118699994Y-97989559D01*
X118609389Y-97857729D01*
X118551433Y-97806092D01*
X118495627Y-97756370D01*
X118495624Y-97756368D01*
X118489955Y-97751317D01*
X118475919Y-97743885D01*
X118355297Y-97680019D01*
X118355298Y-97680019D01*
X118348585Y-97676465D01*
X118341220Y-97674615D01*
X118200812Y-97639347D01*
X118200808Y-97639347D01*
X118193441Y-97637496D01*
X118185841Y-97637456D01*
X118185840Y-97637456D01*
X118120147Y-97637112D01*
X118033480Y-97636658D01*
X118026100Y-97638430D01*
X118026098Y-97638430D01*
X117885317Y-97672229D01*
X117885315Y-97672230D01*
X117877937Y-97674001D01*
X117735791Y-97747368D01*
X117730069Y-97752360D01*
X117730067Y-97752361D01*
X117703568Y-97775478D01*
X117615248Y-97852524D01*
X117523269Y-97983397D01*
X117465162Y-98132434D01*
X117464170Y-98139967D01*
X117464170Y-98139968D01*
X117450151Y-98246459D01*
X117444283Y-98291028D01*
X112014000Y-98291028D01*
X112014000Y-93973028D01*
X113888283Y-93973028D01*
X113905836Y-94132026D01*
X113960809Y-94282246D01*
X113965046Y-94288552D01*
X113965048Y-94288555D01*
X113968492Y-94293680D01*
X114050028Y-94415017D01*
X114168341Y-94522675D01*
X114308920Y-94599002D01*
X114463647Y-94639594D01*
X114548033Y-94640920D01*
X114615993Y-94641988D01*
X114615996Y-94641988D01*
X114623590Y-94642107D01*
X114679334Y-94629340D01*
X114772113Y-94608091D01*
X114772117Y-94608090D01*
X114779516Y-94606395D01*
X114850617Y-94570635D01*
X114915640Y-94537933D01*
X114915643Y-94537931D01*
X114922423Y-94534521D01*
X114928195Y-94529592D01*
X114928197Y-94529590D01*
X115038288Y-94435563D01*
X115038289Y-94435562D01*
X115044060Y-94430633D01*
X115137405Y-94300729D01*
X115197069Y-94152310D01*
X115219608Y-93993942D01*
X115219754Y-93980000D01*
X115218911Y-93973028D01*
X122524283Y-93973028D01*
X122541836Y-94132026D01*
X122596809Y-94282246D01*
X122601046Y-94288552D01*
X122601048Y-94288555D01*
X122604492Y-94293680D01*
X122686028Y-94415017D01*
X122804341Y-94522675D01*
X122944920Y-94599002D01*
X123099647Y-94639594D01*
X123184033Y-94640920D01*
X123251993Y-94641988D01*
X123251996Y-94641988D01*
X123259590Y-94642107D01*
X123315334Y-94629340D01*
X123408113Y-94608091D01*
X123408117Y-94608090D01*
X123415516Y-94606395D01*
X123486617Y-94570635D01*
X123551640Y-94537933D01*
X123551643Y-94537931D01*
X123558423Y-94534521D01*
X123564195Y-94529592D01*
X123564197Y-94529590D01*
X123674288Y-94435563D01*
X123674289Y-94435562D01*
X123680060Y-94430633D01*
X123773405Y-94300729D01*
X123833069Y-94152310D01*
X123855608Y-93993942D01*
X123855754Y-93980000D01*
X123854911Y-93973028D01*
X123837449Y-93828735D01*
X123836537Y-93821195D01*
X123779994Y-93671559D01*
X123689389Y-93539729D01*
X123642274Y-93497751D01*
X123575627Y-93438370D01*
X123575624Y-93438368D01*
X123569955Y-93433317D01*
X123555919Y-93425885D01*
X123435297Y-93362019D01*
X123435298Y-93362019D01*
X123428585Y-93358465D01*
X123421220Y-93356615D01*
X123280812Y-93321347D01*
X123280808Y-93321347D01*
X123273441Y-93319496D01*
X123265841Y-93319456D01*
X123265840Y-93319456D01*
X123200147Y-93319112D01*
X123113480Y-93318658D01*
X123106100Y-93320430D01*
X123106098Y-93320430D01*
X122965317Y-93354229D01*
X122965315Y-93354230D01*
X122957937Y-93356001D01*
X122815791Y-93429368D01*
X122810069Y-93434360D01*
X122810067Y-93434361D01*
X122743196Y-93492697D01*
X122695248Y-93534524D01*
X122603269Y-93665397D01*
X122545162Y-93814434D01*
X122524283Y-93973028D01*
X115218911Y-93973028D01*
X115201449Y-93828735D01*
X115200537Y-93821195D01*
X115143994Y-93671559D01*
X115053389Y-93539729D01*
X115006274Y-93497751D01*
X114939627Y-93438370D01*
X114939624Y-93438368D01*
X114933955Y-93433317D01*
X114919919Y-93425885D01*
X114799297Y-93362019D01*
X114799298Y-93362019D01*
X114792585Y-93358465D01*
X114785220Y-93356615D01*
X114644812Y-93321347D01*
X114644808Y-93321347D01*
X114637441Y-93319496D01*
X114629841Y-93319456D01*
X114629840Y-93319456D01*
X114564147Y-93319112D01*
X114477480Y-93318658D01*
X114470100Y-93320430D01*
X114470098Y-93320430D01*
X114329317Y-93354229D01*
X114329315Y-93354230D01*
X114321937Y-93356001D01*
X114179791Y-93429368D01*
X114174069Y-93434360D01*
X114174067Y-93434361D01*
X114107196Y-93492697D01*
X114059248Y-93534524D01*
X113967269Y-93665397D01*
X113909162Y-93814434D01*
X113888283Y-93973028D01*
X112014000Y-93973028D01*
X112014000Y-91434351D01*
X114091628Y-91434351D01*
X114092792Y-91443253D01*
X114092792Y-91443256D01*
X114094471Y-91456092D01*
X114108627Y-91564350D01*
X114161430Y-91684354D01*
X114245791Y-91784713D01*
X114253262Y-91789686D01*
X114253263Y-91789687D01*
X114269470Y-91800475D01*
X114354929Y-91857362D01*
X114444372Y-91885306D01*
X114471501Y-91893782D01*
X114471502Y-91893782D01*
X114480070Y-91896459D01*
X114544505Y-91897640D01*
X114602178Y-91898697D01*
X114602181Y-91898697D01*
X114611154Y-91898861D01*
X114652547Y-91887576D01*
X114728982Y-91866738D01*
X114728985Y-91866737D01*
X114737644Y-91864376D01*
X114749068Y-91857362D01*
X114841719Y-91800475D01*
X114841722Y-91800472D01*
X114849371Y-91795776D01*
X114937353Y-91698575D01*
X114948225Y-91676136D01*
X114990604Y-91588664D01*
X114990604Y-91588663D01*
X114994517Y-91580587D01*
X115016269Y-91451298D01*
X115016407Y-91440000D01*
X114997821Y-91310218D01*
X114991665Y-91296678D01*
X114947273Y-91199043D01*
X114947271Y-91199040D01*
X114943556Y-91190869D01*
X114937697Y-91184070D01*
X114937695Y-91184066D01*
X114902126Y-91142787D01*
X114900915Y-91141381D01*
X114871601Y-91076720D01*
X114881900Y-91006474D01*
X114902949Y-90974584D01*
X114937353Y-90936575D01*
X114942948Y-90925028D01*
X118206283Y-90925028D01*
X118223836Y-91084026D01*
X118278809Y-91234246D01*
X118283046Y-91240552D01*
X118283048Y-91240555D01*
X118313531Y-91285917D01*
X118368028Y-91367017D01*
X118486341Y-91474675D01*
X118493018Y-91478300D01*
X118493019Y-91478301D01*
X118499077Y-91481590D01*
X118626920Y-91551002D01*
X118781647Y-91591594D01*
X118866033Y-91592920D01*
X118933993Y-91593988D01*
X118933996Y-91593988D01*
X118941590Y-91594107D01*
X119000621Y-91580587D01*
X119090113Y-91560091D01*
X119090117Y-91560090D01*
X119097516Y-91558395D01*
X119168617Y-91522635D01*
X119233640Y-91489933D01*
X119233643Y-91489931D01*
X119240423Y-91486521D01*
X119246195Y-91481592D01*
X119246197Y-91481590D01*
X119356288Y-91387563D01*
X119356289Y-91387562D01*
X119362060Y-91382633D01*
X119423825Y-91296678D01*
X119450974Y-91258896D01*
X119450975Y-91258894D01*
X119455405Y-91252729D01*
X119482179Y-91186128D01*
X119512235Y-91111360D01*
X119512235Y-91111359D01*
X119515069Y-91104310D01*
X119526827Y-91021693D01*
X128010328Y-91021693D01*
X128011492Y-91030595D01*
X128011492Y-91030598D01*
X128012544Y-91038640D01*
X128027327Y-91151692D01*
X128080130Y-91271696D01*
X128164491Y-91372055D01*
X128171962Y-91377028D01*
X128171963Y-91377029D01*
X128187788Y-91387563D01*
X128273629Y-91444704D01*
X128310080Y-91456092D01*
X128390201Y-91481124D01*
X128390202Y-91481124D01*
X128398770Y-91483801D01*
X128463205Y-91484982D01*
X128520878Y-91486039D01*
X128520881Y-91486039D01*
X128529854Y-91486203D01*
X128590893Y-91469562D01*
X128647682Y-91454080D01*
X128647685Y-91454079D01*
X128656344Y-91451718D01*
X128663996Y-91447020D01*
X128760419Y-91387817D01*
X128760422Y-91387814D01*
X128768071Y-91383118D01*
X128856053Y-91285917D01*
X128866925Y-91263478D01*
X128909304Y-91176006D01*
X128909304Y-91176005D01*
X128913217Y-91167929D01*
X128934969Y-91038640D01*
X128935107Y-91027342D01*
X128927551Y-90974578D01*
X128920455Y-90925028D01*
X136747293Y-90925028D01*
X136764846Y-91084026D01*
X136819819Y-91234246D01*
X136824056Y-91240552D01*
X136824058Y-91240555D01*
X136854541Y-91285917D01*
X136909038Y-91367017D01*
X137027351Y-91474675D01*
X137034028Y-91478300D01*
X137034029Y-91478301D01*
X137040087Y-91481590D01*
X137167930Y-91551002D01*
X137322657Y-91591594D01*
X137407043Y-91592920D01*
X137475003Y-91593988D01*
X137475006Y-91593988D01*
X137482600Y-91594107D01*
X137541631Y-91580587D01*
X137631123Y-91560091D01*
X137631127Y-91560090D01*
X137638526Y-91558395D01*
X137709627Y-91522635D01*
X137774650Y-91489933D01*
X137774653Y-91489931D01*
X137781433Y-91486521D01*
X137787205Y-91481592D01*
X137787207Y-91481590D01*
X137897298Y-91387563D01*
X137897299Y-91387562D01*
X137903070Y-91382633D01*
X137964835Y-91296678D01*
X137991984Y-91258896D01*
X137991985Y-91258894D01*
X137996415Y-91252729D01*
X138023189Y-91186128D01*
X138053245Y-91111360D01*
X138053245Y-91111359D01*
X138056079Y-91104310D01*
X138078618Y-90945942D01*
X138078764Y-90932000D01*
X138077921Y-90925028D01*
X138060459Y-90780735D01*
X138059547Y-90773195D01*
X138054317Y-90759354D01*
X138005688Y-90630661D01*
X138005687Y-90630658D01*
X138003004Y-90623559D01*
X137912399Y-90491729D01*
X137841847Y-90428869D01*
X137798637Y-90390370D01*
X137798634Y-90390368D01*
X137792965Y-90385317D01*
X137778929Y-90377885D01*
X137674157Y-90322411D01*
X137651595Y-90310465D01*
X137643541Y-90308442D01*
X137503822Y-90273347D01*
X137503818Y-90273347D01*
X137496451Y-90271496D01*
X137488851Y-90271456D01*
X137488850Y-90271456D01*
X137423157Y-90271112D01*
X137336490Y-90270658D01*
X137329110Y-90272430D01*
X137329108Y-90272430D01*
X137188327Y-90306229D01*
X137188325Y-90306230D01*
X137180947Y-90308001D01*
X137038801Y-90381368D01*
X137033079Y-90386360D01*
X137033077Y-90386361D01*
X136992148Y-90422066D01*
X136918258Y-90486524D01*
X136884415Y-90534678D01*
X136836556Y-90602775D01*
X136826279Y-90617397D01*
X136768172Y-90766434D01*
X136767180Y-90773967D01*
X136767180Y-90773968D01*
X136748727Y-90914136D01*
X136747293Y-90925028D01*
X128920455Y-90925028D01*
X128917794Y-90906446D01*
X128917793Y-90906443D01*
X128916521Y-90897560D01*
X128910365Y-90884020D01*
X128865973Y-90786385D01*
X128865971Y-90786382D01*
X128862256Y-90778211D01*
X128776675Y-90678889D01*
X128702269Y-90630661D01*
X128674189Y-90612460D01*
X128674187Y-90612459D01*
X128666658Y-90607579D01*
X128541048Y-90570014D01*
X128532072Y-90569959D01*
X128532071Y-90569959D01*
X128477659Y-90569627D01*
X128409944Y-90569213D01*
X128283885Y-90605241D01*
X128276298Y-90610028D01*
X128276296Y-90610029D01*
X128217943Y-90646847D01*
X128173005Y-90675201D01*
X128086217Y-90773470D01*
X128082403Y-90781593D01*
X128082402Y-90781595D01*
X128061242Y-90826664D01*
X128030498Y-90892147D01*
X128024838Y-90928499D01*
X128011709Y-91012820D01*
X128011709Y-91012824D01*
X128010328Y-91021693D01*
X119526827Y-91021693D01*
X119537608Y-90945942D01*
X119537754Y-90932000D01*
X119536911Y-90925028D01*
X119519449Y-90780735D01*
X119518537Y-90773195D01*
X119513307Y-90759354D01*
X119464678Y-90630661D01*
X119464677Y-90630658D01*
X119461994Y-90623559D01*
X119371389Y-90491729D01*
X119300837Y-90428869D01*
X119257627Y-90390370D01*
X119257624Y-90390368D01*
X119251955Y-90385317D01*
X119237919Y-90377885D01*
X119133147Y-90322411D01*
X119110585Y-90310465D01*
X119102947Y-90308547D01*
X119102770Y-90308442D01*
X119096124Y-90305891D01*
X119096549Y-90304784D01*
X119041751Y-90272554D01*
X119009728Y-90209190D01*
X119017046Y-90138572D01*
X119061381Y-90083120D01*
X119067711Y-90078967D01*
X119159719Y-90022475D01*
X119159722Y-90022472D01*
X119167371Y-90017776D01*
X119205475Y-89975680D01*
X119249328Y-89927231D01*
X119255353Y-89920575D01*
X119266225Y-89898136D01*
X119308604Y-89810664D01*
X119308604Y-89810663D01*
X119312517Y-89802587D01*
X119334269Y-89673298D01*
X119334407Y-89662000D01*
X119333408Y-89655028D01*
X126080283Y-89655028D01*
X126097836Y-89814026D01*
X126152809Y-89964246D01*
X126157046Y-89970552D01*
X126157048Y-89970555D01*
X126198073Y-90031605D01*
X126242028Y-90097017D01*
X126360341Y-90204675D01*
X126367018Y-90208300D01*
X126367019Y-90208301D01*
X126394543Y-90223245D01*
X126500920Y-90281002D01*
X126655647Y-90321594D01*
X126740033Y-90322920D01*
X126807993Y-90323988D01*
X126807996Y-90323988D01*
X126815590Y-90324107D01*
X126883227Y-90308616D01*
X126964113Y-90290091D01*
X126964117Y-90290090D01*
X126971516Y-90288395D01*
X127042617Y-90252635D01*
X127107640Y-90219933D01*
X127107643Y-90219931D01*
X127114423Y-90216521D01*
X127120195Y-90211592D01*
X127120197Y-90211590D01*
X127230288Y-90117563D01*
X127230289Y-90117562D01*
X127236060Y-90112633D01*
X127300845Y-90022475D01*
X127324974Y-89988896D01*
X127324975Y-89988894D01*
X127329405Y-89982729D01*
X127357346Y-89913225D01*
X127386235Y-89841360D01*
X127386235Y-89841359D01*
X127389069Y-89834310D01*
X127411608Y-89675942D01*
X127411754Y-89662000D01*
X127411172Y-89657183D01*
X127399666Y-89562107D01*
X127392537Y-89503195D01*
X127372281Y-89449590D01*
X127338678Y-89360661D01*
X127338677Y-89360658D01*
X127335994Y-89353559D01*
X127245389Y-89221729D01*
X127198274Y-89179751D01*
X127131627Y-89120370D01*
X127131624Y-89120368D01*
X127125955Y-89115317D01*
X127111919Y-89107885D01*
X126991297Y-89044019D01*
X126991298Y-89044019D01*
X126984585Y-89040465D01*
X126977220Y-89038615D01*
X126836812Y-89003347D01*
X126836808Y-89003347D01*
X126829441Y-89001496D01*
X126821841Y-89001456D01*
X126821840Y-89001456D01*
X126756147Y-89001112D01*
X126669480Y-89000658D01*
X126662100Y-89002430D01*
X126662098Y-89002430D01*
X126521317Y-89036229D01*
X126521315Y-89036230D01*
X126513937Y-89038001D01*
X126371791Y-89111368D01*
X126366069Y-89116360D01*
X126366067Y-89116361D01*
X126299196Y-89174697D01*
X126251248Y-89216524D01*
X126236553Y-89237433D01*
X126167970Y-89335017D01*
X126159269Y-89347397D01*
X126101162Y-89496434D01*
X126100170Y-89503967D01*
X126100170Y-89503968D01*
X126095996Y-89535677D01*
X126080283Y-89655028D01*
X119333408Y-89655028D01*
X119329286Y-89626245D01*
X119317094Y-89541104D01*
X119317093Y-89541101D01*
X119315821Y-89532218D01*
X119306053Y-89510735D01*
X119265273Y-89421043D01*
X119265271Y-89421040D01*
X119261556Y-89412869D01*
X119175975Y-89313547D01*
X119162895Y-89305069D01*
X119073489Y-89247118D01*
X119073487Y-89247117D01*
X119065958Y-89242237D01*
X118940348Y-89204672D01*
X118931372Y-89204617D01*
X118931371Y-89204617D01*
X118876959Y-89204285D01*
X118809244Y-89203871D01*
X118683185Y-89239899D01*
X118675598Y-89244686D01*
X118675596Y-89244687D01*
X118617243Y-89281505D01*
X118572305Y-89309859D01*
X118566363Y-89316587D01*
X118544643Y-89341180D01*
X118485517Y-89408128D01*
X118481703Y-89416251D01*
X118481702Y-89416253D01*
X118463735Y-89454521D01*
X118429798Y-89526805D01*
X118428417Y-89535677D01*
X118411009Y-89647478D01*
X118411009Y-89647482D01*
X118409628Y-89656351D01*
X118410792Y-89665253D01*
X118410792Y-89665256D01*
X118418127Y-89721350D01*
X118426627Y-89786350D01*
X118479430Y-89906354D01*
X118563791Y-90006713D01*
X118571262Y-90011686D01*
X118571263Y-90011687D01*
X118672929Y-90079362D01*
X118671617Y-90081333D01*
X118714931Y-90120150D01*
X118733792Y-90188595D01*
X118712656Y-90256372D01*
X118651730Y-90304589D01*
X118647324Y-90306228D01*
X118639937Y-90308001D01*
X118633189Y-90311484D01*
X118633186Y-90311485D01*
X118504539Y-90377885D01*
X118497791Y-90381368D01*
X118492069Y-90386360D01*
X118492067Y-90386361D01*
X118451138Y-90422066D01*
X118377248Y-90486524D01*
X118343405Y-90534678D01*
X118295546Y-90602775D01*
X118285269Y-90617397D01*
X118227162Y-90766434D01*
X118226170Y-90773967D01*
X118226170Y-90773968D01*
X118207717Y-90914136D01*
X118206283Y-90925028D01*
X114942948Y-90925028D01*
X114990604Y-90826664D01*
X114990604Y-90826663D01*
X114994517Y-90818587D01*
X115016269Y-90689298D01*
X115016407Y-90678000D01*
X115001181Y-90571680D01*
X114999094Y-90557104D01*
X114999093Y-90557101D01*
X114997821Y-90548218D01*
X114972137Y-90491729D01*
X114947273Y-90437043D01*
X114947271Y-90437040D01*
X114943556Y-90428869D01*
X114857975Y-90329547D01*
X114842731Y-90319666D01*
X114755489Y-90263118D01*
X114755487Y-90263117D01*
X114747958Y-90258237D01*
X114622348Y-90220672D01*
X114613372Y-90220617D01*
X114613371Y-90220617D01*
X114558959Y-90220285D01*
X114491244Y-90219871D01*
X114365185Y-90255899D01*
X114357598Y-90260686D01*
X114357596Y-90260687D01*
X114325399Y-90281002D01*
X114254305Y-90325859D01*
X114167517Y-90424128D01*
X114111798Y-90542805D01*
X114107678Y-90569268D01*
X114093009Y-90663478D01*
X114093009Y-90663482D01*
X114091628Y-90672351D01*
X114092792Y-90681253D01*
X114092792Y-90681256D01*
X114093372Y-90685691D01*
X114108627Y-90802350D01*
X114161430Y-90922354D01*
X114170024Y-90932578D01*
X114208140Y-90977922D01*
X114236661Y-91042938D01*
X114225505Y-91113053D01*
X114206131Y-91142405D01*
X114190670Y-91159912D01*
X114167517Y-91186128D01*
X114163703Y-91194251D01*
X114163702Y-91194253D01*
X114141963Y-91240555D01*
X114111798Y-91304805D01*
X114110417Y-91313677D01*
X114093009Y-91425478D01*
X114093009Y-91425482D01*
X114091628Y-91434351D01*
X112014000Y-91434351D01*
X112014000Y-88893028D01*
X116174283Y-88893028D01*
X116191836Y-89052026D01*
X116246809Y-89202246D01*
X116251046Y-89208552D01*
X116251048Y-89208555D01*
X116270454Y-89237433D01*
X116336028Y-89335017D01*
X116454341Y-89442675D01*
X116594920Y-89519002D01*
X116749647Y-89559594D01*
X116834033Y-89560920D01*
X116901993Y-89561988D01*
X116901996Y-89561988D01*
X116909590Y-89562107D01*
X116965334Y-89549340D01*
X117058113Y-89528091D01*
X117058117Y-89528090D01*
X117065516Y-89526395D01*
X117139165Y-89489354D01*
X117201640Y-89457933D01*
X117201643Y-89457931D01*
X117208423Y-89454521D01*
X117214195Y-89449592D01*
X117214197Y-89449590D01*
X117324288Y-89355563D01*
X117324289Y-89355562D01*
X117330060Y-89350633D01*
X117409630Y-89239899D01*
X117418974Y-89226896D01*
X117418975Y-89226894D01*
X117423405Y-89220729D01*
X117467210Y-89111762D01*
X117480235Y-89079360D01*
X117480235Y-89079359D01*
X117483069Y-89072310D01*
X117505608Y-88913942D01*
X117505754Y-88900000D01*
X117504911Y-88893028D01*
X117487449Y-88748735D01*
X117486537Y-88741195D01*
X117481307Y-88727354D01*
X117432678Y-88598661D01*
X117432677Y-88598658D01*
X117429994Y-88591559D01*
X117339389Y-88459729D01*
X117281433Y-88408092D01*
X117257032Y-88386351D01*
X126842928Y-88386351D01*
X126844092Y-88395253D01*
X126844092Y-88395256D01*
X126845144Y-88403298D01*
X126859927Y-88516350D01*
X126912730Y-88636354D01*
X126997091Y-88736713D01*
X127004562Y-88741686D01*
X127004563Y-88741687D01*
X127015151Y-88748735D01*
X127106229Y-88809362D01*
X127195672Y-88837306D01*
X127222801Y-88845782D01*
X127222802Y-88845782D01*
X127231370Y-88848459D01*
X127295805Y-88849640D01*
X127353478Y-88850697D01*
X127353481Y-88850697D01*
X127362454Y-88850861D01*
X127403847Y-88839576D01*
X127480282Y-88818738D01*
X127480285Y-88818737D01*
X127488944Y-88816376D01*
X127500368Y-88809362D01*
X127593019Y-88752475D01*
X127593022Y-88752472D01*
X127600671Y-88747776D01*
X127688653Y-88650575D01*
X127699525Y-88628136D01*
X127741904Y-88540664D01*
X127741904Y-88540663D01*
X127745817Y-88532587D01*
X127767569Y-88403298D01*
X127767707Y-88392000D01*
X127751957Y-88282019D01*
X127750394Y-88271104D01*
X127750393Y-88271101D01*
X127749121Y-88262218D01*
X127742965Y-88248678D01*
X127698573Y-88151043D01*
X127698571Y-88151040D01*
X127694856Y-88142869D01*
X127609275Y-88043547D01*
X127596195Y-88035069D01*
X127506789Y-87977118D01*
X127506787Y-87977117D01*
X127499258Y-87972237D01*
X127373648Y-87934672D01*
X127364672Y-87934617D01*
X127364671Y-87934617D01*
X127310259Y-87934285D01*
X127242544Y-87933871D01*
X127116485Y-87969899D01*
X127108898Y-87974686D01*
X127108896Y-87974687D01*
X127050543Y-88011505D01*
X127005605Y-88039859D01*
X126918817Y-88138128D01*
X126863098Y-88256805D01*
X126861717Y-88265677D01*
X126844309Y-88377478D01*
X126844309Y-88377482D01*
X126842928Y-88386351D01*
X117257032Y-88386351D01*
X117225627Y-88358370D01*
X117225624Y-88358368D01*
X117219955Y-88353317D01*
X117205919Y-88345885D01*
X117085297Y-88282019D01*
X117085298Y-88282019D01*
X117078585Y-88278465D01*
X117071220Y-88276615D01*
X116930812Y-88241347D01*
X116930808Y-88241347D01*
X116923441Y-88239496D01*
X116915841Y-88239456D01*
X116915840Y-88239456D01*
X116850147Y-88239112D01*
X116763480Y-88238658D01*
X116756100Y-88240430D01*
X116756098Y-88240430D01*
X116615317Y-88274229D01*
X116615315Y-88274230D01*
X116607937Y-88276001D01*
X116465791Y-88349368D01*
X116460069Y-88354360D01*
X116460067Y-88354361D01*
X116433568Y-88377478D01*
X116345248Y-88454524D01*
X116253269Y-88585397D01*
X116195162Y-88734434D01*
X116194170Y-88741967D01*
X116194170Y-88741968D01*
X116180151Y-88848459D01*
X116174283Y-88893028D01*
X112014000Y-88893028D01*
X112014000Y-87115028D01*
X118206283Y-87115028D01*
X118223836Y-87274026D01*
X118278809Y-87424246D01*
X118283046Y-87430552D01*
X118283048Y-87430555D01*
X118324073Y-87491605D01*
X118368028Y-87557017D01*
X118486341Y-87664675D01*
X118626920Y-87741002D01*
X118781647Y-87781594D01*
X118866033Y-87782920D01*
X118933993Y-87783988D01*
X118933996Y-87783988D01*
X118941590Y-87784107D01*
X118997334Y-87771340D01*
X119090113Y-87750091D01*
X119090117Y-87750090D01*
X119097516Y-87748395D01*
X119168617Y-87712635D01*
X119233640Y-87679933D01*
X119233643Y-87679931D01*
X119240423Y-87676521D01*
X119246195Y-87671592D01*
X119246197Y-87671590D01*
X119356288Y-87577563D01*
X119356289Y-87577562D01*
X119362060Y-87572633D01*
X119426845Y-87482475D01*
X119450974Y-87448896D01*
X119450975Y-87448894D01*
X119455405Y-87442729D01*
X119483346Y-87373225D01*
X119512235Y-87301360D01*
X119512235Y-87301359D01*
X119515069Y-87294310D01*
X119537608Y-87135942D01*
X119537754Y-87122000D01*
X119537172Y-87117183D01*
X119537071Y-87116351D01*
X127553628Y-87116351D01*
X127554792Y-87125253D01*
X127554792Y-87125256D01*
X127562127Y-87181350D01*
X127570627Y-87246350D01*
X127623430Y-87366354D01*
X127707791Y-87466713D01*
X127715262Y-87471686D01*
X127715263Y-87471687D01*
X127731470Y-87482475D01*
X127816929Y-87539362D01*
X127903693Y-87566469D01*
X127933501Y-87575782D01*
X127933502Y-87575782D01*
X127942070Y-87578459D01*
X128006505Y-87579640D01*
X128064178Y-87580697D01*
X128064181Y-87580697D01*
X128073154Y-87580861D01*
X128114547Y-87569576D01*
X128190982Y-87548738D01*
X128190985Y-87548737D01*
X128199644Y-87546376D01*
X128211068Y-87539362D01*
X128303719Y-87482475D01*
X128303722Y-87482472D01*
X128311371Y-87477776D01*
X128349475Y-87435680D01*
X128393328Y-87387231D01*
X128399353Y-87380575D01*
X128410225Y-87358136D01*
X128452604Y-87270664D01*
X128452604Y-87270663D01*
X128456517Y-87262587D01*
X128478269Y-87133298D01*
X128478407Y-87122000D01*
X128459821Y-86992218D01*
X128450053Y-86970735D01*
X128409273Y-86881043D01*
X128409271Y-86881040D01*
X128405556Y-86872869D01*
X128319975Y-86773547D01*
X128306895Y-86765069D01*
X128217489Y-86707118D01*
X128217487Y-86707117D01*
X128209958Y-86702237D01*
X128084348Y-86664672D01*
X128075372Y-86664617D01*
X128075371Y-86664617D01*
X128020959Y-86664285D01*
X127953244Y-86663871D01*
X127827185Y-86699899D01*
X127819598Y-86704686D01*
X127819596Y-86704687D01*
X127761243Y-86741505D01*
X127716305Y-86769859D01*
X127629517Y-86868128D01*
X127573798Y-86986805D01*
X127572417Y-86995677D01*
X127555009Y-87107478D01*
X127555009Y-87107482D01*
X127553628Y-87116351D01*
X119537071Y-87116351D01*
X119523124Y-87001104D01*
X119518537Y-86963195D01*
X119485684Y-86876253D01*
X119464678Y-86820661D01*
X119464677Y-86820658D01*
X119461994Y-86813559D01*
X119371389Y-86681729D01*
X119324274Y-86639751D01*
X119257627Y-86580370D01*
X119257624Y-86580368D01*
X119251955Y-86575317D01*
X119237919Y-86567885D01*
X119117297Y-86504019D01*
X119117298Y-86504019D01*
X119110585Y-86500465D01*
X119103220Y-86498615D01*
X118962812Y-86463347D01*
X118962808Y-86463347D01*
X118955441Y-86461496D01*
X118947841Y-86461456D01*
X118947840Y-86461456D01*
X118882147Y-86461112D01*
X118795480Y-86460658D01*
X118788100Y-86462430D01*
X118788098Y-86462430D01*
X118647317Y-86496229D01*
X118647315Y-86496230D01*
X118639937Y-86498001D01*
X118497791Y-86571368D01*
X118492069Y-86576360D01*
X118492067Y-86576361D01*
X118425196Y-86634697D01*
X118377248Y-86676524D01*
X118362553Y-86697433D01*
X118304279Y-86780349D01*
X118285269Y-86807397D01*
X118227162Y-86956434D01*
X118226170Y-86963967D01*
X118226170Y-86963968D01*
X118221996Y-86995677D01*
X118206283Y-87115028D01*
X112014000Y-87115028D01*
X112014000Y-85846351D01*
X127807628Y-85846351D01*
X127808792Y-85855253D01*
X127808792Y-85855256D01*
X127809844Y-85863298D01*
X127824627Y-85976350D01*
X127877430Y-86096354D01*
X127961791Y-86196713D01*
X127969262Y-86201686D01*
X127969263Y-86201687D01*
X127985470Y-86212475D01*
X128070929Y-86269362D01*
X128160372Y-86297306D01*
X128187501Y-86305782D01*
X128187502Y-86305782D01*
X128196070Y-86308459D01*
X128260505Y-86309640D01*
X128318178Y-86310697D01*
X128318181Y-86310697D01*
X128327154Y-86310861D01*
X128368547Y-86299576D01*
X128444982Y-86278738D01*
X128444985Y-86278737D01*
X128453644Y-86276376D01*
X128465068Y-86269362D01*
X128557719Y-86212475D01*
X128557722Y-86212472D01*
X128565371Y-86207776D01*
X128653353Y-86110575D01*
X128664225Y-86088136D01*
X128706604Y-86000664D01*
X128706604Y-86000663D01*
X128710517Y-85992587D01*
X128732269Y-85863298D01*
X128732407Y-85852000D01*
X128725026Y-85800459D01*
X128715094Y-85731104D01*
X128715093Y-85731101D01*
X128713821Y-85722218D01*
X128700849Y-85693687D01*
X128663273Y-85611043D01*
X128663271Y-85611040D01*
X128659556Y-85602869D01*
X128573975Y-85503547D01*
X128519673Y-85468350D01*
X128471489Y-85437118D01*
X128471487Y-85437117D01*
X128463958Y-85432237D01*
X128338348Y-85394672D01*
X128329372Y-85394617D01*
X128329371Y-85394617D01*
X128274959Y-85394285D01*
X128207244Y-85393871D01*
X128081185Y-85429899D01*
X128073598Y-85434686D01*
X128073596Y-85434687D01*
X128034357Y-85459445D01*
X127970305Y-85499859D01*
X127883517Y-85598128D01*
X127827798Y-85716805D01*
X127826417Y-85725677D01*
X127809009Y-85837478D01*
X127809009Y-85837482D01*
X127807628Y-85846351D01*
X112014000Y-85846351D01*
X112014000Y-85338351D01*
X116377628Y-85338351D01*
X116378792Y-85347253D01*
X116378792Y-85347256D01*
X116385329Y-85397245D01*
X116394627Y-85468350D01*
X116447430Y-85588354D01*
X116531791Y-85688713D01*
X116539262Y-85693686D01*
X116539263Y-85693687D01*
X116555470Y-85704475D01*
X116640929Y-85761362D01*
X116730372Y-85789306D01*
X116757501Y-85797782D01*
X116757502Y-85797782D01*
X116766070Y-85800459D01*
X116830505Y-85801640D01*
X116888178Y-85802697D01*
X116888181Y-85802697D01*
X116897154Y-85802861D01*
X116938547Y-85791576D01*
X117014982Y-85770738D01*
X117014985Y-85770737D01*
X117023644Y-85768376D01*
X117035068Y-85761362D01*
X117127719Y-85704475D01*
X117127722Y-85704472D01*
X117135371Y-85699776D01*
X117223353Y-85602575D01*
X117234225Y-85580136D01*
X117276604Y-85492664D01*
X117276604Y-85492663D01*
X117280517Y-85484587D01*
X117302269Y-85355298D01*
X117302407Y-85344000D01*
X117297286Y-85308245D01*
X117285094Y-85223104D01*
X117285093Y-85223101D01*
X117283821Y-85214218D01*
X117276163Y-85197375D01*
X117233273Y-85103043D01*
X117233271Y-85103040D01*
X117229556Y-85094869D01*
X117143975Y-84995547D01*
X117130895Y-84987069D01*
X117041489Y-84929118D01*
X117041487Y-84929117D01*
X117033958Y-84924237D01*
X116908348Y-84886672D01*
X116899372Y-84886617D01*
X116899371Y-84886617D01*
X116844959Y-84886285D01*
X116777244Y-84885871D01*
X116651185Y-84921899D01*
X116643598Y-84926686D01*
X116643596Y-84926687D01*
X116585243Y-84963505D01*
X116540305Y-84991859D01*
X116534363Y-84998587D01*
X116509739Y-85026469D01*
X116453517Y-85090128D01*
X116449703Y-85098251D01*
X116449702Y-85098253D01*
X116431735Y-85136521D01*
X116397798Y-85208805D01*
X116396417Y-85217677D01*
X116379009Y-85329478D01*
X116379009Y-85329482D01*
X116377628Y-85338351D01*
X112014000Y-85338351D01*
X112014000Y-84575028D01*
X118206283Y-84575028D01*
X118223836Y-84734026D01*
X118278809Y-84884246D01*
X118283046Y-84890552D01*
X118283048Y-84890555D01*
X118286492Y-84895680D01*
X118368028Y-85017017D01*
X118486341Y-85124675D01*
X118626920Y-85201002D01*
X118781647Y-85241594D01*
X118866033Y-85242920D01*
X118933993Y-85243988D01*
X118933996Y-85243988D01*
X118941590Y-85244107D01*
X118997334Y-85231340D01*
X119090113Y-85210091D01*
X119090117Y-85210090D01*
X119097516Y-85208395D01*
X119168617Y-85172635D01*
X119233640Y-85139933D01*
X119233643Y-85139931D01*
X119240423Y-85136521D01*
X119246195Y-85131592D01*
X119246197Y-85131590D01*
X119356288Y-85037563D01*
X119356289Y-85037562D01*
X119362060Y-85032633D01*
X119441630Y-84921899D01*
X119450974Y-84908896D01*
X119450975Y-84908894D01*
X119455405Y-84902729D01*
X119515069Y-84754310D01*
X119537608Y-84595942D01*
X119537754Y-84582000D01*
X119536911Y-84575028D01*
X126334283Y-84575028D01*
X126351836Y-84734026D01*
X126406809Y-84884246D01*
X126411046Y-84890552D01*
X126411048Y-84890555D01*
X126414492Y-84895680D01*
X126496028Y-85017017D01*
X126614341Y-85124675D01*
X126754920Y-85201002D01*
X126909647Y-85241594D01*
X126994033Y-85242920D01*
X127061993Y-85243988D01*
X127061996Y-85243988D01*
X127069590Y-85244107D01*
X127125334Y-85231340D01*
X127218113Y-85210091D01*
X127218117Y-85210090D01*
X127225516Y-85208395D01*
X127296617Y-85172635D01*
X127361640Y-85139933D01*
X127361643Y-85139931D01*
X127368423Y-85136521D01*
X127374195Y-85131592D01*
X127374197Y-85131590D01*
X127484288Y-85037563D01*
X127484289Y-85037562D01*
X127490060Y-85032633D01*
X127569630Y-84921899D01*
X127578974Y-84908896D01*
X127578975Y-84908894D01*
X127583405Y-84902729D01*
X127643069Y-84754310D01*
X127665608Y-84595942D01*
X127665754Y-84582000D01*
X127664911Y-84575028D01*
X127647449Y-84430735D01*
X127646537Y-84423195D01*
X127589994Y-84273559D01*
X127499389Y-84141729D01*
X127452274Y-84099751D01*
X127385627Y-84040370D01*
X127385624Y-84040368D01*
X127379955Y-84035317D01*
X127365919Y-84027885D01*
X127261147Y-83972411D01*
X127238585Y-83960465D01*
X127230531Y-83958442D01*
X127090812Y-83923347D01*
X127090808Y-83923347D01*
X127083441Y-83921496D01*
X127075841Y-83921456D01*
X127075840Y-83921456D01*
X127010147Y-83921112D01*
X126923480Y-83920658D01*
X126916100Y-83922430D01*
X126916098Y-83922430D01*
X126775317Y-83956229D01*
X126775315Y-83956230D01*
X126767937Y-83958001D01*
X126625791Y-84031368D01*
X126620069Y-84036360D01*
X126620067Y-84036361D01*
X126553196Y-84094697D01*
X126505248Y-84136524D01*
X126413269Y-84267397D01*
X126355162Y-84416434D01*
X126334283Y-84575028D01*
X119536911Y-84575028D01*
X119519449Y-84430735D01*
X119518537Y-84423195D01*
X119461994Y-84273559D01*
X119371389Y-84141729D01*
X119324274Y-84099751D01*
X119257627Y-84040370D01*
X119257624Y-84040368D01*
X119251955Y-84035317D01*
X119237919Y-84027885D01*
X119133147Y-83972411D01*
X119110585Y-83960465D01*
X119102947Y-83958547D01*
X119102770Y-83958442D01*
X119096124Y-83955891D01*
X119096549Y-83954784D01*
X119041751Y-83922554D01*
X119009728Y-83859190D01*
X119017046Y-83788572D01*
X119061381Y-83733120D01*
X119067711Y-83728967D01*
X119159719Y-83672475D01*
X119159722Y-83672472D01*
X119167371Y-83667776D01*
X119205475Y-83625680D01*
X119249328Y-83577231D01*
X119255353Y-83570575D01*
X119266225Y-83548136D01*
X119308604Y-83460664D01*
X119308604Y-83460663D01*
X119312517Y-83452587D01*
X119334269Y-83323298D01*
X119334407Y-83312000D01*
X119333409Y-83305028D01*
X136747293Y-83305028D01*
X136764846Y-83464026D01*
X136819819Y-83614246D01*
X136824056Y-83620552D01*
X136824058Y-83620555D01*
X136865083Y-83681605D01*
X136909038Y-83747017D01*
X137027351Y-83854675D01*
X137034028Y-83858300D01*
X137034029Y-83858301D01*
X137040087Y-83861590D01*
X137167930Y-83931002D01*
X137322657Y-83971594D01*
X137407043Y-83972920D01*
X137475003Y-83973988D01*
X137475006Y-83973988D01*
X137482600Y-83974107D01*
X137550237Y-83958616D01*
X137631123Y-83940091D01*
X137631127Y-83940090D01*
X137638526Y-83938395D01*
X137709627Y-83902635D01*
X137774650Y-83869933D01*
X137774653Y-83869931D01*
X137781433Y-83866521D01*
X137787205Y-83861592D01*
X137787207Y-83861590D01*
X137897298Y-83767563D01*
X137897299Y-83767562D01*
X137903070Y-83762633D01*
X137967855Y-83672475D01*
X137991984Y-83638896D01*
X137991985Y-83638894D01*
X137996415Y-83632729D01*
X138024356Y-83563225D01*
X138053245Y-83491360D01*
X138053245Y-83491359D01*
X138056079Y-83484310D01*
X138078618Y-83325942D01*
X138078764Y-83312000D01*
X138078182Y-83307183D01*
X138064134Y-83191104D01*
X138059547Y-83153195D01*
X138026694Y-83066253D01*
X138005688Y-83010661D01*
X138005687Y-83010658D01*
X138003004Y-83003559D01*
X137912399Y-82871729D01*
X137841517Y-82808575D01*
X137798637Y-82770370D01*
X137798634Y-82770368D01*
X137792965Y-82765317D01*
X137778929Y-82757885D01*
X137658307Y-82694019D01*
X137658308Y-82694019D01*
X137651595Y-82690465D01*
X137644230Y-82688615D01*
X137503822Y-82653347D01*
X137503818Y-82653347D01*
X137496451Y-82651496D01*
X137488851Y-82651456D01*
X137488850Y-82651456D01*
X137423157Y-82651112D01*
X137336490Y-82650658D01*
X137329110Y-82652430D01*
X137329108Y-82652430D01*
X137188327Y-82686229D01*
X137188325Y-82686230D01*
X137180947Y-82688001D01*
X137038801Y-82761368D01*
X137033079Y-82766360D01*
X137033077Y-82766361D01*
X136993944Y-82800499D01*
X136918258Y-82866524D01*
X136903563Y-82887433D01*
X136845289Y-82970349D01*
X136826279Y-82997397D01*
X136768172Y-83146434D01*
X136767180Y-83153967D01*
X136767180Y-83153968D01*
X136763006Y-83185677D01*
X136747293Y-83305028D01*
X119333409Y-83305028D01*
X119315821Y-83182218D01*
X119306053Y-83160735D01*
X119265273Y-83071043D01*
X119265271Y-83071040D01*
X119261556Y-83062869D01*
X119175975Y-82963547D01*
X119076576Y-82899119D01*
X119073489Y-82897118D01*
X119073487Y-82897117D01*
X119065958Y-82892237D01*
X118940348Y-82854672D01*
X118931372Y-82854617D01*
X118931371Y-82854617D01*
X118876959Y-82854285D01*
X118809244Y-82853871D01*
X118683185Y-82889899D01*
X118675598Y-82894686D01*
X118675596Y-82894687D01*
X118668572Y-82899119D01*
X118572305Y-82959859D01*
X118485517Y-83058128D01*
X118429798Y-83176805D01*
X118428417Y-83185677D01*
X118411009Y-83297478D01*
X118411009Y-83297482D01*
X118409628Y-83306351D01*
X118410792Y-83315253D01*
X118410792Y-83315256D01*
X118418127Y-83371350D01*
X118426627Y-83436350D01*
X118479430Y-83556354D01*
X118563791Y-83656713D01*
X118571262Y-83661686D01*
X118571263Y-83661687D01*
X118672929Y-83729362D01*
X118671617Y-83731333D01*
X118714931Y-83770150D01*
X118733792Y-83838595D01*
X118712656Y-83906372D01*
X118651730Y-83954589D01*
X118647324Y-83956228D01*
X118639937Y-83958001D01*
X118633189Y-83961484D01*
X118633186Y-83961485D01*
X118504539Y-84027885D01*
X118497791Y-84031368D01*
X118492069Y-84036360D01*
X118492067Y-84036361D01*
X118425196Y-84094697D01*
X118377248Y-84136524D01*
X118285269Y-84267397D01*
X118227162Y-84416434D01*
X118206283Y-84575028D01*
X112014000Y-84575028D01*
X112014000Y-83121572D01*
X112034002Y-83053451D01*
X112087658Y-83006958D01*
X112157932Y-82996854D01*
X112177566Y-83001303D01*
X112194070Y-83006459D01*
X112258505Y-83007640D01*
X112316178Y-83008697D01*
X112316181Y-83008697D01*
X112325154Y-83008861D01*
X112369195Y-82996854D01*
X112442982Y-82976738D01*
X112442985Y-82976737D01*
X112451644Y-82974376D01*
X112469281Y-82963547D01*
X112555719Y-82910475D01*
X112555722Y-82910472D01*
X112563371Y-82905776D01*
X112573409Y-82894687D01*
X112645328Y-82815231D01*
X112651353Y-82808575D01*
X112671806Y-82766361D01*
X112704604Y-82698664D01*
X112704604Y-82698663D01*
X112708517Y-82690587D01*
X112730269Y-82561298D01*
X112730407Y-82550000D01*
X112711821Y-82420218D01*
X112657556Y-82300869D01*
X112571975Y-82201547D01*
X112521805Y-82169028D01*
X112469489Y-82135118D01*
X112469487Y-82135117D01*
X112461958Y-82130237D01*
X112336348Y-82092672D01*
X112327372Y-82092617D01*
X112327371Y-82092617D01*
X112272959Y-82092285D01*
X112205244Y-82091871D01*
X112174625Y-82100622D01*
X112103630Y-82100110D01*
X112044182Y-82061296D01*
X112015156Y-81996504D01*
X112014000Y-81979473D01*
X112014000Y-81243415D01*
X114822692Y-81243415D01*
X114823856Y-81252317D01*
X114823856Y-81252320D01*
X114824908Y-81260362D01*
X114839691Y-81373414D01*
X114892494Y-81493418D01*
X114976855Y-81593777D01*
X114984326Y-81598750D01*
X114984327Y-81598751D01*
X115000534Y-81609539D01*
X115085993Y-81666426D01*
X115175436Y-81694370D01*
X115202565Y-81702846D01*
X115202566Y-81702846D01*
X115211134Y-81705523D01*
X115275569Y-81706704D01*
X115333242Y-81707761D01*
X115333245Y-81707761D01*
X115342218Y-81707925D01*
X115383611Y-81696640D01*
X115460046Y-81675802D01*
X115460049Y-81675801D01*
X115468708Y-81673440D01*
X115480132Y-81666426D01*
X115572783Y-81609539D01*
X115572786Y-81609536D01*
X115580435Y-81604840D01*
X115668417Y-81507639D01*
X115679289Y-81485200D01*
X115721668Y-81397728D01*
X115721668Y-81397727D01*
X115725581Y-81389651D01*
X115747333Y-81260362D01*
X115747471Y-81249064D01*
X115728885Y-81119282D01*
X115674620Y-80999933D01*
X115589039Y-80900611D01*
X115575959Y-80892133D01*
X115486553Y-80834182D01*
X115486551Y-80834181D01*
X115479022Y-80829301D01*
X115353412Y-80791736D01*
X115344436Y-80791681D01*
X115344435Y-80791681D01*
X115290023Y-80791349D01*
X115222308Y-80790935D01*
X115096249Y-80826963D01*
X115088662Y-80831750D01*
X115088660Y-80831751D01*
X115030307Y-80868569D01*
X114985369Y-80896923D01*
X114898581Y-80995192D01*
X114842862Y-81113869D01*
X114841481Y-81122741D01*
X114824073Y-81234542D01*
X114824073Y-81234546D01*
X114822692Y-81243415D01*
X112014000Y-81243415D01*
X112014000Y-71876351D01*
X113837628Y-71876351D01*
X113838792Y-71885253D01*
X113838792Y-71885256D01*
X113839844Y-71893298D01*
X113854627Y-72006350D01*
X113907430Y-72126354D01*
X113991791Y-72226713D01*
X113999262Y-72231686D01*
X113999263Y-72231687D01*
X114015470Y-72242475D01*
X114100929Y-72299362D01*
X114190372Y-72327306D01*
X114217501Y-72335782D01*
X114217502Y-72335782D01*
X114226070Y-72338459D01*
X114290505Y-72339640D01*
X114348178Y-72340697D01*
X114348181Y-72340697D01*
X114357154Y-72340861D01*
X114398547Y-72329576D01*
X114474982Y-72308738D01*
X114474985Y-72308737D01*
X114483644Y-72306376D01*
X114495068Y-72299362D01*
X114587719Y-72242475D01*
X114587722Y-72242472D01*
X114595371Y-72237776D01*
X114683353Y-72140575D01*
X114694225Y-72118136D01*
X114736604Y-72030664D01*
X114736604Y-72030663D01*
X114740517Y-72022587D01*
X114762269Y-71893298D01*
X114762407Y-71882000D01*
X114743821Y-71752218D01*
X114737665Y-71738678D01*
X114693273Y-71641043D01*
X114693271Y-71641040D01*
X114689556Y-71632869D01*
X114603975Y-71533547D01*
X114590895Y-71525069D01*
X114501489Y-71467118D01*
X114501487Y-71467117D01*
X114493958Y-71462237D01*
X114368348Y-71424672D01*
X114359372Y-71424617D01*
X114359371Y-71424617D01*
X114304959Y-71424285D01*
X114237244Y-71423871D01*
X114111185Y-71459899D01*
X114103598Y-71464686D01*
X114103596Y-71464687D01*
X114045243Y-71501505D01*
X114000305Y-71529859D01*
X113913517Y-71628128D01*
X113909703Y-71636251D01*
X113909702Y-71636253D01*
X113900906Y-71654988D01*
X113857798Y-71746805D01*
X113856417Y-71755677D01*
X113839009Y-71867478D01*
X113839009Y-71867482D01*
X113837628Y-71876351D01*
X112014000Y-71876351D01*
X112014000Y-70606351D01*
X114345628Y-70606351D01*
X114346792Y-70615253D01*
X114346792Y-70615256D01*
X114347347Y-70619497D01*
X114362627Y-70736350D01*
X114415430Y-70856354D01*
X114499791Y-70956713D01*
X114507262Y-70961686D01*
X114507263Y-70961687D01*
X114523470Y-70972475D01*
X114608929Y-71029362D01*
X114698372Y-71057306D01*
X114725501Y-71065782D01*
X114725502Y-71065782D01*
X114734070Y-71068459D01*
X114798505Y-71069640D01*
X114856178Y-71070697D01*
X114856181Y-71070697D01*
X114865154Y-71070861D01*
X114906547Y-71059576D01*
X114982982Y-71038738D01*
X114982985Y-71038737D01*
X114991644Y-71036376D01*
X115003068Y-71029362D01*
X115073645Y-70986028D01*
X122397283Y-70986028D01*
X122414836Y-71145026D01*
X122469809Y-71295246D01*
X122474046Y-71301552D01*
X122474048Y-71301555D01*
X122477492Y-71306680D01*
X122559028Y-71428017D01*
X122677341Y-71535675D01*
X122684018Y-71539300D01*
X122684019Y-71539301D01*
X122690077Y-71542590D01*
X122817920Y-71612002D01*
X122972647Y-71652594D01*
X123057033Y-71653920D01*
X123124993Y-71654988D01*
X123124996Y-71654988D01*
X123132590Y-71655107D01*
X123193996Y-71641043D01*
X123281113Y-71621091D01*
X123281117Y-71621090D01*
X123288516Y-71619395D01*
X123359617Y-71583635D01*
X123424640Y-71550933D01*
X123424643Y-71550931D01*
X123431423Y-71547521D01*
X123437195Y-71542592D01*
X123437197Y-71542590D01*
X123547288Y-71448563D01*
X123547289Y-71448562D01*
X123553060Y-71443633D01*
X123595301Y-71384848D01*
X123651294Y-71341201D01*
X123721998Y-71334755D01*
X123784962Y-71367557D01*
X123802204Y-71388099D01*
X123829028Y-71428017D01*
X123947341Y-71535675D01*
X123954018Y-71539300D01*
X123954019Y-71539301D01*
X123960077Y-71542590D01*
X124087920Y-71612002D01*
X124242647Y-71652594D01*
X124327033Y-71653920D01*
X124394993Y-71654988D01*
X124394996Y-71654988D01*
X124402590Y-71655107D01*
X124463996Y-71641043D01*
X124551113Y-71621091D01*
X124551117Y-71621090D01*
X124558516Y-71619395D01*
X124629617Y-71583635D01*
X124694640Y-71550933D01*
X124694643Y-71550931D01*
X124701423Y-71547521D01*
X124707195Y-71542592D01*
X124707197Y-71542590D01*
X124817288Y-71448563D01*
X124817289Y-71448562D01*
X124823060Y-71443633D01*
X124865301Y-71384848D01*
X124921294Y-71341201D01*
X124991998Y-71334755D01*
X125054962Y-71367557D01*
X125072204Y-71388099D01*
X125099028Y-71428017D01*
X125217341Y-71535675D01*
X125224018Y-71539300D01*
X125224019Y-71539301D01*
X125230077Y-71542590D01*
X125357920Y-71612002D01*
X125512647Y-71652594D01*
X125597033Y-71653920D01*
X125664993Y-71654988D01*
X125664996Y-71654988D01*
X125672590Y-71655107D01*
X125733996Y-71641043D01*
X125821113Y-71621091D01*
X125821117Y-71621090D01*
X125828516Y-71619395D01*
X125899617Y-71583635D01*
X125964640Y-71550933D01*
X125964643Y-71550931D01*
X125971423Y-71547521D01*
X125977195Y-71542592D01*
X125977197Y-71542590D01*
X126087288Y-71448563D01*
X126087289Y-71448562D01*
X126093060Y-71443633D01*
X126135301Y-71384848D01*
X126191294Y-71341201D01*
X126261998Y-71334755D01*
X126324962Y-71367557D01*
X126342204Y-71388099D01*
X126369028Y-71428017D01*
X126487341Y-71535675D01*
X126494018Y-71539300D01*
X126494019Y-71539301D01*
X126500077Y-71542590D01*
X126627920Y-71612002D01*
X126782647Y-71652594D01*
X126867033Y-71653920D01*
X126934993Y-71654988D01*
X126934996Y-71654988D01*
X126942590Y-71655107D01*
X127003996Y-71641043D01*
X127091113Y-71621091D01*
X127091117Y-71621090D01*
X127098516Y-71619395D01*
X127169617Y-71583635D01*
X127234640Y-71550933D01*
X127234643Y-71550931D01*
X127241423Y-71547521D01*
X127247195Y-71542592D01*
X127247197Y-71542590D01*
X127357288Y-71448563D01*
X127357289Y-71448562D01*
X127363060Y-71443633D01*
X127417726Y-71367557D01*
X127451974Y-71319896D01*
X127451975Y-71319894D01*
X127456405Y-71313729D01*
X127516069Y-71165310D01*
X127538608Y-71006942D01*
X127538754Y-70993000D01*
X127537911Y-70986028D01*
X127520449Y-70841735D01*
X127519537Y-70834195D01*
X127514307Y-70820354D01*
X127465678Y-70691661D01*
X127465677Y-70691658D01*
X127462994Y-70684559D01*
X127372389Y-70552729D01*
X127258424Y-70451189D01*
X127220868Y-70390940D01*
X127221848Y-70319950D01*
X127260412Y-70261303D01*
X127357288Y-70178563D01*
X127357289Y-70178562D01*
X127363060Y-70173633D01*
X127417726Y-70097557D01*
X127451974Y-70049896D01*
X127451975Y-70049894D01*
X127456405Y-70043729D01*
X127472358Y-70004046D01*
X127513235Y-69902360D01*
X127513235Y-69902359D01*
X127516069Y-69895310D01*
X127538608Y-69736942D01*
X127538754Y-69723000D01*
X127537911Y-69716028D01*
X127520449Y-69571735D01*
X127519537Y-69564195D01*
X127514307Y-69550354D01*
X127465678Y-69421661D01*
X127465677Y-69421658D01*
X127462994Y-69414559D01*
X127372389Y-69282729D01*
X127258424Y-69181189D01*
X127220868Y-69120940D01*
X127221848Y-69049950D01*
X127260412Y-68991303D01*
X127357288Y-68908563D01*
X127357289Y-68908562D01*
X127363060Y-68903633D01*
X127417726Y-68827557D01*
X127451974Y-68779896D01*
X127451975Y-68779894D01*
X127456405Y-68773729D01*
X127473296Y-68731713D01*
X127513235Y-68632360D01*
X127513235Y-68632359D01*
X127516069Y-68625310D01*
X127538608Y-68466942D01*
X127538754Y-68453000D01*
X127537911Y-68446028D01*
X127520449Y-68301735D01*
X127519537Y-68294195D01*
X127514307Y-68280354D01*
X127465678Y-68151661D01*
X127465677Y-68151658D01*
X127462994Y-68144559D01*
X127372389Y-68012729D01*
X127258424Y-67911189D01*
X127220868Y-67850940D01*
X127221848Y-67779950D01*
X127260412Y-67721303D01*
X127357288Y-67638563D01*
X127357289Y-67638562D01*
X127363060Y-67633633D01*
X127417726Y-67557557D01*
X127451974Y-67509896D01*
X127451975Y-67509894D01*
X127456405Y-67503729D01*
X127476389Y-67454019D01*
X127513235Y-67362360D01*
X127513235Y-67362359D01*
X127516069Y-67355310D01*
X127538608Y-67196942D01*
X127538754Y-67183000D01*
X127537911Y-67176028D01*
X127520449Y-67031735D01*
X127519537Y-67024195D01*
X127514307Y-67010354D01*
X127465678Y-66881661D01*
X127465677Y-66881658D01*
X127462994Y-66874559D01*
X127409243Y-66796351D01*
X135427628Y-66796351D01*
X135428792Y-66805253D01*
X135428792Y-66805256D01*
X135429347Y-66809497D01*
X135444627Y-66926350D01*
X135497430Y-67046354D01*
X135581791Y-67146713D01*
X135589262Y-67151686D01*
X135589263Y-67151687D01*
X135605470Y-67162475D01*
X135690929Y-67219362D01*
X135780372Y-67247306D01*
X135807501Y-67255782D01*
X135807502Y-67255782D01*
X135816070Y-67258459D01*
X135880505Y-67259640D01*
X135938178Y-67260697D01*
X135938181Y-67260697D01*
X135947154Y-67260861D01*
X135988547Y-67249576D01*
X136064982Y-67228738D01*
X136064985Y-67228737D01*
X136073644Y-67226376D01*
X136085068Y-67219362D01*
X136177719Y-67162475D01*
X136177722Y-67162472D01*
X136185371Y-67157776D01*
X136273353Y-67060575D01*
X136284225Y-67038136D01*
X136326604Y-66950664D01*
X136326604Y-66950663D01*
X136330517Y-66942587D01*
X136352269Y-66813298D01*
X136352407Y-66802000D01*
X136343195Y-66737674D01*
X136335094Y-66681104D01*
X136335093Y-66681101D01*
X136333821Y-66672218D01*
X136319795Y-66641370D01*
X136283273Y-66561043D01*
X136283271Y-66561040D01*
X136279556Y-66552869D01*
X136193975Y-66453547D01*
X136180895Y-66445069D01*
X136091489Y-66387118D01*
X136091487Y-66387117D01*
X136083958Y-66382237D01*
X135958348Y-66344672D01*
X135949372Y-66344617D01*
X135949371Y-66344617D01*
X135894959Y-66344285D01*
X135827244Y-66343871D01*
X135701185Y-66379899D01*
X135693598Y-66384686D01*
X135693596Y-66384687D01*
X135635243Y-66421505D01*
X135590305Y-66449859D01*
X135503517Y-66548128D01*
X135499703Y-66556251D01*
X135499702Y-66556253D01*
X135477861Y-66602773D01*
X135447798Y-66666805D01*
X135446417Y-66675677D01*
X135429009Y-66787478D01*
X135429009Y-66787482D01*
X135427628Y-66796351D01*
X127409243Y-66796351D01*
X127372389Y-66742729D01*
X127297132Y-66675677D01*
X127258627Y-66641370D01*
X127258624Y-66641368D01*
X127252955Y-66636317D01*
X127238919Y-66628885D01*
X127118297Y-66565019D01*
X127118298Y-66565019D01*
X127111585Y-66561465D01*
X127104220Y-66559615D01*
X126963812Y-66524347D01*
X126963808Y-66524347D01*
X126956441Y-66522496D01*
X126948841Y-66522456D01*
X126948840Y-66522456D01*
X126883147Y-66522112D01*
X126796480Y-66521658D01*
X126789100Y-66523430D01*
X126789098Y-66523430D01*
X126648317Y-66557229D01*
X126648315Y-66557230D01*
X126640937Y-66559001D01*
X126498791Y-66632368D01*
X126493069Y-66637360D01*
X126493067Y-66637361D01*
X126468631Y-66658678D01*
X126378248Y-66737524D01*
X126370188Y-66748992D01*
X126341212Y-66790221D01*
X126285678Y-66834452D01*
X126215046Y-66841638D01*
X126151741Y-66809497D01*
X126134285Y-66789137D01*
X126106694Y-66748992D01*
X126106692Y-66748989D01*
X126102389Y-66742729D01*
X126027132Y-66675677D01*
X125988627Y-66641370D01*
X125988624Y-66641368D01*
X125982955Y-66636317D01*
X125968919Y-66628885D01*
X125848297Y-66565019D01*
X125848298Y-66565019D01*
X125841585Y-66561465D01*
X125834220Y-66559615D01*
X125693812Y-66524347D01*
X125693808Y-66524347D01*
X125686441Y-66522496D01*
X125678841Y-66522456D01*
X125678840Y-66522456D01*
X125613147Y-66522112D01*
X125526480Y-66521658D01*
X125519100Y-66523430D01*
X125519098Y-66523430D01*
X125378317Y-66557229D01*
X125378315Y-66557230D01*
X125370937Y-66559001D01*
X125228791Y-66632368D01*
X125223069Y-66637360D01*
X125223067Y-66637361D01*
X125198631Y-66658678D01*
X125108248Y-66737524D01*
X125100188Y-66748992D01*
X125071212Y-66790221D01*
X125015678Y-66834452D01*
X124945046Y-66841638D01*
X124881741Y-66809497D01*
X124864285Y-66789137D01*
X124836694Y-66748992D01*
X124836692Y-66748989D01*
X124832389Y-66742729D01*
X124757132Y-66675677D01*
X124718627Y-66641370D01*
X124718624Y-66641368D01*
X124712955Y-66636317D01*
X124698919Y-66628885D01*
X124578297Y-66565019D01*
X124578298Y-66565019D01*
X124571585Y-66561465D01*
X124564220Y-66559615D01*
X124423812Y-66524347D01*
X124423808Y-66524347D01*
X124416441Y-66522496D01*
X124408841Y-66522456D01*
X124408840Y-66522456D01*
X124343147Y-66522112D01*
X124256480Y-66521658D01*
X124249100Y-66523430D01*
X124249098Y-66523430D01*
X124108317Y-66557229D01*
X124108315Y-66557230D01*
X124100937Y-66559001D01*
X123958791Y-66632368D01*
X123953069Y-66637360D01*
X123953067Y-66637361D01*
X123928631Y-66658678D01*
X123838248Y-66737524D01*
X123830188Y-66748992D01*
X123801212Y-66790221D01*
X123745678Y-66834452D01*
X123675046Y-66841638D01*
X123611741Y-66809497D01*
X123594285Y-66789137D01*
X123566694Y-66748992D01*
X123566692Y-66748989D01*
X123562389Y-66742729D01*
X123487132Y-66675677D01*
X123448627Y-66641370D01*
X123448624Y-66641368D01*
X123442955Y-66636317D01*
X123428919Y-66628885D01*
X123308297Y-66565019D01*
X123308298Y-66565019D01*
X123301585Y-66561465D01*
X123294220Y-66559615D01*
X123153812Y-66524347D01*
X123153808Y-66524347D01*
X123146441Y-66522496D01*
X123138841Y-66522456D01*
X123138840Y-66522456D01*
X123073147Y-66522112D01*
X122986480Y-66521658D01*
X122979100Y-66523430D01*
X122979098Y-66523430D01*
X122838317Y-66557229D01*
X122838315Y-66557230D01*
X122830937Y-66559001D01*
X122688791Y-66632368D01*
X122683069Y-66637360D01*
X122683067Y-66637361D01*
X122658631Y-66658678D01*
X122568248Y-66737524D01*
X122560188Y-66748992D01*
X122495076Y-66841638D01*
X122476269Y-66868397D01*
X122418162Y-67017434D01*
X122417170Y-67024967D01*
X122417170Y-67024968D01*
X122399686Y-67157776D01*
X122397283Y-67176028D01*
X122414836Y-67335026D01*
X122469809Y-67485246D01*
X122474046Y-67491552D01*
X122474048Y-67491555D01*
X122494082Y-67521368D01*
X122559028Y-67618017D01*
X122581905Y-67638834D01*
X122677341Y-67725675D01*
X122675037Y-67728207D01*
X122709530Y-67771783D01*
X122716503Y-67842436D01*
X122684171Y-67905644D01*
X122675537Y-67913931D01*
X122568248Y-68007524D01*
X122560188Y-68018992D01*
X122495076Y-68111638D01*
X122476269Y-68138397D01*
X122473509Y-68145477D01*
X122432227Y-68251360D01*
X122418162Y-68287434D01*
X122417170Y-68294967D01*
X122417170Y-68294968D01*
X122404300Y-68392729D01*
X122397283Y-68446028D01*
X122414836Y-68605026D01*
X122469809Y-68755246D01*
X122474046Y-68761552D01*
X122474048Y-68761555D01*
X122494082Y-68791368D01*
X122559028Y-68888017D01*
X122672536Y-68991303D01*
X122677341Y-68995675D01*
X122675037Y-68998207D01*
X122709530Y-69041783D01*
X122716503Y-69112436D01*
X122684171Y-69175644D01*
X122675537Y-69183931D01*
X122568248Y-69277524D01*
X122560188Y-69288992D01*
X122495076Y-69381638D01*
X122476269Y-69408397D01*
X122473509Y-69415477D01*
X122432227Y-69521360D01*
X122418162Y-69557434D01*
X122417170Y-69564967D01*
X122417170Y-69564968D01*
X122404300Y-69662729D01*
X122397283Y-69716028D01*
X122414836Y-69875026D01*
X122469809Y-70025246D01*
X122474046Y-70031552D01*
X122474048Y-70031555D01*
X122477492Y-70036680D01*
X122559028Y-70158017D01*
X122591354Y-70187432D01*
X122677341Y-70265675D01*
X122675037Y-70268207D01*
X122709530Y-70311783D01*
X122716503Y-70382436D01*
X122684171Y-70445644D01*
X122675537Y-70453931D01*
X122568248Y-70547524D01*
X122560188Y-70558992D01*
X122495076Y-70651638D01*
X122476269Y-70678397D01*
X122418162Y-70827434D01*
X122417170Y-70834967D01*
X122417170Y-70834968D01*
X122399686Y-70967776D01*
X122397283Y-70986028D01*
X115073645Y-70986028D01*
X115095719Y-70972475D01*
X115095722Y-70972472D01*
X115103371Y-70967776D01*
X115191353Y-70870575D01*
X115202225Y-70848136D01*
X115244604Y-70760664D01*
X115244604Y-70760663D01*
X115248517Y-70752587D01*
X115270269Y-70623298D01*
X115270407Y-70612000D01*
X115261195Y-70547674D01*
X115253094Y-70491104D01*
X115253093Y-70491101D01*
X115251821Y-70482218D01*
X115238961Y-70453933D01*
X115201273Y-70371043D01*
X115201271Y-70371040D01*
X115197556Y-70362869D01*
X115111975Y-70263547D01*
X115098895Y-70255069D01*
X115068069Y-70235088D01*
X115021785Y-70181251D01*
X115011955Y-70110939D01*
X115041700Y-70046473D01*
X115101575Y-70008322D01*
X115123436Y-70004046D01*
X115123992Y-70003988D01*
X115131590Y-70004107D01*
X115209553Y-69986251D01*
X115280113Y-69970091D01*
X115280117Y-69970090D01*
X115287516Y-69968395D01*
X115370223Y-69926798D01*
X115423640Y-69899933D01*
X115423643Y-69899931D01*
X115430423Y-69896521D01*
X115436195Y-69891592D01*
X115436197Y-69891590D01*
X115546288Y-69797563D01*
X115546289Y-69797562D01*
X115552060Y-69792633D01*
X115645405Y-69662729D01*
X115685016Y-69564195D01*
X115702235Y-69521360D01*
X115702235Y-69521359D01*
X115705069Y-69514310D01*
X115727608Y-69355942D01*
X115727754Y-69342000D01*
X115726911Y-69335028D01*
X115709449Y-69190735D01*
X115708537Y-69183195D01*
X115672700Y-69088355D01*
X115654678Y-69040661D01*
X115654677Y-69040658D01*
X115651994Y-69033559D01*
X115561389Y-68901729D01*
X115501196Y-68848099D01*
X115447627Y-68800370D01*
X115447624Y-68800368D01*
X115441955Y-68795317D01*
X115427919Y-68787885D01*
X115323147Y-68732411D01*
X115300585Y-68720465D01*
X115293220Y-68718615D01*
X115152812Y-68683347D01*
X115152808Y-68683347D01*
X115145441Y-68681496D01*
X115137841Y-68681456D01*
X115137840Y-68681456D01*
X115072147Y-68681112D01*
X114985480Y-68680658D01*
X114978100Y-68682430D01*
X114978098Y-68682430D01*
X114837317Y-68716229D01*
X114837315Y-68716230D01*
X114829937Y-68718001D01*
X114802018Y-68732411D01*
X114710018Y-68779896D01*
X114687791Y-68791368D01*
X114682069Y-68796360D01*
X114682067Y-68796361D01*
X114626484Y-68844849D01*
X114567248Y-68896524D01*
X114558787Y-68908563D01*
X114497564Y-68995675D01*
X114475269Y-69027397D01*
X114417162Y-69176434D01*
X114416170Y-69183967D01*
X114416170Y-69183968D01*
X114402344Y-69288992D01*
X114396283Y-69335028D01*
X114413836Y-69494026D01*
X114468809Y-69644246D01*
X114473046Y-69650552D01*
X114473048Y-69650555D01*
X114476492Y-69655680D01*
X114558028Y-69777017D01*
X114676341Y-69884675D01*
X114683016Y-69888299D01*
X114753923Y-69926798D01*
X114804244Y-69976881D01*
X114819501Y-70046219D01*
X114794849Y-70112798D01*
X114738114Y-70155480D01*
X114728425Y-70158678D01*
X114627815Y-70187432D01*
X114627812Y-70187433D01*
X114619185Y-70189899D01*
X114508305Y-70259859D01*
X114421517Y-70358128D01*
X114365798Y-70476805D01*
X114364417Y-70485677D01*
X114347009Y-70597478D01*
X114347009Y-70597482D01*
X114345628Y-70606351D01*
X112014000Y-70606351D01*
X112014000Y-68536448D01*
X112034002Y-68468327D01*
X112087658Y-68421834D01*
X112157932Y-68411730D01*
X112222512Y-68441224D01*
X112244581Y-68466172D01*
X112246029Y-68468327D01*
X112272028Y-68507017D01*
X112390341Y-68614675D01*
X112397018Y-68618300D01*
X112397019Y-68618301D01*
X112478319Y-68662442D01*
X112530920Y-68691002D01*
X112685647Y-68731594D01*
X112770033Y-68732920D01*
X112837993Y-68733988D01*
X112837996Y-68733988D01*
X112845590Y-68734107D01*
X112905154Y-68720465D01*
X112994113Y-68700091D01*
X112994117Y-68700090D01*
X113001516Y-68698395D01*
X113072617Y-68662635D01*
X113137640Y-68629933D01*
X113137643Y-68629931D01*
X113144423Y-68626521D01*
X113150195Y-68621592D01*
X113150197Y-68621590D01*
X113260288Y-68527563D01*
X113260289Y-68527562D01*
X113266060Y-68522633D01*
X113338491Y-68421834D01*
X113354974Y-68398896D01*
X113354975Y-68398894D01*
X113359405Y-68392729D01*
X113399016Y-68294195D01*
X113416235Y-68251360D01*
X113416235Y-68251359D01*
X113419069Y-68244310D01*
X113441608Y-68085942D01*
X113441754Y-68072000D01*
X113440911Y-68065028D01*
X113423449Y-67920735D01*
X113422537Y-67913195D01*
X113386700Y-67818355D01*
X113368678Y-67770661D01*
X113368677Y-67770658D01*
X113365994Y-67763559D01*
X113275389Y-67631729D01*
X113215196Y-67578099D01*
X113161627Y-67530370D01*
X113161624Y-67530368D01*
X113155955Y-67525317D01*
X113141919Y-67517885D01*
X113021297Y-67454019D01*
X113021298Y-67454019D01*
X113014585Y-67450465D01*
X113007220Y-67448615D01*
X112866812Y-67413347D01*
X112866808Y-67413347D01*
X112859441Y-67411496D01*
X112851841Y-67411456D01*
X112851840Y-67411456D01*
X112786147Y-67411112D01*
X112699480Y-67410658D01*
X112692100Y-67412430D01*
X112692098Y-67412430D01*
X112551317Y-67446229D01*
X112551315Y-67446230D01*
X112543937Y-67448001D01*
X112485602Y-67478110D01*
X112424018Y-67509896D01*
X112401791Y-67521368D01*
X112396069Y-67526360D01*
X112396067Y-67526361D01*
X112340484Y-67574849D01*
X112281248Y-67626524D01*
X112276878Y-67632742D01*
X112243087Y-67680821D01*
X112187553Y-67725053D01*
X112116921Y-67732239D01*
X112053616Y-67700098D01*
X112017738Y-67638834D01*
X112014000Y-67608371D01*
X112014000Y-65526351D01*
X135427628Y-65526351D01*
X135428792Y-65535253D01*
X135428792Y-65535256D01*
X135429844Y-65543298D01*
X135444627Y-65656350D01*
X135497430Y-65776354D01*
X135581791Y-65876713D01*
X135589262Y-65881686D01*
X135589263Y-65881687D01*
X135605470Y-65892475D01*
X135690929Y-65949362D01*
X135780372Y-65977306D01*
X135807501Y-65985782D01*
X135807502Y-65985782D01*
X135816070Y-65988459D01*
X135880505Y-65989640D01*
X135938178Y-65990697D01*
X135938181Y-65990697D01*
X135947154Y-65990861D01*
X135988547Y-65979576D01*
X136064982Y-65958738D01*
X136064985Y-65958737D01*
X136073644Y-65956376D01*
X136085068Y-65949362D01*
X136177719Y-65892475D01*
X136177722Y-65892472D01*
X136185371Y-65887776D01*
X136273353Y-65790575D01*
X136284225Y-65768136D01*
X136326604Y-65680664D01*
X136326604Y-65680663D01*
X136330517Y-65672587D01*
X136352269Y-65543298D01*
X136352407Y-65532000D01*
X136333821Y-65402218D01*
X136279556Y-65282869D01*
X136193975Y-65183547D01*
X136180895Y-65175069D01*
X136091489Y-65117118D01*
X136091487Y-65117117D01*
X136083958Y-65112237D01*
X135958348Y-65074672D01*
X135949372Y-65074617D01*
X135949371Y-65074617D01*
X135894959Y-65074285D01*
X135827244Y-65073871D01*
X135701185Y-65109899D01*
X135693598Y-65114686D01*
X135693596Y-65114687D01*
X135635243Y-65151505D01*
X135590305Y-65179859D01*
X135503517Y-65278128D01*
X135447798Y-65396805D01*
X135446417Y-65405677D01*
X135429009Y-65517478D01*
X135429009Y-65517482D01*
X135427628Y-65526351D01*
X112014000Y-65526351D01*
X112014000Y-64255028D01*
X113380283Y-64255028D01*
X113397836Y-64414026D01*
X113452809Y-64564246D01*
X113457046Y-64570552D01*
X113457048Y-64570555D01*
X113498073Y-64631605D01*
X113542028Y-64697017D01*
X113660341Y-64804675D01*
X113800920Y-64881002D01*
X113955647Y-64921594D01*
X114040033Y-64922920D01*
X114107993Y-64923988D01*
X114107996Y-64923988D01*
X114115590Y-64924107D01*
X114171334Y-64911340D01*
X114264113Y-64890091D01*
X114264117Y-64890090D01*
X114271516Y-64888395D01*
X114342617Y-64852635D01*
X114407640Y-64819933D01*
X114407643Y-64819931D01*
X114414423Y-64816521D01*
X114420195Y-64811592D01*
X114420197Y-64811590D01*
X114530288Y-64717563D01*
X114530289Y-64717562D01*
X114536060Y-64712633D01*
X114600845Y-64622475D01*
X114624974Y-64588896D01*
X114624975Y-64588894D01*
X114629405Y-64582729D01*
X114657346Y-64513225D01*
X114686235Y-64441360D01*
X114686235Y-64441359D01*
X114689069Y-64434310D01*
X114711608Y-64275942D01*
X114711754Y-64262000D01*
X114711172Y-64257183D01*
X114711071Y-64256351D01*
X136392328Y-64256351D01*
X136393492Y-64265253D01*
X136393492Y-64265256D01*
X136400828Y-64321351D01*
X136409327Y-64386350D01*
X136462130Y-64506354D01*
X136546491Y-64606713D01*
X136553962Y-64611686D01*
X136553963Y-64611687D01*
X136570170Y-64622475D01*
X136655629Y-64679362D01*
X136742393Y-64706469D01*
X136772201Y-64715782D01*
X136772202Y-64715782D01*
X136780770Y-64718459D01*
X136845205Y-64719640D01*
X136902878Y-64720697D01*
X136902881Y-64720697D01*
X136911854Y-64720861D01*
X136953247Y-64709576D01*
X137029682Y-64688738D01*
X137029685Y-64688737D01*
X137038344Y-64686376D01*
X137049768Y-64679362D01*
X137142419Y-64622475D01*
X137142422Y-64622472D01*
X137150071Y-64617776D01*
X137188175Y-64575680D01*
X137232028Y-64527231D01*
X137238053Y-64520575D01*
X137248925Y-64498136D01*
X137291304Y-64410664D01*
X137291304Y-64410663D01*
X137295217Y-64402587D01*
X137316969Y-64273298D01*
X137317107Y-64262000D01*
X137298521Y-64132218D01*
X137288753Y-64110735D01*
X137247973Y-64021043D01*
X137247971Y-64021040D01*
X137244256Y-64012869D01*
X137158675Y-63913547D01*
X137145595Y-63905069D01*
X137056189Y-63847118D01*
X137056187Y-63847117D01*
X137048658Y-63842237D01*
X136923048Y-63804672D01*
X136914072Y-63804617D01*
X136914071Y-63804617D01*
X136859659Y-63804285D01*
X136791944Y-63803871D01*
X136665885Y-63839899D01*
X136658298Y-63844686D01*
X136658296Y-63844687D01*
X136599943Y-63881505D01*
X136555005Y-63909859D01*
X136468217Y-64008128D01*
X136412498Y-64126805D01*
X136411117Y-64135677D01*
X136393709Y-64247478D01*
X136393709Y-64247482D01*
X136392328Y-64256351D01*
X114711071Y-64256351D01*
X114697124Y-64141104D01*
X114692537Y-64103195D01*
X114659684Y-64016253D01*
X114638678Y-63960661D01*
X114638677Y-63960658D01*
X114635994Y-63953559D01*
X114545389Y-63821729D01*
X114498274Y-63779751D01*
X114431627Y-63720370D01*
X114431624Y-63720368D01*
X114425955Y-63715317D01*
X114411919Y-63707885D01*
X114291297Y-63644019D01*
X114291298Y-63644019D01*
X114284585Y-63640465D01*
X114277220Y-63638615D01*
X114136812Y-63603347D01*
X114136808Y-63603347D01*
X114129441Y-63601496D01*
X114121841Y-63601456D01*
X114121840Y-63601456D01*
X114056147Y-63601112D01*
X113969480Y-63600658D01*
X113962100Y-63602430D01*
X113962098Y-63602430D01*
X113821317Y-63636229D01*
X113821315Y-63636230D01*
X113813937Y-63638001D01*
X113671791Y-63711368D01*
X113666069Y-63716360D01*
X113666067Y-63716361D01*
X113599196Y-63774697D01*
X113551248Y-63816524D01*
X113536553Y-63837433D01*
X113478279Y-63920349D01*
X113459269Y-63947397D01*
X113401162Y-64096434D01*
X113400170Y-64103967D01*
X113400170Y-64103968D01*
X113395996Y-64135677D01*
X113380283Y-64255028D01*
X112014000Y-64255028D01*
X112014000Y-62986351D01*
X135935628Y-62986351D01*
X135936792Y-62995253D01*
X135936792Y-62995256D01*
X135937844Y-63003298D01*
X135952627Y-63116350D01*
X136005430Y-63236354D01*
X136089791Y-63336713D01*
X136097262Y-63341686D01*
X136097263Y-63341687D01*
X136113470Y-63352475D01*
X136198929Y-63409362D01*
X136288372Y-63437306D01*
X136315501Y-63445782D01*
X136315502Y-63445782D01*
X136324070Y-63448459D01*
X136388505Y-63449640D01*
X136446178Y-63450697D01*
X136446181Y-63450697D01*
X136455154Y-63450861D01*
X136496547Y-63439576D01*
X136572982Y-63418738D01*
X136572985Y-63418737D01*
X136581644Y-63416376D01*
X136593068Y-63409362D01*
X136685719Y-63352475D01*
X136685722Y-63352472D01*
X136693371Y-63347776D01*
X136781353Y-63250575D01*
X136792225Y-63228136D01*
X136834604Y-63140664D01*
X136834604Y-63140663D01*
X136838517Y-63132587D01*
X136860269Y-63003298D01*
X136860407Y-62992000D01*
X136841821Y-62862218D01*
X136787556Y-62742869D01*
X136701975Y-62643547D01*
X136608372Y-62582876D01*
X136599489Y-62577118D01*
X136599487Y-62577117D01*
X136591958Y-62572237D01*
X136466348Y-62534672D01*
X136457372Y-62534617D01*
X136457371Y-62534617D01*
X136402959Y-62534285D01*
X136335244Y-62533871D01*
X136259786Y-62555437D01*
X136214402Y-62555110D01*
X136188618Y-62582876D01*
X136098305Y-62639859D01*
X136011517Y-62738128D01*
X135955798Y-62856805D01*
X135954417Y-62865677D01*
X135937009Y-62977478D01*
X135937009Y-62977482D01*
X135935628Y-62986351D01*
X112014000Y-62986351D01*
X112014000Y-61715028D01*
X135224283Y-61715028D01*
X135241836Y-61874026D01*
X135296809Y-62024246D01*
X135301046Y-62030552D01*
X135301048Y-62030555D01*
X135304492Y-62035680D01*
X135386028Y-62157017D01*
X135504341Y-62264675D01*
X135644920Y-62341002D01*
X135652269Y-62342930D01*
X135701730Y-62355906D01*
X135799647Y-62381594D01*
X135884033Y-62382920D01*
X135951993Y-62383988D01*
X135951996Y-62383988D01*
X135959590Y-62384107D01*
X136066554Y-62359609D01*
X136093253Y-62353494D01*
X136133099Y-62355906D01*
X136157808Y-62327802D01*
X136168549Y-62321723D01*
X136251639Y-62279933D01*
X136258423Y-62276521D01*
X136264195Y-62271592D01*
X136264197Y-62271590D01*
X136374288Y-62177563D01*
X136374289Y-62177562D01*
X136380060Y-62172633D01*
X136435061Y-62096091D01*
X136468974Y-62048896D01*
X136468975Y-62048894D01*
X136473405Y-62042729D01*
X136533069Y-61894310D01*
X136555608Y-61735942D01*
X136555754Y-61722000D01*
X136554911Y-61715028D01*
X136543414Y-61620026D01*
X136536537Y-61563195D01*
X136504276Y-61477818D01*
X136497932Y-61461028D01*
X137256283Y-61461028D01*
X137273836Y-61620026D01*
X137328809Y-61770246D01*
X137333046Y-61776552D01*
X137333048Y-61776555D01*
X137336492Y-61781680D01*
X137418028Y-61903017D01*
X137536341Y-62010675D01*
X137676920Y-62087002D01*
X137831647Y-62127594D01*
X137916033Y-62128920D01*
X137983993Y-62129988D01*
X137983996Y-62129988D01*
X137991590Y-62130107D01*
X138047334Y-62117340D01*
X138140113Y-62096091D01*
X138140117Y-62096090D01*
X138147516Y-62094395D01*
X138237982Y-62048896D01*
X138283640Y-62025933D01*
X138283643Y-62025931D01*
X138290423Y-62022521D01*
X138296195Y-62017592D01*
X138296197Y-62017590D01*
X138406288Y-61923563D01*
X138406289Y-61923562D01*
X138412060Y-61918633D01*
X138505405Y-61788729D01*
X138565069Y-61640310D01*
X138587608Y-61481942D01*
X138587754Y-61468000D01*
X138586911Y-61461028D01*
X138569449Y-61316735D01*
X138568537Y-61309195D01*
X138518343Y-61176361D01*
X138514678Y-61166661D01*
X138514677Y-61166658D01*
X138511994Y-61159559D01*
X138421389Y-61027729D01*
X138374274Y-60985751D01*
X138307627Y-60926370D01*
X138307624Y-60926368D01*
X138301955Y-60921317D01*
X138287919Y-60913885D01*
X138167297Y-60850019D01*
X138167298Y-60850019D01*
X138160585Y-60846465D01*
X138153220Y-60844615D01*
X138012812Y-60809347D01*
X138012808Y-60809347D01*
X138005441Y-60807496D01*
X137997841Y-60807456D01*
X137997840Y-60807456D01*
X137932147Y-60807112D01*
X137845480Y-60806658D01*
X137838100Y-60808430D01*
X137838098Y-60808430D01*
X137697317Y-60842229D01*
X137697315Y-60842230D01*
X137689937Y-60844001D01*
X137547791Y-60917368D01*
X137542069Y-60922360D01*
X137542067Y-60922361D01*
X137475196Y-60980697D01*
X137427248Y-61022524D01*
X137335269Y-61153397D01*
X137328109Y-61171762D01*
X137285235Y-61281729D01*
X137277162Y-61302434D01*
X137276170Y-61309967D01*
X137276170Y-61309968D01*
X137263344Y-61407397D01*
X137256283Y-61461028D01*
X136497932Y-61461028D01*
X136482678Y-61420661D01*
X136482677Y-61420658D01*
X136479994Y-61413559D01*
X136389389Y-61281729D01*
X136342274Y-61239751D01*
X136275627Y-61180370D01*
X136275624Y-61180368D01*
X136269955Y-61175317D01*
X136255919Y-61167885D01*
X136135297Y-61104019D01*
X136135298Y-61104019D01*
X136128585Y-61100465D01*
X136121220Y-61098615D01*
X135980812Y-61063347D01*
X135980808Y-61063347D01*
X135973441Y-61061496D01*
X135965841Y-61061456D01*
X135965840Y-61061456D01*
X135900147Y-61061112D01*
X135813480Y-61060658D01*
X135806100Y-61062430D01*
X135806098Y-61062430D01*
X135665317Y-61096229D01*
X135665315Y-61096230D01*
X135657937Y-61098001D01*
X135570990Y-61142878D01*
X135524911Y-61166661D01*
X135515791Y-61171368D01*
X135510069Y-61176360D01*
X135510067Y-61176361D01*
X135443196Y-61234697D01*
X135395248Y-61276524D01*
X135303269Y-61407397D01*
X135245162Y-61556434D01*
X135244170Y-61563967D01*
X135244170Y-61563968D01*
X135233192Y-61647360D01*
X135224283Y-61715028D01*
X112014000Y-61715028D01*
X112014000Y-60324000D01*
X112034002Y-60255879D01*
X112087658Y-60209386D01*
X112140000Y-60198000D01*
X139828000Y-60198000D01*
X139896121Y-60218002D01*
G37*
%TD.AperFunction*%
%TD*%
M02*
